%TF.GenerationSoftware,KiCad,Pcbnew,10.0.3*%
%TF.CreationDate,2026-06-07T13:31:44-04:00*%
%TF.ProjectId,moveOmeterV1,6d6f7665-4f6d-4657-9465-7256312e6b69,rev?*%
%TF.SameCoordinates,Original*%
%TF.FileFunction,Legend,Bot*%
%TF.FilePolarity,Positive*%
%FSLAX46Y46*%
G04 Gerber Fmt 4.6, Leading zero omitted, Abs format (unit mm)*
G04 Created by KiCad (PCBNEW 10.0.3) date 2026-06-07 13:31:44*
%MOMM*%
%LPD*%
G01*
G04 APERTURE LIST*
%ADD10C,0.250000*%
%ADD11C,0.150000*%
%ADD12C,0.120000*%
G04 APERTURE END LIST*
D10*
X129851812Y-52210343D02*
X129851812Y-51410343D01*
X129851812Y-51524629D02*
X129794669Y-51467486D01*
X129794669Y-51467486D02*
X129680384Y-51410343D01*
X129680384Y-51410343D02*
X129508955Y-51410343D01*
X129508955Y-51410343D02*
X129394669Y-51467486D01*
X129394669Y-51467486D02*
X129337527Y-51581772D01*
X129337527Y-51581772D02*
X129337527Y-52210343D01*
X129337527Y-51581772D02*
X129280384Y-51467486D01*
X129280384Y-51467486D02*
X129166098Y-51410343D01*
X129166098Y-51410343D02*
X128994669Y-51410343D01*
X128994669Y-51410343D02*
X128880384Y-51467486D01*
X128880384Y-51467486D02*
X128823241Y-51581772D01*
X128823241Y-51581772D02*
X128823241Y-52210343D01*
X128080384Y-52210343D02*
X128194669Y-52153201D01*
X128194669Y-52153201D02*
X128251812Y-52096058D01*
X128251812Y-52096058D02*
X128308955Y-51981772D01*
X128308955Y-51981772D02*
X128308955Y-51638915D01*
X128308955Y-51638915D02*
X128251812Y-51524629D01*
X128251812Y-51524629D02*
X128194669Y-51467486D01*
X128194669Y-51467486D02*
X128080384Y-51410343D01*
X128080384Y-51410343D02*
X127908955Y-51410343D01*
X127908955Y-51410343D02*
X127794669Y-51467486D01*
X127794669Y-51467486D02*
X127737527Y-51524629D01*
X127737527Y-51524629D02*
X127680384Y-51638915D01*
X127680384Y-51638915D02*
X127680384Y-51981772D01*
X127680384Y-51981772D02*
X127737527Y-52096058D01*
X127737527Y-52096058D02*
X127794669Y-52153201D01*
X127794669Y-52153201D02*
X127908955Y-52210343D01*
X127908955Y-52210343D02*
X128080384Y-52210343D01*
X127280384Y-51410343D02*
X126994670Y-52210343D01*
X126994670Y-52210343D02*
X126708955Y-51410343D01*
X125794669Y-52153201D02*
X125908955Y-52210343D01*
X125908955Y-52210343D02*
X126137527Y-52210343D01*
X126137527Y-52210343D02*
X126251812Y-52153201D01*
X126251812Y-52153201D02*
X126308955Y-52038915D01*
X126308955Y-52038915D02*
X126308955Y-51581772D01*
X126308955Y-51581772D02*
X126251812Y-51467486D01*
X126251812Y-51467486D02*
X126137527Y-51410343D01*
X126137527Y-51410343D02*
X125908955Y-51410343D01*
X125908955Y-51410343D02*
X125794669Y-51467486D01*
X125794669Y-51467486D02*
X125737527Y-51581772D01*
X125737527Y-51581772D02*
X125737527Y-51696058D01*
X125737527Y-51696058D02*
X126308955Y-51810343D01*
X124994670Y-51010343D02*
X124766098Y-51010343D01*
X124766098Y-51010343D02*
X124651813Y-51067486D01*
X124651813Y-51067486D02*
X124537527Y-51181772D01*
X124537527Y-51181772D02*
X124480384Y-51410343D01*
X124480384Y-51410343D02*
X124480384Y-51810343D01*
X124480384Y-51810343D02*
X124537527Y-52038915D01*
X124537527Y-52038915D02*
X124651813Y-52153201D01*
X124651813Y-52153201D02*
X124766098Y-52210343D01*
X124766098Y-52210343D02*
X124994670Y-52210343D01*
X124994670Y-52210343D02*
X125108956Y-52153201D01*
X125108956Y-52153201D02*
X125223241Y-52038915D01*
X125223241Y-52038915D02*
X125280384Y-51810343D01*
X125280384Y-51810343D02*
X125280384Y-51410343D01*
X125280384Y-51410343D02*
X125223241Y-51181772D01*
X125223241Y-51181772D02*
X125108956Y-51067486D01*
X125108956Y-51067486D02*
X124994670Y-51010343D01*
X123966098Y-52210343D02*
X123966098Y-51410343D01*
X123966098Y-51524629D02*
X123908955Y-51467486D01*
X123908955Y-51467486D02*
X123794670Y-51410343D01*
X123794670Y-51410343D02*
X123623241Y-51410343D01*
X123623241Y-51410343D02*
X123508955Y-51467486D01*
X123508955Y-51467486D02*
X123451813Y-51581772D01*
X123451813Y-51581772D02*
X123451813Y-52210343D01*
X123451813Y-51581772D02*
X123394670Y-51467486D01*
X123394670Y-51467486D02*
X123280384Y-51410343D01*
X123280384Y-51410343D02*
X123108955Y-51410343D01*
X123108955Y-51410343D02*
X122994670Y-51467486D01*
X122994670Y-51467486D02*
X122937527Y-51581772D01*
X122937527Y-51581772D02*
X122937527Y-52210343D01*
X121908955Y-52153201D02*
X122023241Y-52210343D01*
X122023241Y-52210343D02*
X122251813Y-52210343D01*
X122251813Y-52210343D02*
X122366098Y-52153201D01*
X122366098Y-52153201D02*
X122423241Y-52038915D01*
X122423241Y-52038915D02*
X122423241Y-51581772D01*
X122423241Y-51581772D02*
X122366098Y-51467486D01*
X122366098Y-51467486D02*
X122251813Y-51410343D01*
X122251813Y-51410343D02*
X122023241Y-51410343D01*
X122023241Y-51410343D02*
X121908955Y-51467486D01*
X121908955Y-51467486D02*
X121851813Y-51581772D01*
X121851813Y-51581772D02*
X121851813Y-51696058D01*
X121851813Y-51696058D02*
X122423241Y-51810343D01*
X121508956Y-51410343D02*
X121051813Y-51410343D01*
X121337527Y-51010343D02*
X121337527Y-52038915D01*
X121337527Y-52038915D02*
X121280384Y-52153201D01*
X121280384Y-52153201D02*
X121166099Y-52210343D01*
X121166099Y-52210343D02*
X121051813Y-52210343D01*
X120194670Y-52153201D02*
X120308956Y-52210343D01*
X120308956Y-52210343D02*
X120537528Y-52210343D01*
X120537528Y-52210343D02*
X120651813Y-52153201D01*
X120651813Y-52153201D02*
X120708956Y-52038915D01*
X120708956Y-52038915D02*
X120708956Y-51581772D01*
X120708956Y-51581772D02*
X120651813Y-51467486D01*
X120651813Y-51467486D02*
X120537528Y-51410343D01*
X120537528Y-51410343D02*
X120308956Y-51410343D01*
X120308956Y-51410343D02*
X120194670Y-51467486D01*
X120194670Y-51467486D02*
X120137528Y-51581772D01*
X120137528Y-51581772D02*
X120137528Y-51696058D01*
X120137528Y-51696058D02*
X120708956Y-51810343D01*
X119623242Y-52210343D02*
X119623242Y-51410343D01*
X119623242Y-51638915D02*
X119566099Y-51524629D01*
X119566099Y-51524629D02*
X119508957Y-51467486D01*
X119508957Y-51467486D02*
X119394671Y-51410343D01*
X119394671Y-51410343D02*
X119280385Y-51410343D01*
X118023242Y-51010343D02*
X118023242Y-51238915D01*
X117566099Y-51010343D02*
X117566099Y-51238915D01*
X117108956Y-52153201D02*
X116937528Y-52210343D01*
X116937528Y-52210343D02*
X116651813Y-52210343D01*
X116651813Y-52210343D02*
X116537528Y-52153201D01*
X116537528Y-52153201D02*
X116480385Y-52096058D01*
X116480385Y-52096058D02*
X116423242Y-51981772D01*
X116423242Y-51981772D02*
X116423242Y-51867486D01*
X116423242Y-51867486D02*
X116480385Y-51753201D01*
X116480385Y-51753201D02*
X116537528Y-51696058D01*
X116537528Y-51696058D02*
X116651813Y-51638915D01*
X116651813Y-51638915D02*
X116880385Y-51581772D01*
X116880385Y-51581772D02*
X116994670Y-51524629D01*
X116994670Y-51524629D02*
X117051813Y-51467486D01*
X117051813Y-51467486D02*
X117108956Y-51353201D01*
X117108956Y-51353201D02*
X117108956Y-51238915D01*
X117108956Y-51238915D02*
X117051813Y-51124629D01*
X117051813Y-51124629D02*
X116994670Y-51067486D01*
X116994670Y-51067486D02*
X116880385Y-51010343D01*
X116880385Y-51010343D02*
X116594670Y-51010343D01*
X116594670Y-51010343D02*
X116423242Y-51067486D01*
X116080385Y-51410343D02*
X115623242Y-51410343D01*
X115908956Y-51010343D02*
X115908956Y-52038915D01*
X115908956Y-52038915D02*
X115851813Y-52153201D01*
X115851813Y-52153201D02*
X115737528Y-52210343D01*
X115737528Y-52210343D02*
X115623242Y-52210343D01*
X115223242Y-52210343D02*
X115223242Y-51410343D01*
X115223242Y-51010343D02*
X115280385Y-51067486D01*
X115280385Y-51067486D02*
X115223242Y-51124629D01*
X115223242Y-51124629D02*
X115166099Y-51067486D01*
X115166099Y-51067486D02*
X115223242Y-51010343D01*
X115223242Y-51010343D02*
X115223242Y-51124629D01*
X114480385Y-52210343D02*
X114594670Y-52153201D01*
X114594670Y-52153201D02*
X114651813Y-52038915D01*
X114651813Y-52038915D02*
X114651813Y-51010343D01*
X113851814Y-52210343D02*
X113966099Y-52153201D01*
X113966099Y-52153201D02*
X114023242Y-52038915D01*
X114023242Y-52038915D02*
X114023242Y-51010343D01*
X112480385Y-52210343D02*
X112480385Y-51010343D01*
X111794671Y-52210343D02*
X112308957Y-51524629D01*
X111794671Y-51010343D02*
X112480385Y-51696058D01*
X111280385Y-52210343D02*
X111280385Y-51410343D01*
X111280385Y-51010343D02*
X111337528Y-51067486D01*
X111337528Y-51067486D02*
X111280385Y-51124629D01*
X111280385Y-51124629D02*
X111223242Y-51067486D01*
X111223242Y-51067486D02*
X111280385Y-51010343D01*
X111280385Y-51010343D02*
X111280385Y-51124629D01*
X110194671Y-52153201D02*
X110308956Y-52210343D01*
X110308956Y-52210343D02*
X110537528Y-52210343D01*
X110537528Y-52210343D02*
X110651813Y-52153201D01*
X110651813Y-52153201D02*
X110708956Y-52096058D01*
X110708956Y-52096058D02*
X110766099Y-51981772D01*
X110766099Y-51981772D02*
X110766099Y-51638915D01*
X110766099Y-51638915D02*
X110708956Y-51524629D01*
X110708956Y-51524629D02*
X110651813Y-51467486D01*
X110651813Y-51467486D02*
X110537528Y-51410343D01*
X110537528Y-51410343D02*
X110308956Y-51410343D01*
X110308956Y-51410343D02*
X110194671Y-51467486D01*
X109680385Y-52210343D02*
X109680385Y-51010343D01*
X109566100Y-51753201D02*
X109223242Y-52210343D01*
X109223242Y-51410343D02*
X109680385Y-51867486D01*
X108708956Y-52210343D02*
X108708956Y-51410343D01*
X108708956Y-51010343D02*
X108766099Y-51067486D01*
X108766099Y-51067486D02*
X108708956Y-51124629D01*
X108708956Y-51124629D02*
X108651813Y-51067486D01*
X108651813Y-51067486D02*
X108708956Y-51010343D01*
X108708956Y-51010343D02*
X108708956Y-51124629D01*
X108137527Y-51410343D02*
X108137527Y-52210343D01*
X108137527Y-51524629D02*
X108080384Y-51467486D01*
X108080384Y-51467486D02*
X107966099Y-51410343D01*
X107966099Y-51410343D02*
X107794670Y-51410343D01*
X107794670Y-51410343D02*
X107680384Y-51467486D01*
X107680384Y-51467486D02*
X107623242Y-51581772D01*
X107623242Y-51581772D02*
X107623242Y-52210343D01*
X107108956Y-51010343D02*
X107108956Y-51238915D01*
X106651813Y-51010343D02*
X106651813Y-51238915D01*
X129966098Y-53342276D02*
X129680384Y-54142276D01*
X129680384Y-54142276D02*
X129394669Y-53342276D01*
X128708955Y-52942276D02*
X128594669Y-52942276D01*
X128594669Y-52942276D02*
X128480383Y-52999419D01*
X128480383Y-52999419D02*
X128423241Y-53056562D01*
X128423241Y-53056562D02*
X128366098Y-53170848D01*
X128366098Y-53170848D02*
X128308955Y-53399419D01*
X128308955Y-53399419D02*
X128308955Y-53685134D01*
X128308955Y-53685134D02*
X128366098Y-53913705D01*
X128366098Y-53913705D02*
X128423241Y-54027991D01*
X128423241Y-54027991D02*
X128480383Y-54085134D01*
X128480383Y-54085134D02*
X128594669Y-54142276D01*
X128594669Y-54142276D02*
X128708955Y-54142276D01*
X128708955Y-54142276D02*
X128823241Y-54085134D01*
X128823241Y-54085134D02*
X128880383Y-54027991D01*
X128880383Y-54027991D02*
X128937526Y-53913705D01*
X128937526Y-53913705D02*
X128994669Y-53685134D01*
X128994669Y-53685134D02*
X128994669Y-53399419D01*
X128994669Y-53399419D02*
X128937526Y-53170848D01*
X128937526Y-53170848D02*
X128880383Y-53056562D01*
X128880383Y-53056562D02*
X128823241Y-52999419D01*
X128823241Y-52999419D02*
X128708955Y-52942276D01*
X127794669Y-54027991D02*
X127737526Y-54085134D01*
X127737526Y-54085134D02*
X127794669Y-54142276D01*
X127794669Y-54142276D02*
X127851812Y-54085134D01*
X127851812Y-54085134D02*
X127794669Y-54027991D01*
X127794669Y-54027991D02*
X127794669Y-54142276D01*
X126594669Y-54142276D02*
X127280383Y-54142276D01*
X126937526Y-54142276D02*
X126937526Y-52942276D01*
X126937526Y-52942276D02*
X127051812Y-53113705D01*
X127051812Y-53113705D02*
X127166097Y-53227991D01*
X127166097Y-53227991D02*
X127280383Y-53285134D01*
X125223240Y-53799419D02*
X124651812Y-53799419D01*
X125337526Y-54142276D02*
X124937526Y-52942276D01*
X124937526Y-52942276D02*
X124537526Y-54142276D01*
X123966098Y-54142276D02*
X124080383Y-54085134D01*
X124080383Y-54085134D02*
X124137526Y-53970848D01*
X124137526Y-53970848D02*
X124137526Y-52942276D01*
X123508955Y-53342276D02*
X123508955Y-54542276D01*
X123508955Y-53399419D02*
X123394670Y-53342276D01*
X123394670Y-53342276D02*
X123166098Y-53342276D01*
X123166098Y-53342276D02*
X123051812Y-53399419D01*
X123051812Y-53399419D02*
X122994670Y-53456562D01*
X122994670Y-53456562D02*
X122937527Y-53570848D01*
X122937527Y-53570848D02*
X122937527Y-53913705D01*
X122937527Y-53913705D02*
X122994670Y-54027991D01*
X122994670Y-54027991D02*
X123051812Y-54085134D01*
X123051812Y-54085134D02*
X123166098Y-54142276D01*
X123166098Y-54142276D02*
X123394670Y-54142276D01*
X123394670Y-54142276D02*
X123508955Y-54085134D01*
X122423241Y-54142276D02*
X122423241Y-52942276D01*
X121908956Y-54142276D02*
X121908956Y-53513705D01*
X121908956Y-53513705D02*
X121966098Y-53399419D01*
X121966098Y-53399419D02*
X122080384Y-53342276D01*
X122080384Y-53342276D02*
X122251813Y-53342276D01*
X122251813Y-53342276D02*
X122366098Y-53399419D01*
X122366098Y-53399419D02*
X122423241Y-53456562D01*
X120823242Y-54142276D02*
X120823242Y-53513705D01*
X120823242Y-53513705D02*
X120880384Y-53399419D01*
X120880384Y-53399419D02*
X120994670Y-53342276D01*
X120994670Y-53342276D02*
X121223242Y-53342276D01*
X121223242Y-53342276D02*
X121337527Y-53399419D01*
X120823242Y-54085134D02*
X120937527Y-54142276D01*
X120937527Y-54142276D02*
X121223242Y-54142276D01*
X121223242Y-54142276D02*
X121337527Y-54085134D01*
X121337527Y-54085134D02*
X121394670Y-53970848D01*
X121394670Y-53970848D02*
X121394670Y-53856562D01*
X121394670Y-53856562D02*
X121337527Y-53742276D01*
X121337527Y-53742276D02*
X121223242Y-53685134D01*
X121223242Y-53685134D02*
X120937527Y-53685134D01*
X120937527Y-53685134D02*
X120823242Y-53627991D01*
X119337527Y-54142276D02*
X119337527Y-52942276D01*
X119337527Y-52942276D02*
X118880384Y-52942276D01*
X118880384Y-52942276D02*
X118766099Y-52999419D01*
X118766099Y-52999419D02*
X118708956Y-53056562D01*
X118708956Y-53056562D02*
X118651813Y-53170848D01*
X118651813Y-53170848D02*
X118651813Y-53342276D01*
X118651813Y-53342276D02*
X118708956Y-53456562D01*
X118708956Y-53456562D02*
X118766099Y-53513705D01*
X118766099Y-53513705D02*
X118880384Y-53570848D01*
X118880384Y-53570848D02*
X119337527Y-53570848D01*
X118137527Y-54142276D02*
X118137527Y-53342276D01*
X118137527Y-53570848D02*
X118080384Y-53456562D01*
X118080384Y-53456562D02*
X118023242Y-53399419D01*
X118023242Y-53399419D02*
X117908956Y-53342276D01*
X117908956Y-53342276D02*
X117794670Y-53342276D01*
X117223242Y-54142276D02*
X117337527Y-54085134D01*
X117337527Y-54085134D02*
X117394670Y-54027991D01*
X117394670Y-54027991D02*
X117451813Y-53913705D01*
X117451813Y-53913705D02*
X117451813Y-53570848D01*
X117451813Y-53570848D02*
X117394670Y-53456562D01*
X117394670Y-53456562D02*
X117337527Y-53399419D01*
X117337527Y-53399419D02*
X117223242Y-53342276D01*
X117223242Y-53342276D02*
X117051813Y-53342276D01*
X117051813Y-53342276D02*
X116937527Y-53399419D01*
X116937527Y-53399419D02*
X116880385Y-53456562D01*
X116880385Y-53456562D02*
X116823242Y-53570848D01*
X116823242Y-53570848D02*
X116823242Y-53913705D01*
X116823242Y-53913705D02*
X116880385Y-54027991D01*
X116880385Y-54027991D02*
X116937527Y-54085134D01*
X116937527Y-54085134D02*
X117051813Y-54142276D01*
X117051813Y-54142276D02*
X117223242Y-54142276D01*
X116480385Y-53342276D02*
X116023242Y-53342276D01*
X116308956Y-52942276D02*
X116308956Y-53970848D01*
X116308956Y-53970848D02*
X116251813Y-54085134D01*
X116251813Y-54085134D02*
X116137528Y-54142276D01*
X116137528Y-54142276D02*
X116023242Y-54142276D01*
X115451814Y-54142276D02*
X115566099Y-54085134D01*
X115566099Y-54085134D02*
X115623242Y-54027991D01*
X115623242Y-54027991D02*
X115680385Y-53913705D01*
X115680385Y-53913705D02*
X115680385Y-53570848D01*
X115680385Y-53570848D02*
X115623242Y-53456562D01*
X115623242Y-53456562D02*
X115566099Y-53399419D01*
X115566099Y-53399419D02*
X115451814Y-53342276D01*
X115451814Y-53342276D02*
X115280385Y-53342276D01*
X115280385Y-53342276D02*
X115166099Y-53399419D01*
X115166099Y-53399419D02*
X115108957Y-53456562D01*
X115108957Y-53456562D02*
X115051814Y-53570848D01*
X115051814Y-53570848D02*
X115051814Y-53913705D01*
X115051814Y-53913705D02*
X115108957Y-54027991D01*
X115108957Y-54027991D02*
X115166099Y-54085134D01*
X115166099Y-54085134D02*
X115280385Y-54142276D01*
X115280385Y-54142276D02*
X115451814Y-54142276D01*
X114708957Y-53342276D02*
X114251814Y-53342276D01*
X114537528Y-52942276D02*
X114537528Y-53970848D01*
X114537528Y-53970848D02*
X114480385Y-54085134D01*
X114480385Y-54085134D02*
X114366100Y-54142276D01*
X114366100Y-54142276D02*
X114251814Y-54142276D01*
X113966100Y-53342276D02*
X113680386Y-54142276D01*
X113394671Y-53342276D02*
X113680386Y-54142276D01*
X113680386Y-54142276D02*
X113794671Y-54427991D01*
X113794671Y-54427991D02*
X113851814Y-54485134D01*
X113851814Y-54485134D02*
X113966100Y-54542276D01*
X112937528Y-53342276D02*
X112937528Y-54542276D01*
X112937528Y-53399419D02*
X112823243Y-53342276D01*
X112823243Y-53342276D02*
X112594671Y-53342276D01*
X112594671Y-53342276D02*
X112480385Y-53399419D01*
X112480385Y-53399419D02*
X112423243Y-53456562D01*
X112423243Y-53456562D02*
X112366100Y-53570848D01*
X112366100Y-53570848D02*
X112366100Y-53913705D01*
X112366100Y-53913705D02*
X112423243Y-54027991D01*
X112423243Y-54027991D02*
X112480385Y-54085134D01*
X112480385Y-54085134D02*
X112594671Y-54142276D01*
X112594671Y-54142276D02*
X112823243Y-54142276D01*
X112823243Y-54142276D02*
X112937528Y-54085134D01*
X111394671Y-54085134D02*
X111508957Y-54142276D01*
X111508957Y-54142276D02*
X111737529Y-54142276D01*
X111737529Y-54142276D02*
X111851814Y-54085134D01*
X111851814Y-54085134D02*
X111908957Y-53970848D01*
X111908957Y-53970848D02*
X111908957Y-53513705D01*
X111908957Y-53513705D02*
X111851814Y-53399419D01*
X111851814Y-53399419D02*
X111737529Y-53342276D01*
X111737529Y-53342276D02*
X111508957Y-53342276D01*
X111508957Y-53342276D02*
X111394671Y-53399419D01*
X111394671Y-53399419D02*
X111337529Y-53513705D01*
X111337529Y-53513705D02*
X111337529Y-53627991D01*
X111337529Y-53627991D02*
X111908957Y-53742276D01*
X129508955Y-54874209D02*
X129508955Y-55731352D01*
X129508955Y-55731352D02*
X129566098Y-55902781D01*
X129566098Y-55902781D02*
X129680384Y-56017067D01*
X129680384Y-56017067D02*
X129851812Y-56074209D01*
X129851812Y-56074209D02*
X129966098Y-56074209D01*
X128766098Y-56074209D02*
X128880383Y-56017067D01*
X128880383Y-56017067D02*
X128937526Y-55959924D01*
X128937526Y-55959924D02*
X128994669Y-55845638D01*
X128994669Y-55845638D02*
X128994669Y-55502781D01*
X128994669Y-55502781D02*
X128937526Y-55388495D01*
X128937526Y-55388495D02*
X128880383Y-55331352D01*
X128880383Y-55331352D02*
X128766098Y-55274209D01*
X128766098Y-55274209D02*
X128594669Y-55274209D01*
X128594669Y-55274209D02*
X128480383Y-55331352D01*
X128480383Y-55331352D02*
X128423241Y-55388495D01*
X128423241Y-55388495D02*
X128366098Y-55502781D01*
X128366098Y-55502781D02*
X128366098Y-55845638D01*
X128366098Y-55845638D02*
X128423241Y-55959924D01*
X128423241Y-55959924D02*
X128480383Y-56017067D01*
X128480383Y-56017067D02*
X128594669Y-56074209D01*
X128594669Y-56074209D02*
X128766098Y-56074209D01*
X127851812Y-56074209D02*
X127851812Y-54874209D01*
X127337527Y-56074209D02*
X127337527Y-55445638D01*
X127337527Y-55445638D02*
X127394669Y-55331352D01*
X127394669Y-55331352D02*
X127508955Y-55274209D01*
X127508955Y-55274209D02*
X127680384Y-55274209D01*
X127680384Y-55274209D02*
X127794669Y-55331352D01*
X127794669Y-55331352D02*
X127851812Y-55388495D01*
X126766098Y-55274209D02*
X126766098Y-56074209D01*
X126766098Y-55388495D02*
X126708955Y-55331352D01*
X126708955Y-55331352D02*
X126594670Y-55274209D01*
X126594670Y-55274209D02*
X126423241Y-55274209D01*
X126423241Y-55274209D02*
X126308955Y-55331352D01*
X126308955Y-55331352D02*
X126251813Y-55445638D01*
X126251813Y-55445638D02*
X126251813Y-56074209D01*
X124080384Y-56074209D02*
X124480384Y-55502781D01*
X124766098Y-56074209D02*
X124766098Y-54874209D01*
X124766098Y-54874209D02*
X124308955Y-54874209D01*
X124308955Y-54874209D02*
X124194670Y-54931352D01*
X124194670Y-54931352D02*
X124137527Y-54988495D01*
X124137527Y-54988495D02*
X124080384Y-55102781D01*
X124080384Y-55102781D02*
X124080384Y-55274209D01*
X124080384Y-55274209D02*
X124137527Y-55388495D01*
X124137527Y-55388495D02*
X124194670Y-55445638D01*
X124194670Y-55445638D02*
X124308955Y-55502781D01*
X124308955Y-55502781D02*
X124766098Y-55502781D01*
X123108955Y-56017067D02*
X123223241Y-56074209D01*
X123223241Y-56074209D02*
X123451813Y-56074209D01*
X123451813Y-56074209D02*
X123566098Y-56017067D01*
X123566098Y-56017067D02*
X123623241Y-55902781D01*
X123623241Y-55902781D02*
X123623241Y-55445638D01*
X123623241Y-55445638D02*
X123566098Y-55331352D01*
X123566098Y-55331352D02*
X123451813Y-55274209D01*
X123451813Y-55274209D02*
X123223241Y-55274209D01*
X123223241Y-55274209D02*
X123108955Y-55331352D01*
X123108955Y-55331352D02*
X123051813Y-55445638D01*
X123051813Y-55445638D02*
X123051813Y-55559924D01*
X123051813Y-55559924D02*
X123623241Y-55674209D01*
X122537527Y-56074209D02*
X122537527Y-55274209D01*
X122537527Y-54874209D02*
X122594670Y-54931352D01*
X122594670Y-54931352D02*
X122537527Y-54988495D01*
X122537527Y-54988495D02*
X122480384Y-54931352D01*
X122480384Y-54931352D02*
X122537527Y-54874209D01*
X122537527Y-54874209D02*
X122537527Y-54988495D01*
X121966098Y-55274209D02*
X121966098Y-56074209D01*
X121966098Y-55388495D02*
X121908955Y-55331352D01*
X121908955Y-55331352D02*
X121794670Y-55274209D01*
X121794670Y-55274209D02*
X121623241Y-55274209D01*
X121623241Y-55274209D02*
X121508955Y-55331352D01*
X121508955Y-55331352D02*
X121451813Y-55445638D01*
X121451813Y-55445638D02*
X121451813Y-56074209D01*
X120423241Y-56017067D02*
X120537527Y-56074209D01*
X120537527Y-56074209D02*
X120766099Y-56074209D01*
X120766099Y-56074209D02*
X120880384Y-56017067D01*
X120880384Y-56017067D02*
X120937527Y-55902781D01*
X120937527Y-55902781D02*
X120937527Y-55445638D01*
X120937527Y-55445638D02*
X120880384Y-55331352D01*
X120880384Y-55331352D02*
X120766099Y-55274209D01*
X120766099Y-55274209D02*
X120537527Y-55274209D01*
X120537527Y-55274209D02*
X120423241Y-55331352D01*
X120423241Y-55331352D02*
X120366099Y-55445638D01*
X120366099Y-55445638D02*
X120366099Y-55559924D01*
X120366099Y-55559924D02*
X120937527Y-55674209D01*
X117508956Y-55274209D02*
X117508956Y-56074209D01*
X117794670Y-54817067D02*
X118080384Y-55674209D01*
X118080384Y-55674209D02*
X117337527Y-55674209D01*
X116023241Y-54817067D02*
X117051813Y-56359924D01*
X115051813Y-54874209D02*
X115623241Y-54874209D01*
X115623241Y-54874209D02*
X115680384Y-55445638D01*
X115680384Y-55445638D02*
X115623241Y-55388495D01*
X115623241Y-55388495D02*
X115508956Y-55331352D01*
X115508956Y-55331352D02*
X115223241Y-55331352D01*
X115223241Y-55331352D02*
X115108956Y-55388495D01*
X115108956Y-55388495D02*
X115051813Y-55445638D01*
X115051813Y-55445638D02*
X114994670Y-55559924D01*
X114994670Y-55559924D02*
X114994670Y-55845638D01*
X114994670Y-55845638D02*
X115051813Y-55959924D01*
X115051813Y-55959924D02*
X115108956Y-56017067D01*
X115108956Y-56017067D02*
X115223241Y-56074209D01*
X115223241Y-56074209D02*
X115508956Y-56074209D01*
X115508956Y-56074209D02*
X115623241Y-56017067D01*
X115623241Y-56017067D02*
X115680384Y-55959924D01*
X113623241Y-54817067D02*
X114651813Y-56359924D01*
X113280384Y-54988495D02*
X113223241Y-54931352D01*
X113223241Y-54931352D02*
X113108956Y-54874209D01*
X113108956Y-54874209D02*
X112823241Y-54874209D01*
X112823241Y-54874209D02*
X112708956Y-54931352D01*
X112708956Y-54931352D02*
X112651813Y-54988495D01*
X112651813Y-54988495D02*
X112594670Y-55102781D01*
X112594670Y-55102781D02*
X112594670Y-55217067D01*
X112594670Y-55217067D02*
X112651813Y-55388495D01*
X112651813Y-55388495D02*
X113337527Y-56074209D01*
X113337527Y-56074209D02*
X112594670Y-56074209D01*
X111566099Y-54874209D02*
X111794670Y-54874209D01*
X111794670Y-54874209D02*
X111908956Y-54931352D01*
X111908956Y-54931352D02*
X111966099Y-54988495D01*
X111966099Y-54988495D02*
X112080384Y-55159924D01*
X112080384Y-55159924D02*
X112137527Y-55388495D01*
X112137527Y-55388495D02*
X112137527Y-55845638D01*
X112137527Y-55845638D02*
X112080384Y-55959924D01*
X112080384Y-55959924D02*
X112023241Y-56017067D01*
X112023241Y-56017067D02*
X111908956Y-56074209D01*
X111908956Y-56074209D02*
X111680384Y-56074209D01*
X111680384Y-56074209D02*
X111566099Y-56017067D01*
X111566099Y-56017067D02*
X111508956Y-55959924D01*
X111508956Y-55959924D02*
X111451813Y-55845638D01*
X111451813Y-55845638D02*
X111451813Y-55559924D01*
X111451813Y-55559924D02*
X111508956Y-55445638D01*
X111508956Y-55445638D02*
X111566099Y-55388495D01*
X111566099Y-55388495D02*
X111680384Y-55331352D01*
X111680384Y-55331352D02*
X111908956Y-55331352D01*
X111908956Y-55331352D02*
X112023241Y-55388495D01*
X112023241Y-55388495D02*
X112080384Y-55445638D01*
X112080384Y-55445638D02*
X112137527Y-55559924D01*
X129966098Y-57206142D02*
X129737527Y-58006142D01*
X129737527Y-58006142D02*
X129508955Y-57434714D01*
X129508955Y-57434714D02*
X129280384Y-58006142D01*
X129280384Y-58006142D02*
X129051812Y-57206142D01*
X128708955Y-57206142D02*
X128480384Y-58006142D01*
X128480384Y-58006142D02*
X128251812Y-57434714D01*
X128251812Y-57434714D02*
X128023241Y-58006142D01*
X128023241Y-58006142D02*
X127794669Y-57206142D01*
X127451812Y-57206142D02*
X127223241Y-58006142D01*
X127223241Y-58006142D02*
X126994669Y-57434714D01*
X126994669Y-57434714D02*
X126766098Y-58006142D01*
X126766098Y-58006142D02*
X126537526Y-57206142D01*
X126080383Y-57891857D02*
X126023240Y-57949000D01*
X126023240Y-57949000D02*
X126080383Y-58006142D01*
X126080383Y-58006142D02*
X126137526Y-57949000D01*
X126137526Y-57949000D02*
X126080383Y-57891857D01*
X126080383Y-57891857D02*
X126080383Y-58006142D01*
X125508954Y-58006142D02*
X125508954Y-57206142D01*
X125508954Y-57320428D02*
X125451811Y-57263285D01*
X125451811Y-57263285D02*
X125337526Y-57206142D01*
X125337526Y-57206142D02*
X125166097Y-57206142D01*
X125166097Y-57206142D02*
X125051811Y-57263285D01*
X125051811Y-57263285D02*
X124994669Y-57377571D01*
X124994669Y-57377571D02*
X124994669Y-58006142D01*
X124994669Y-57377571D02*
X124937526Y-57263285D01*
X124937526Y-57263285D02*
X124823240Y-57206142D01*
X124823240Y-57206142D02*
X124651811Y-57206142D01*
X124651811Y-57206142D02*
X124537526Y-57263285D01*
X124537526Y-57263285D02*
X124480383Y-57377571D01*
X124480383Y-57377571D02*
X124480383Y-58006142D01*
X123737526Y-58006142D02*
X123851811Y-57949000D01*
X123851811Y-57949000D02*
X123908954Y-57891857D01*
X123908954Y-57891857D02*
X123966097Y-57777571D01*
X123966097Y-57777571D02*
X123966097Y-57434714D01*
X123966097Y-57434714D02*
X123908954Y-57320428D01*
X123908954Y-57320428D02*
X123851811Y-57263285D01*
X123851811Y-57263285D02*
X123737526Y-57206142D01*
X123737526Y-57206142D02*
X123566097Y-57206142D01*
X123566097Y-57206142D02*
X123451811Y-57263285D01*
X123451811Y-57263285D02*
X123394669Y-57320428D01*
X123394669Y-57320428D02*
X123337526Y-57434714D01*
X123337526Y-57434714D02*
X123337526Y-57777571D01*
X123337526Y-57777571D02*
X123394669Y-57891857D01*
X123394669Y-57891857D02*
X123451811Y-57949000D01*
X123451811Y-57949000D02*
X123566097Y-58006142D01*
X123566097Y-58006142D02*
X123737526Y-58006142D01*
X122937526Y-57206142D02*
X122651812Y-58006142D01*
X122651812Y-58006142D02*
X122366097Y-57206142D01*
X121451811Y-57949000D02*
X121566097Y-58006142D01*
X121566097Y-58006142D02*
X121794669Y-58006142D01*
X121794669Y-58006142D02*
X121908954Y-57949000D01*
X121908954Y-57949000D02*
X121966097Y-57834714D01*
X121966097Y-57834714D02*
X121966097Y-57377571D01*
X121966097Y-57377571D02*
X121908954Y-57263285D01*
X121908954Y-57263285D02*
X121794669Y-57206142D01*
X121794669Y-57206142D02*
X121566097Y-57206142D01*
X121566097Y-57206142D02*
X121451811Y-57263285D01*
X121451811Y-57263285D02*
X121394669Y-57377571D01*
X121394669Y-57377571D02*
X121394669Y-57491857D01*
X121394669Y-57491857D02*
X121966097Y-57606142D01*
X120651812Y-56806142D02*
X120423240Y-56806142D01*
X120423240Y-56806142D02*
X120308955Y-56863285D01*
X120308955Y-56863285D02*
X120194669Y-56977571D01*
X120194669Y-56977571D02*
X120137526Y-57206142D01*
X120137526Y-57206142D02*
X120137526Y-57606142D01*
X120137526Y-57606142D02*
X120194669Y-57834714D01*
X120194669Y-57834714D02*
X120308955Y-57949000D01*
X120308955Y-57949000D02*
X120423240Y-58006142D01*
X120423240Y-58006142D02*
X120651812Y-58006142D01*
X120651812Y-58006142D02*
X120766098Y-57949000D01*
X120766098Y-57949000D02*
X120880383Y-57834714D01*
X120880383Y-57834714D02*
X120937526Y-57606142D01*
X120937526Y-57606142D02*
X120937526Y-57206142D01*
X120937526Y-57206142D02*
X120880383Y-56977571D01*
X120880383Y-56977571D02*
X120766098Y-56863285D01*
X120766098Y-56863285D02*
X120651812Y-56806142D01*
X119623240Y-58006142D02*
X119623240Y-57206142D01*
X119623240Y-57320428D02*
X119566097Y-57263285D01*
X119566097Y-57263285D02*
X119451812Y-57206142D01*
X119451812Y-57206142D02*
X119280383Y-57206142D01*
X119280383Y-57206142D02*
X119166097Y-57263285D01*
X119166097Y-57263285D02*
X119108955Y-57377571D01*
X119108955Y-57377571D02*
X119108955Y-58006142D01*
X119108955Y-57377571D02*
X119051812Y-57263285D01*
X119051812Y-57263285D02*
X118937526Y-57206142D01*
X118937526Y-57206142D02*
X118766097Y-57206142D01*
X118766097Y-57206142D02*
X118651812Y-57263285D01*
X118651812Y-57263285D02*
X118594669Y-57377571D01*
X118594669Y-57377571D02*
X118594669Y-58006142D01*
X117566097Y-57949000D02*
X117680383Y-58006142D01*
X117680383Y-58006142D02*
X117908955Y-58006142D01*
X117908955Y-58006142D02*
X118023240Y-57949000D01*
X118023240Y-57949000D02*
X118080383Y-57834714D01*
X118080383Y-57834714D02*
X118080383Y-57377571D01*
X118080383Y-57377571D02*
X118023240Y-57263285D01*
X118023240Y-57263285D02*
X117908955Y-57206142D01*
X117908955Y-57206142D02*
X117680383Y-57206142D01*
X117680383Y-57206142D02*
X117566097Y-57263285D01*
X117566097Y-57263285D02*
X117508955Y-57377571D01*
X117508955Y-57377571D02*
X117508955Y-57491857D01*
X117508955Y-57491857D02*
X118080383Y-57606142D01*
X117166098Y-57206142D02*
X116708955Y-57206142D01*
X116994669Y-56806142D02*
X116994669Y-57834714D01*
X116994669Y-57834714D02*
X116937526Y-57949000D01*
X116937526Y-57949000D02*
X116823241Y-58006142D01*
X116823241Y-58006142D02*
X116708955Y-58006142D01*
X115851812Y-57949000D02*
X115966098Y-58006142D01*
X115966098Y-58006142D02*
X116194670Y-58006142D01*
X116194670Y-58006142D02*
X116308955Y-57949000D01*
X116308955Y-57949000D02*
X116366098Y-57834714D01*
X116366098Y-57834714D02*
X116366098Y-57377571D01*
X116366098Y-57377571D02*
X116308955Y-57263285D01*
X116308955Y-57263285D02*
X116194670Y-57206142D01*
X116194670Y-57206142D02*
X115966098Y-57206142D01*
X115966098Y-57206142D02*
X115851812Y-57263285D01*
X115851812Y-57263285D02*
X115794670Y-57377571D01*
X115794670Y-57377571D02*
X115794670Y-57491857D01*
X115794670Y-57491857D02*
X116366098Y-57606142D01*
X115280384Y-58006142D02*
X115280384Y-57206142D01*
X115280384Y-57434714D02*
X115223241Y-57320428D01*
X115223241Y-57320428D02*
X115166099Y-57263285D01*
X115166099Y-57263285D02*
X115051813Y-57206142D01*
X115051813Y-57206142D02*
X114937527Y-57206142D01*
X114537527Y-57891857D02*
X114480384Y-57949000D01*
X114480384Y-57949000D02*
X114537527Y-58006142D01*
X114537527Y-58006142D02*
X114594670Y-57949000D01*
X114594670Y-57949000D02*
X114537527Y-57891857D01*
X114537527Y-57891857D02*
X114537527Y-58006142D01*
X113451813Y-57949000D02*
X113566098Y-58006142D01*
X113566098Y-58006142D02*
X113794670Y-58006142D01*
X113794670Y-58006142D02*
X113908955Y-57949000D01*
X113908955Y-57949000D02*
X113966098Y-57891857D01*
X113966098Y-57891857D02*
X114023241Y-57777571D01*
X114023241Y-57777571D02*
X114023241Y-57434714D01*
X114023241Y-57434714D02*
X113966098Y-57320428D01*
X113966098Y-57320428D02*
X113908955Y-57263285D01*
X113908955Y-57263285D02*
X113794670Y-57206142D01*
X113794670Y-57206142D02*
X113566098Y-57206142D01*
X113566098Y-57206142D02*
X113451813Y-57263285D01*
X112766099Y-58006142D02*
X112880384Y-57949000D01*
X112880384Y-57949000D02*
X112937527Y-57891857D01*
X112937527Y-57891857D02*
X112994670Y-57777571D01*
X112994670Y-57777571D02*
X112994670Y-57434714D01*
X112994670Y-57434714D02*
X112937527Y-57320428D01*
X112937527Y-57320428D02*
X112880384Y-57263285D01*
X112880384Y-57263285D02*
X112766099Y-57206142D01*
X112766099Y-57206142D02*
X112594670Y-57206142D01*
X112594670Y-57206142D02*
X112480384Y-57263285D01*
X112480384Y-57263285D02*
X112423242Y-57320428D01*
X112423242Y-57320428D02*
X112366099Y-57434714D01*
X112366099Y-57434714D02*
X112366099Y-57777571D01*
X112366099Y-57777571D02*
X112423242Y-57891857D01*
X112423242Y-57891857D02*
X112480384Y-57949000D01*
X112480384Y-57949000D02*
X112594670Y-58006142D01*
X112594670Y-58006142D02*
X112766099Y-58006142D01*
X111851813Y-58006142D02*
X111851813Y-57206142D01*
X111851813Y-57320428D02*
X111794670Y-57263285D01*
X111794670Y-57263285D02*
X111680385Y-57206142D01*
X111680385Y-57206142D02*
X111508956Y-57206142D01*
X111508956Y-57206142D02*
X111394670Y-57263285D01*
X111394670Y-57263285D02*
X111337528Y-57377571D01*
X111337528Y-57377571D02*
X111337528Y-58006142D01*
X111337528Y-57377571D02*
X111280385Y-57263285D01*
X111280385Y-57263285D02*
X111166099Y-57206142D01*
X111166099Y-57206142D02*
X110994670Y-57206142D01*
X110994670Y-57206142D02*
X110880385Y-57263285D01*
X110880385Y-57263285D02*
X110823242Y-57377571D01*
X110823242Y-57377571D02*
X110823242Y-58006142D01*
D11*
X111338333Y-92440819D02*
X111338333Y-93155104D01*
X111338333Y-93155104D02*
X111385952Y-93297961D01*
X111385952Y-93297961D02*
X111481190Y-93393200D01*
X111481190Y-93393200D02*
X111624047Y-93440819D01*
X111624047Y-93440819D02*
X111719285Y-93440819D01*
X110862142Y-93440819D02*
X110862142Y-92440819D01*
X110862142Y-92440819D02*
X110481190Y-92440819D01*
X110481190Y-92440819D02*
X110385952Y-92488438D01*
X110385952Y-92488438D02*
X110338333Y-92536057D01*
X110338333Y-92536057D02*
X110290714Y-92631295D01*
X110290714Y-92631295D02*
X110290714Y-92774152D01*
X110290714Y-92774152D02*
X110338333Y-92869390D01*
X110338333Y-92869390D02*
X110385952Y-92917009D01*
X110385952Y-92917009D02*
X110481190Y-92964628D01*
X110481190Y-92964628D02*
X110862142Y-92964628D01*
X109909761Y-92536057D02*
X109862142Y-92488438D01*
X109862142Y-92488438D02*
X109766904Y-92440819D01*
X109766904Y-92440819D02*
X109528809Y-92440819D01*
X109528809Y-92440819D02*
X109433571Y-92488438D01*
X109433571Y-92488438D02*
X109385952Y-92536057D01*
X109385952Y-92536057D02*
X109338333Y-92631295D01*
X109338333Y-92631295D02*
X109338333Y-92726533D01*
X109338333Y-92726533D02*
X109385952Y-92869390D01*
X109385952Y-92869390D02*
X109957380Y-93440819D01*
X109957380Y-93440819D02*
X109338333Y-93440819D01*
X107274333Y-90535819D02*
X107274333Y-91250104D01*
X107274333Y-91250104D02*
X107321952Y-91392961D01*
X107321952Y-91392961D02*
X107417190Y-91488200D01*
X107417190Y-91488200D02*
X107560047Y-91535819D01*
X107560047Y-91535819D02*
X107655285Y-91535819D01*
X106798142Y-91535819D02*
X106798142Y-90535819D01*
X106798142Y-90535819D02*
X106417190Y-90535819D01*
X106417190Y-90535819D02*
X106321952Y-90583438D01*
X106321952Y-90583438D02*
X106274333Y-90631057D01*
X106274333Y-90631057D02*
X106226714Y-90726295D01*
X106226714Y-90726295D02*
X106226714Y-90869152D01*
X106226714Y-90869152D02*
X106274333Y-90964390D01*
X106274333Y-90964390D02*
X106321952Y-91012009D01*
X106321952Y-91012009D02*
X106417190Y-91059628D01*
X106417190Y-91059628D02*
X106798142Y-91059628D01*
X105274333Y-91535819D02*
X105845761Y-91535819D01*
X105560047Y-91535819D02*
X105560047Y-90535819D01*
X105560047Y-90535819D02*
X105655285Y-90678676D01*
X105655285Y-90678676D02*
X105750523Y-90773914D01*
X105750523Y-90773914D02*
X105845761Y-90821533D01*
X120395904Y-116802819D02*
X120395904Y-117612342D01*
X120395904Y-117612342D02*
X120348285Y-117707580D01*
X120348285Y-117707580D02*
X120300666Y-117755200D01*
X120300666Y-117755200D02*
X120205428Y-117802819D01*
X120205428Y-117802819D02*
X120014952Y-117802819D01*
X120014952Y-117802819D02*
X119919714Y-117755200D01*
X119919714Y-117755200D02*
X119872095Y-117707580D01*
X119872095Y-117707580D02*
X119824476Y-117612342D01*
X119824476Y-117612342D02*
X119824476Y-116802819D01*
X119443523Y-116802819D02*
X118824476Y-116802819D01*
X118824476Y-116802819D02*
X119157809Y-117183771D01*
X119157809Y-117183771D02*
X119014952Y-117183771D01*
X119014952Y-117183771D02*
X118919714Y-117231390D01*
X118919714Y-117231390D02*
X118872095Y-117279009D01*
X118872095Y-117279009D02*
X118824476Y-117374247D01*
X118824476Y-117374247D02*
X118824476Y-117612342D01*
X118824476Y-117612342D02*
X118872095Y-117707580D01*
X118872095Y-117707580D02*
X118919714Y-117755200D01*
X118919714Y-117755200D02*
X119014952Y-117802819D01*
X119014952Y-117802819D02*
X119300666Y-117802819D01*
X119300666Y-117802819D02*
X119395904Y-117755200D01*
X119395904Y-117755200D02*
X119443523Y-117707580D01*
X157837333Y-97169819D02*
X157837333Y-97884104D01*
X157837333Y-97884104D02*
X157884952Y-98026961D01*
X157884952Y-98026961D02*
X157980190Y-98122200D01*
X157980190Y-98122200D02*
X158123047Y-98169819D01*
X158123047Y-98169819D02*
X158218285Y-98169819D01*
X157313523Y-98169819D02*
X157123047Y-98169819D01*
X157123047Y-98169819D02*
X157027809Y-98122200D01*
X157027809Y-98122200D02*
X156980190Y-98074580D01*
X156980190Y-98074580D02*
X156884952Y-97931723D01*
X156884952Y-97931723D02*
X156837333Y-97741247D01*
X156837333Y-97741247D02*
X156837333Y-97360295D01*
X156837333Y-97360295D02*
X156884952Y-97265057D01*
X156884952Y-97265057D02*
X156932571Y-97217438D01*
X156932571Y-97217438D02*
X157027809Y-97169819D01*
X157027809Y-97169819D02*
X157218285Y-97169819D01*
X157218285Y-97169819D02*
X157313523Y-97217438D01*
X157313523Y-97217438D02*
X157361142Y-97265057D01*
X157361142Y-97265057D02*
X157408761Y-97360295D01*
X157408761Y-97360295D02*
X157408761Y-97598390D01*
X157408761Y-97598390D02*
X157361142Y-97693628D01*
X157361142Y-97693628D02*
X157313523Y-97741247D01*
X157313523Y-97741247D02*
X157218285Y-97788866D01*
X157218285Y-97788866D02*
X157027809Y-97788866D01*
X157027809Y-97788866D02*
X156932571Y-97741247D01*
X156932571Y-97741247D02*
X156884952Y-97693628D01*
X156884952Y-97693628D02*
X156837333Y-97598390D01*
X148327904Y-55080819D02*
X147756476Y-55080819D01*
X148042190Y-56080819D02*
X148042190Y-55080819D01*
X147423142Y-56080819D02*
X147423142Y-55080819D01*
X147423142Y-55080819D02*
X147042190Y-55080819D01*
X147042190Y-55080819D02*
X146946952Y-55128438D01*
X146946952Y-55128438D02*
X146899333Y-55176057D01*
X146899333Y-55176057D02*
X146851714Y-55271295D01*
X146851714Y-55271295D02*
X146851714Y-55414152D01*
X146851714Y-55414152D02*
X146899333Y-55509390D01*
X146899333Y-55509390D02*
X146946952Y-55557009D01*
X146946952Y-55557009D02*
X147042190Y-55604628D01*
X147042190Y-55604628D02*
X147423142Y-55604628D01*
X145994571Y-55414152D02*
X145994571Y-56080819D01*
X146232666Y-55033200D02*
X146470761Y-55747485D01*
X146470761Y-55747485D02*
X145851714Y-55747485D01*
X150267200Y-51379809D02*
X150314819Y-51522666D01*
X150314819Y-51522666D02*
X150314819Y-51760761D01*
X150314819Y-51760761D02*
X150267200Y-51855999D01*
X150267200Y-51855999D02*
X150219580Y-51903618D01*
X150219580Y-51903618D02*
X150124342Y-51951237D01*
X150124342Y-51951237D02*
X150029104Y-51951237D01*
X150029104Y-51951237D02*
X149933866Y-51903618D01*
X149933866Y-51903618D02*
X149886247Y-51855999D01*
X149886247Y-51855999D02*
X149838628Y-51760761D01*
X149838628Y-51760761D02*
X149791009Y-51570285D01*
X149791009Y-51570285D02*
X149743390Y-51475047D01*
X149743390Y-51475047D02*
X149695771Y-51427428D01*
X149695771Y-51427428D02*
X149600533Y-51379809D01*
X149600533Y-51379809D02*
X149505295Y-51379809D01*
X149505295Y-51379809D02*
X149410057Y-51427428D01*
X149410057Y-51427428D02*
X149362438Y-51475047D01*
X149362438Y-51475047D02*
X149314819Y-51570285D01*
X149314819Y-51570285D02*
X149314819Y-51808380D01*
X149314819Y-51808380D02*
X149362438Y-51951237D01*
X149791009Y-52379809D02*
X149791009Y-52713142D01*
X150314819Y-52855999D02*
X150314819Y-52379809D01*
X150314819Y-52379809D02*
X149314819Y-52379809D01*
X149314819Y-52379809D02*
X149314819Y-52855999D01*
X150314819Y-53284571D02*
X149314819Y-53284571D01*
X149314819Y-53284571D02*
X150314819Y-53855999D01*
X150314819Y-53855999D02*
X149314819Y-53855999D01*
X150267200Y-54284571D02*
X150314819Y-54427428D01*
X150314819Y-54427428D02*
X150314819Y-54665523D01*
X150314819Y-54665523D02*
X150267200Y-54760761D01*
X150267200Y-54760761D02*
X150219580Y-54808380D01*
X150219580Y-54808380D02*
X150124342Y-54855999D01*
X150124342Y-54855999D02*
X150029104Y-54855999D01*
X150029104Y-54855999D02*
X149933866Y-54808380D01*
X149933866Y-54808380D02*
X149886247Y-54760761D01*
X149886247Y-54760761D02*
X149838628Y-54665523D01*
X149838628Y-54665523D02*
X149791009Y-54475047D01*
X149791009Y-54475047D02*
X149743390Y-54379809D01*
X149743390Y-54379809D02*
X149695771Y-54332190D01*
X149695771Y-54332190D02*
X149600533Y-54284571D01*
X149600533Y-54284571D02*
X149505295Y-54284571D01*
X149505295Y-54284571D02*
X149410057Y-54332190D01*
X149410057Y-54332190D02*
X149362438Y-54379809D01*
X149362438Y-54379809D02*
X149314819Y-54475047D01*
X149314819Y-54475047D02*
X149314819Y-54713142D01*
X149314819Y-54713142D02*
X149362438Y-54855999D01*
X150410057Y-55046476D02*
X150410057Y-55808380D01*
X149314819Y-55903619D02*
X149314819Y-56475047D01*
X150314819Y-56189333D02*
X149314819Y-56189333D01*
X149314819Y-56713143D02*
X150314819Y-57379809D01*
X149314819Y-57379809D02*
X150314819Y-56713143D01*
X143755904Y-55080819D02*
X143184476Y-55080819D01*
X143470190Y-56080819D02*
X143470190Y-55080819D01*
X142851142Y-56080819D02*
X142851142Y-55080819D01*
X142851142Y-55080819D02*
X142470190Y-55080819D01*
X142470190Y-55080819D02*
X142374952Y-55128438D01*
X142374952Y-55128438D02*
X142327333Y-55176057D01*
X142327333Y-55176057D02*
X142279714Y-55271295D01*
X142279714Y-55271295D02*
X142279714Y-55414152D01*
X142279714Y-55414152D02*
X142327333Y-55509390D01*
X142327333Y-55509390D02*
X142374952Y-55557009D01*
X142374952Y-55557009D02*
X142470190Y-55604628D01*
X142470190Y-55604628D02*
X142851142Y-55604628D01*
X141946380Y-55080819D02*
X141327333Y-55080819D01*
X141327333Y-55080819D02*
X141660666Y-55461771D01*
X141660666Y-55461771D02*
X141517809Y-55461771D01*
X141517809Y-55461771D02*
X141422571Y-55509390D01*
X141422571Y-55509390D02*
X141374952Y-55557009D01*
X141374952Y-55557009D02*
X141327333Y-55652247D01*
X141327333Y-55652247D02*
X141327333Y-55890342D01*
X141327333Y-55890342D02*
X141374952Y-55985580D01*
X141374952Y-55985580D02*
X141422571Y-56033200D01*
X141422571Y-56033200D02*
X141517809Y-56080819D01*
X141517809Y-56080819D02*
X141803523Y-56080819D01*
X141803523Y-56080819D02*
X141898761Y-56033200D01*
X141898761Y-56033200D02*
X141946380Y-55985580D01*
X140234200Y-51260762D02*
X140281819Y-51403619D01*
X140281819Y-51403619D02*
X140281819Y-51641714D01*
X140281819Y-51641714D02*
X140234200Y-51736952D01*
X140234200Y-51736952D02*
X140186580Y-51784571D01*
X140186580Y-51784571D02*
X140091342Y-51832190D01*
X140091342Y-51832190D02*
X139996104Y-51832190D01*
X139996104Y-51832190D02*
X139900866Y-51784571D01*
X139900866Y-51784571D02*
X139853247Y-51736952D01*
X139853247Y-51736952D02*
X139805628Y-51641714D01*
X139805628Y-51641714D02*
X139758009Y-51451238D01*
X139758009Y-51451238D02*
X139710390Y-51356000D01*
X139710390Y-51356000D02*
X139662771Y-51308381D01*
X139662771Y-51308381D02*
X139567533Y-51260762D01*
X139567533Y-51260762D02*
X139472295Y-51260762D01*
X139472295Y-51260762D02*
X139377057Y-51308381D01*
X139377057Y-51308381D02*
X139329438Y-51356000D01*
X139329438Y-51356000D02*
X139281819Y-51451238D01*
X139281819Y-51451238D02*
X139281819Y-51689333D01*
X139281819Y-51689333D02*
X139329438Y-51832190D01*
X139758009Y-52260762D02*
X139758009Y-52594095D01*
X140281819Y-52736952D02*
X140281819Y-52260762D01*
X140281819Y-52260762D02*
X139281819Y-52260762D01*
X139281819Y-52260762D02*
X139281819Y-52736952D01*
X140281819Y-53165524D02*
X139281819Y-53165524D01*
X139281819Y-53165524D02*
X140281819Y-53736952D01*
X140281819Y-53736952D02*
X139281819Y-53736952D01*
X140234200Y-54165524D02*
X140281819Y-54308381D01*
X140281819Y-54308381D02*
X140281819Y-54546476D01*
X140281819Y-54546476D02*
X140234200Y-54641714D01*
X140234200Y-54641714D02*
X140186580Y-54689333D01*
X140186580Y-54689333D02*
X140091342Y-54736952D01*
X140091342Y-54736952D02*
X139996104Y-54736952D01*
X139996104Y-54736952D02*
X139900866Y-54689333D01*
X139900866Y-54689333D02*
X139853247Y-54641714D01*
X139853247Y-54641714D02*
X139805628Y-54546476D01*
X139805628Y-54546476D02*
X139758009Y-54356000D01*
X139758009Y-54356000D02*
X139710390Y-54260762D01*
X139710390Y-54260762D02*
X139662771Y-54213143D01*
X139662771Y-54213143D02*
X139567533Y-54165524D01*
X139567533Y-54165524D02*
X139472295Y-54165524D01*
X139472295Y-54165524D02*
X139377057Y-54213143D01*
X139377057Y-54213143D02*
X139329438Y-54260762D01*
X139329438Y-54260762D02*
X139281819Y-54356000D01*
X139281819Y-54356000D02*
X139281819Y-54594095D01*
X139281819Y-54594095D02*
X139329438Y-54736952D01*
X140377057Y-54927429D02*
X140377057Y-55689333D01*
X140281819Y-56498857D02*
X139805628Y-56165524D01*
X140281819Y-55927429D02*
X139281819Y-55927429D01*
X139281819Y-55927429D02*
X139281819Y-56308381D01*
X139281819Y-56308381D02*
X139329438Y-56403619D01*
X139329438Y-56403619D02*
X139377057Y-56451238D01*
X139377057Y-56451238D02*
X139472295Y-56498857D01*
X139472295Y-56498857D02*
X139615152Y-56498857D01*
X139615152Y-56498857D02*
X139710390Y-56451238D01*
X139710390Y-56451238D02*
X139758009Y-56403619D01*
X139758009Y-56403619D02*
X139805628Y-56308381D01*
X139805628Y-56308381D02*
X139805628Y-55927429D01*
X139281819Y-56832191D02*
X140281819Y-57498857D01*
X139281819Y-57498857D02*
X140281819Y-56832191D01*
X107862666Y-72876580D02*
X107910285Y-72924200D01*
X107910285Y-72924200D02*
X108053142Y-72971819D01*
X108053142Y-72971819D02*
X108148380Y-72971819D01*
X108148380Y-72971819D02*
X108291237Y-72924200D01*
X108291237Y-72924200D02*
X108386475Y-72828961D01*
X108386475Y-72828961D02*
X108434094Y-72733723D01*
X108434094Y-72733723D02*
X108481713Y-72543247D01*
X108481713Y-72543247D02*
X108481713Y-72400390D01*
X108481713Y-72400390D02*
X108434094Y-72209914D01*
X108434094Y-72209914D02*
X108386475Y-72114676D01*
X108386475Y-72114676D02*
X108291237Y-72019438D01*
X108291237Y-72019438D02*
X108148380Y-71971819D01*
X108148380Y-71971819D02*
X108053142Y-71971819D01*
X108053142Y-71971819D02*
X107910285Y-72019438D01*
X107910285Y-72019438D02*
X107862666Y-72067057D01*
X107481713Y-72067057D02*
X107434094Y-72019438D01*
X107434094Y-72019438D02*
X107338856Y-71971819D01*
X107338856Y-71971819D02*
X107100761Y-71971819D01*
X107100761Y-71971819D02*
X107005523Y-72019438D01*
X107005523Y-72019438D02*
X106957904Y-72067057D01*
X106957904Y-72067057D02*
X106910285Y-72162295D01*
X106910285Y-72162295D02*
X106910285Y-72257533D01*
X106910285Y-72257533D02*
X106957904Y-72400390D01*
X106957904Y-72400390D02*
X107529332Y-72971819D01*
X107529332Y-72971819D02*
X106910285Y-72971819D01*
X105245819Y-67953143D02*
X105245819Y-68048381D01*
X105245819Y-68048381D02*
X105293438Y-68143619D01*
X105293438Y-68143619D02*
X105341057Y-68191238D01*
X105341057Y-68191238D02*
X105436295Y-68238857D01*
X105436295Y-68238857D02*
X105626771Y-68286476D01*
X105626771Y-68286476D02*
X105864866Y-68286476D01*
X105864866Y-68286476D02*
X106055342Y-68238857D01*
X106055342Y-68238857D02*
X106150580Y-68191238D01*
X106150580Y-68191238D02*
X106198200Y-68143619D01*
X106198200Y-68143619D02*
X106245819Y-68048381D01*
X106245819Y-68048381D02*
X106245819Y-67953143D01*
X106245819Y-67953143D02*
X106198200Y-67857905D01*
X106198200Y-67857905D02*
X106150580Y-67810286D01*
X106150580Y-67810286D02*
X106055342Y-67762667D01*
X106055342Y-67762667D02*
X105864866Y-67715048D01*
X105864866Y-67715048D02*
X105626771Y-67715048D01*
X105626771Y-67715048D02*
X105436295Y-67762667D01*
X105436295Y-67762667D02*
X105341057Y-67810286D01*
X105341057Y-67810286D02*
X105293438Y-67857905D01*
X105293438Y-67857905D02*
X105245819Y-67953143D01*
X106150580Y-68715048D02*
X106198200Y-68762667D01*
X106198200Y-68762667D02*
X106245819Y-68715048D01*
X106245819Y-68715048D02*
X106198200Y-68667429D01*
X106198200Y-68667429D02*
X106150580Y-68715048D01*
X106150580Y-68715048D02*
X106245819Y-68715048D01*
X106245819Y-69715047D02*
X106245819Y-69143619D01*
X106245819Y-69429333D02*
X105245819Y-69429333D01*
X105245819Y-69429333D02*
X105388676Y-69334095D01*
X105388676Y-69334095D02*
X105483914Y-69238857D01*
X105483914Y-69238857D02*
X105531533Y-69143619D01*
X105579152Y-70572190D02*
X106245819Y-70572190D01*
X105579152Y-70143619D02*
X106102961Y-70143619D01*
X106102961Y-70143619D02*
X106198200Y-70191238D01*
X106198200Y-70191238D02*
X106245819Y-70286476D01*
X106245819Y-70286476D02*
X106245819Y-70429333D01*
X106245819Y-70429333D02*
X106198200Y-70524571D01*
X106198200Y-70524571D02*
X106150580Y-70572190D01*
X105722009Y-71381714D02*
X105722009Y-71048381D01*
X106245819Y-71048381D02*
X105245819Y-71048381D01*
X105245819Y-71048381D02*
X105245819Y-71524571D01*
X152225285Y-105452104D02*
X151749095Y-105452104D01*
X152320523Y-105737819D02*
X151987190Y-104737819D01*
X151987190Y-104737819D02*
X151653857Y-105737819D01*
X150796714Y-105737819D02*
X151368142Y-105737819D01*
X151082428Y-105737819D02*
X151082428Y-104737819D01*
X151082428Y-104737819D02*
X151177666Y-104880676D01*
X151177666Y-104880676D02*
X151272904Y-104975914D01*
X151272904Y-104975914D02*
X151368142Y-105023533D01*
%TO.C,JP2*%
D12*
X109105000Y-90886000D02*
X109105000Y-91486000D01*
X109805000Y-92186000D02*
X111205000Y-92186000D01*
X111205000Y-90186000D02*
X109805000Y-90186000D01*
X111905000Y-91486000D02*
X111905000Y-90886000D01*
X109805000Y-92186000D02*
G75*
G02*
X109105000Y-91486000I-1J699999D01*
G01*
X109105000Y-90886000D02*
G75*
G02*
X109805000Y-90186000I699999J1D01*
G01*
X111905000Y-91486000D02*
G75*
G02*
X111205000Y-92186000I-700000J0D01*
G01*
X111205000Y-90186000D02*
G75*
G02*
X111905000Y-90886000I0J-700000D01*
G01*
%TO.C,JP1*%
X105041000Y-88981000D02*
X105041000Y-89581000D01*
X105741000Y-90281000D02*
X107141000Y-90281000D01*
X107141000Y-88281000D02*
X105741000Y-88281000D01*
X107841000Y-89581000D02*
X107841000Y-88981000D01*
X105741000Y-90281000D02*
G75*
G02*
X105041000Y-89581000I-1J699999D01*
G01*
X105041000Y-88981000D02*
G75*
G02*
X105741000Y-88281000I699999J1D01*
G01*
X107841000Y-89581000D02*
G75*
G02*
X107141000Y-90281000I-700000J0D01*
G01*
X107141000Y-88281000D02*
G75*
G02*
X107841000Y-88981000I0J-700000D01*
G01*
%TO.C,U3*%
X100584000Y-50038000D02*
X138684000Y-50038000D01*
X138684000Y-116078000D01*
X100584000Y-116078000D01*
X100584000Y-50038000D01*
%TO.C,J9*%
X154394000Y-99910000D02*
X155444000Y-99910000D01*
X154394000Y-102410000D02*
X154394000Y-99910000D01*
X159444000Y-104380000D02*
X155564000Y-104380000D01*
X159564000Y-99910000D02*
X159564000Y-98920000D01*
X160614000Y-99910000D02*
X159564000Y-99910000D01*
X160614000Y-102410000D02*
X160614000Y-99910000D01*
%TO.C,TP4*%
X148512000Y-52705000D02*
G75*
G02*
X145112000Y-52705000I-1700000J0D01*
G01*
X145112000Y-52705000D02*
G75*
G02*
X148512000Y-52705000I1700000J0D01*
G01*
%TO.C,TP3*%
X144194000Y-52832000D02*
G75*
G02*
X140794000Y-52832000I-1700000J0D01*
G01*
X140794000Y-52832000D02*
G75*
G02*
X144194000Y-52832000I1700000J0D01*
G01*
%TO.C,C2*%
X106576000Y-67849000D02*
X106576000Y-71089000D01*
X106576000Y-71089000D02*
X106724000Y-71089000D01*
X106724000Y-67849000D02*
X106576000Y-67849000D01*
X108668000Y-71089000D02*
X108816000Y-71089000D01*
X108816000Y-67849000D02*
X108668000Y-67849000D01*
X108816000Y-71089000D02*
X108816000Y-67849000D01*
%TO.C,A1*%
X139651000Y-96663000D02*
X139651000Y-98663000D01*
X139971000Y-101473000D02*
X139971000Y-55753000D01*
X160401000Y-53103000D02*
X142621000Y-53103000D01*
X160401000Y-104123000D02*
X142621000Y-104123000D01*
X163051000Y-101473000D02*
X163051000Y-55753000D01*
X139971000Y-55753000D02*
G75*
G02*
X142621000Y-53103000I2650000J0D01*
G01*
X142621000Y-104123000D02*
G75*
G02*
X139971000Y-101473000I0J2650000D01*
G01*
X160401000Y-53103000D02*
G75*
G02*
X163051000Y-55753000I0J-2650000D01*
G01*
X163051000Y-101473000D02*
G75*
G02*
X160401000Y-104123000I-2650000J0D01*
G01*
%TD*%
M02*
