M48
; DRILL file KiCad 10.0.3 date 2026-06-07T13:31:38
; FORMAT={-:-/ absolute / metric / decimal}
; #@! TF.CreationDate,2026-06-07T13:31:38-04:00
; #@! TF.GenerationSoftware,Kicad,Pcbnew,10.0.3
; #@! TF.FileFunction,Plated,1,4,PTH
FMAT,2
METRIC
; #@! TA.AperFunction,Plated,PTH,ViaDrill
T1C0.300
; #@! TA.AperFunction,Plated,PTH,ViaDrill
T2C0.399
; #@! TA.AperFunction,Plated,PTH,ComponentDrill
T3C0.800
; #@! TA.AperFunction,Plated,PTH,ComponentDrill
T4C0.900
; #@! TA.AperFunction,Plated,PTH,ComponentDrill
T5C1.000
; #@! TA.AperFunction,Plated,PTH,ComponentDrill
T6C1.600
; #@! TA.AperFunction,Plated,PTH,ComponentDrill
T7C2.000
; #@! TA.AperFunction,Plated,PTH,ComponentDrill
T8C3.200
%
G90
G05
T1
X104.937Y-96.83
X109.181Y-87.273
X109.728Y-72.009
X109.794Y-61.641
X110.137Y-54.161
X110.222Y-99.8
X113.062Y-59.997
X134.129Y-62.353
X138.937Y-64.584
X139.138Y-95.404
X144.541Y-84.443
X154.806Y-98.774
X155.2Y-100.578
X157.004Y-100.987
X157.873Y-94.361
X159.004Y-98.4
X159.891Y-100.532
T2
X107.991Y-88.242
T3
X103.124Y-58.928
X103.124Y-61.468
X103.124Y-64.008
X103.124Y-66.548
X103.124Y-69.088
X103.124Y-71.628
X103.124Y-74.168
X103.124Y-76.708
X103.124Y-79.248
X103.124Y-81.788
X103.124Y-84.328
X103.124Y-86.868
X103.124Y-89.408
X103.124Y-91.948
X103.124Y-94.488
X103.124Y-97.028
X107.696Y-68.219
X107.696Y-70.719
X109.093Y-95.25
X109.093Y-102.87
X109.728Y-56.317
X109.728Y-59.817
X111.633Y-95.25
X111.633Y-102.87
X114.173Y-95.25
X114.173Y-102.87
X116.713Y-95.25
X116.713Y-102.87
X119.253Y-95.25
X119.253Y-102.87
X121.793Y-95.25
X121.793Y-102.87
X123.825Y-88.539
X123.825Y-91.039
X124.333Y-95.25
X124.333Y-102.87
X127.635Y-92.456
X127.635Y-102.616
X130.175Y-92.456
X130.175Y-102.616
X132.715Y-92.456
X132.715Y-102.616
X136.124Y-58.928
X136.124Y-61.468
X136.124Y-64.008
X136.124Y-66.548
X136.124Y-69.088
X136.124Y-71.628
X136.124Y-74.168
X136.124Y-76.708
X136.124Y-79.248
X136.124Y-81.788
X136.124Y-84.328
X136.124Y-86.868
X136.124Y-89.408
X136.124Y-91.948
X136.124Y-94.488
X136.124Y-97.028
X144.8Y-92.202
X145.473Y-100.076
X146.108Y-84.455
X147.3Y-92.202
X148.973Y-100.076
X149.608Y-84.455
T4
X110.232Y-68.196
X110.232Y-70.736
X110.232Y-73.276
X110.232Y-75.816
X110.232Y-78.356
X110.232Y-80.896
T5
X141.351Y-59.563
X141.351Y-62.103
X141.351Y-64.643
X141.351Y-67.183
X141.351Y-69.723
X141.351Y-72.263
X141.351Y-74.803
X141.351Y-77.343
X141.351Y-79.883
X141.351Y-82.423
X141.351Y-84.963
X141.351Y-87.503
X141.351Y-90.043
X141.351Y-92.583
X141.351Y-95.123
X141.351Y-97.663
X156.591Y-69.215
X156.591Y-71.755
X156.591Y-74.295
X156.591Y-76.835
X156.591Y-79.375
X156.591Y-81.915
X156.591Y-84.455
X156.591Y-86.995
X161.671Y-59.563
X161.671Y-62.103
X161.671Y-64.643
X161.671Y-67.183
X161.671Y-69.723
X161.671Y-72.263
X161.671Y-74.803
X161.671Y-77.343
X161.671Y-79.883
X161.671Y-82.423
X161.671Y-84.963
X161.671Y-87.503
X165.989Y-59.182
X165.989Y-61.722
X165.989Y-64.262
X165.989Y-66.802
X165.989Y-69.342
X166.243Y-79.121
X166.243Y-81.661
X166.243Y-84.201
X166.243Y-86.741
X166.243Y-89.281
X166.243Y-91.821
X166.243Y-94.361
T6
X140.335Y-102.235
X142.494Y-52.832
X146.812Y-52.705
X162.433Y-96.774
T7
X129.032Y-65.566
X129.032Y-83.566
T8
X103.5Y-53.5
X103.5Y-101.5
X166.5Y-53.5
X166.5Y-101.5
M30
