%TF.GenerationSoftware,KiCad,Pcbnew,10.0.3*%
%TF.CreationDate,2026-06-07T13:31:44-04:00*%
%TF.ProjectId,moveOmeterV1,6d6f7665-4f6d-4657-9465-7256312e6b69,rev?*%
%TF.SameCoordinates,Original*%
%TF.FileFunction,Copper,L3,Inr*%
%TF.FilePolarity,Positive*%
%FSLAX46Y46*%
G04 Gerber Fmt 4.6, Leading zero omitted, Abs format (unit mm)*
G04 Created by KiCad (PCBNEW 10.0.3) date 2026-06-07 13:31:44*
%MOMM*%
%LPD*%
G01*
G04 APERTURE LIST*
G04 Aperture macros list*
%AMRoundRect*
0 Rectangle with rounded corners*
0 $1 Rounding radius*
0 $2 $3 $4 $5 $6 $7 $8 $9 X,Y pos of 4 corners*
0 Add a 4 corners polygon primitive as box body*
4,1,4,$2,$3,$4,$5,$6,$7,$8,$9,$2,$3,0*
0 Add four circle primitives for the rounded corners*
1,1,$1+$1,$2,$3*
1,1,$1+$1,$4,$5*
1,1,$1+$1,$6,$7*
1,1,$1+$1,$8,$9*
0 Add four rect primitives between the rounded corners*
20,1,$1+$1,$2,$3,$4,$5,0*
20,1,$1+$1,$4,$5,$6,$7,0*
20,1,$1+$1,$6,$7,$8,$9,0*
20,1,$1+$1,$8,$9,$2,$3,0*%
G04 Aperture macros list end*
%TA.AperFunction,ComponentPad*%
%ADD10C,3.000000*%
%TD*%
%TA.AperFunction,ComponentPad*%
%ADD11RoundRect,0.250000X0.550000X-0.550000X0.550000X0.550000X-0.550000X0.550000X-0.550000X-0.550000X0*%
%TD*%
%TA.AperFunction,ComponentPad*%
%ADD12C,1.600000*%
%TD*%
%TA.AperFunction,ComponentPad*%
%ADD13C,3.600000*%
%TD*%
%TA.AperFunction,ComponentPad*%
%ADD14RoundRect,0.190500X-0.444500X1.079500X-0.444500X-1.079500X0.444500X-1.079500X0.444500X1.079500X0*%
%TD*%
%TA.AperFunction,ComponentPad*%
%ADD15R,1.700000X1.700000*%
%TD*%
%TA.AperFunction,ComponentPad*%
%ADD16C,1.700000*%
%TD*%
%TA.AperFunction,ComponentPad*%
%ADD17R,1.408000X1.408000*%
%TD*%
%TA.AperFunction,ComponentPad*%
%ADD18C,1.408000*%
%TD*%
%TA.AperFunction,ComponentPad*%
%ADD19RoundRect,0.250000X-0.550000X0.950000X-0.550000X-0.950000X0.550000X-0.950000X0.550000X0.950000X0*%
%TD*%
%TA.AperFunction,ComponentPad*%
%ADD20O,1.600000X2.400000*%
%TD*%
%TA.AperFunction,ComponentPad*%
%ADD21RoundRect,0.250000X0.550000X0.550000X-0.550000X0.550000X-0.550000X-0.550000X0.550000X-0.550000X0*%
%TD*%
%TA.AperFunction,ComponentPad*%
%ADD22O,2.000000X1.200000*%
%TD*%
%TA.AperFunction,ComponentPad*%
%ADD23RoundRect,0.250000X-1.050000X-0.550000X1.050000X-0.550000X1.050000X0.550000X-1.050000X0.550000X0*%
%TD*%
%TA.AperFunction,ComponentPad*%
%ADD24O,2.600000X1.600000*%
%TD*%
%TA.AperFunction,ViaPad*%
%ADD25C,0.600000*%
%TD*%
%TA.AperFunction,ViaPad*%
%ADD26C,0.711200*%
%TD*%
%TA.AperFunction,Conductor*%
%ADD27C,0.200000*%
%TD*%
%TA.AperFunction,Conductor*%
%ADD28C,0.609600*%
%TD*%
G04 APERTURE END LIST*
D10*
%TO.N,GND*%
%TO.C,TP2*%
X140335000Y-102235000D03*
%TD*%
D11*
%TO.N,/5V_USB*%
%TO.C,C4*%
X109728000Y-59817000D03*
D12*
%TO.N,GND*%
X109728000Y-56317000D03*
%TD*%
D10*
%TO.N,Net-(J2-Pad3)*%
%TO.C,TP1*%
X162433000Y-96774000D03*
%TD*%
D13*
%TO.N,N/C*%
%TO.C,topleft*%
X166500000Y-53500000D03*
%TD*%
D14*
%TO.N,/5V_USB*%
%TO.C,J2*%
X132715000Y-92456000D03*
%TO.N,GND*%
X130175000Y-92456000D03*
%TO.N,Net-(J2-Pad3)*%
X127635000Y-92456000D03*
%TO.N,unconnected-(J2-Pad4)*%
X127635000Y-102616000D03*
%TO.N,unconnected-(J2-Pad5)*%
X130175000Y-102616000D03*
%TO.N,unconnected-(J2-Pad6)*%
X132715000Y-102616000D03*
%TD*%
D13*
%TO.N,N/C*%
%TO.C,bottomright*%
X103500000Y-101500000D03*
%TD*%
D15*
%TO.N,/3V3_500mA*%
%TO.C,J12*%
X166243000Y-94361000D03*
D16*
%TO.N,unconnected-(J12-Pad2)*%
X166243000Y-91821000D03*
%TO.N,GND*%
X166243000Y-89281000D03*
%TO.N,/SCK*%
X166243000Y-86741000D03*
%TO.N,/SDO*%
X166243000Y-84201000D03*
%TO.N,/SDI*%
X166243000Y-81661000D03*
%TO.N,/CS*%
X166243000Y-79121000D03*
%TD*%
D15*
%TO.N,GND*%
%TO.C,J3*%
X156591000Y-86995000D03*
D16*
%TO.N,/5V_USB*%
X156591000Y-84455000D03*
%TO.N,/A7*%
X156591000Y-81915000D03*
%TO.N,/A6*%
X156591000Y-79375000D03*
%TO.N,/A8*%
X156591000Y-76835000D03*
%TO.N,/3V3_500mA*%
X156591000Y-74295000D03*
%TO.N,/SDA*%
X156591000Y-71755000D03*
%TO.N,/SCL*%
X156591000Y-69215000D03*
%TD*%
D17*
%TO.N,/5V_USB*%
%TO.C,U1*%
X110232000Y-68196000D03*
D18*
%TO.N,GND*%
X110232000Y-70736000D03*
%TO.N,/SENS_TX*%
X110232000Y-73276000D03*
%TO.N,/SENS_RX*%
X110232000Y-75816000D03*
%TO.N,Net-(A1-DAC2{slash}A0)*%
X110232000Y-78356000D03*
%TO.N,/A9*%
X110232000Y-80896000D03*
D10*
%TO.N,N/C*%
X129032000Y-65566000D03*
X129032000Y-83566000D03*
%TD*%
D13*
%TO.N,N/C*%
%TO.C,bottomleft*%
X166500000Y-101500000D03*
%TD*%
D19*
%TO.N,GND*%
%TO.C,U2*%
X124333000Y-95250000D03*
D20*
%TO.N,/A3*%
X121793000Y-95250000D03*
%TO.N,Net-(J2-Pad3)*%
X119253000Y-95250000D03*
%TO.N,N/C*%
X116713000Y-95250000D03*
X114173000Y-95250000D03*
X111633000Y-95250000D03*
%TO.N,GND*%
X109093000Y-95250000D03*
%TO.N,N/C*%
X109093000Y-102870000D03*
X111633000Y-102870000D03*
X114173000Y-102870000D03*
X116713000Y-102870000D03*
X119253000Y-102870000D03*
X121793000Y-102870000D03*
%TO.N,/5V_USB*%
X124333000Y-102870000D03*
%TD*%
D12*
%TO.N,/5V_USB*%
%TO.C,C6*%
X147300000Y-92202000D03*
%TO.N,GND*%
X144800000Y-92202000D03*
%TD*%
D13*
%TO.N,N/C*%
%TO.C,topright*%
X103500000Y-53500000D03*
%TD*%
D21*
%TO.N,/5V_USB*%
%TO.C,C5*%
X148972700Y-100076000D03*
D12*
%TO.N,GND*%
X145472700Y-100076000D03*
%TD*%
D15*
%TO.N,/3V3_500mA*%
%TO.C,J11*%
X165989000Y-69342000D03*
D16*
%TO.N,unconnected-(J11-Pad2)*%
X165989000Y-66802000D03*
%TO.N,GND*%
X165989000Y-64262000D03*
%TO.N,/SCL*%
X165989000Y-61722000D03*
%TO.N,/SDA*%
X165989000Y-59182000D03*
%TD*%
D12*
%TO.N,/5V_USB*%
%TO.C,C3*%
X123825000Y-88539000D03*
%TO.N,GND*%
X123825000Y-91039000D03*
%TD*%
D21*
%TO.N,/5V_USB*%
%TO.C,C1*%
X149607700Y-84455000D03*
D12*
%TO.N,GND*%
X146107700Y-84455000D03*
%TD*%
D22*
%TO.N,GND*%
%TO.C,U3*%
X103124000Y-97028000D03*
%TO.N,unconnected-(U3-AUX_TX-Pad2)*%
X103124000Y-94488000D03*
%TO.N,unconnected-(U3-AUX_RX-Pad3)*%
X103124000Y-91948000D03*
%TO.N,unconnected-(U3-AUX_EN-Pad4)*%
X103124000Y-89408000D03*
%TO.N,unconnected-(U3-AUX4-Pad5)*%
X103124000Y-86868000D03*
%TO.N,unconnected-(U3-AUX3-Pad6)*%
X103124000Y-84328000D03*
%TO.N,unconnected-(U3-AUX2-Pad7)*%
X103124000Y-81788000D03*
%TO.N,unconnected-(U3-AUX1-Pad8)*%
X103124000Y-79248000D03*
%TO.N,unconnected-(U3-ATTN-Pad9)*%
X103124000Y-76708000D03*
%TO.N,unconnected-(U3-CTX-Pad10)*%
X103124000Y-74168000D03*
%TO.N,unconnected-(U3-RTX-Pad11)*%
X103124000Y-71628000D03*
%TO.N,/blues_TX*%
X103124000Y-69088000D03*
%TO.N,/blues_RX*%
X103124000Y-66548000D03*
%TO.N,Net-(JP1-B)*%
X103124000Y-64008000D03*
%TO.N,Net-(JP2-B)*%
X103124000Y-61468000D03*
%TO.N,GND*%
X103124000Y-58928000D03*
X136124000Y-58928000D03*
%TO.N,unconnected-(U3-ALTDFU_RX-Pad18)*%
X136124000Y-61468000D03*
%TO.N,unconnected-(U3-ALTDFU_TX-Pad19)*%
X136124000Y-64008000D03*
%TO.N,unconnected-(U3-ALTDFU_BOOT-Pad20)*%
X136124000Y-66548000D03*
%TO.N,unconnected-(U3-ALTDFU_NRST-Pad21)*%
X136124000Y-69088000D03*
%TO.N,unconnected-(U3-ALTDFU_IDLE-Pad22)*%
X136124000Y-71628000D03*
%TO.N,unconnected-(U3-VGPS_IN-Pad23)*%
X136124000Y-74168000D03*
%TO.N,unconnected-(U3-VGPS_OUT-Pad24)*%
X136124000Y-76708000D03*
%TO.N,unconnected-(U3-EN-Pad25)*%
X136124000Y-79248000D03*
%TO.N,unconnected-(U3-NCHG-Pad26)*%
X136124000Y-81788000D03*
%TO.N,unconnected-(U3-NRST-Pad27)*%
X136124000Y-84328000D03*
%TO.N,unconnected-(U3-BOOT-Pad28)*%
X136124000Y-86868000D03*
%TO.N,unconnected-(U3-VIO-Pad29)*%
X136124000Y-89408000D03*
%TO.N,/5V_USB*%
X136124000Y-91948000D03*
%TO.N,unconnected-(U3-VUSB-Pad31)*%
X136124000Y-94488000D03*
%TO.N,unconnected-(U3-VBAT-Pad32)*%
X136124000Y-97028000D03*
%TD*%
D10*
%TO.N,/SENS_TX*%
%TO.C,TP4*%
X146812000Y-52705000D03*
%TD*%
%TO.N,/SENS_RX*%
%TO.C,TP3*%
X142494000Y-52832000D03*
%TD*%
D12*
%TO.N,/5V_USB*%
%TO.C,C2*%
X107696000Y-68219000D03*
%TO.N,GND*%
X107696000Y-70719000D03*
%TD*%
D23*
%TO.N,unconnected-(A1-~{RESET}-Pad1)*%
%TO.C,A1*%
X141651000Y-97663000D03*
D24*
%TO.N,/3V3_500mA*%
X141651000Y-95123000D03*
%TO.N,unconnected-(A1-NC-Pad3)*%
X141651000Y-92583000D03*
%TO.N,Net-(A1-DAC2{slash}A0)*%
X141651000Y-87503000D03*
%TO.N,unconnected-(A1-DAC1{slash}A1-Pad6)*%
X141651000Y-84963000D03*
%TO.N,unconnected-(A1-I34{slash}A2-Pad7)*%
X141651000Y-82423000D03*
%TO.N,/A3*%
X141651000Y-79883000D03*
%TO.N,/blues_RX*%
X141651000Y-77343000D03*
%TO.N,/blues_TX*%
X141651000Y-74803000D03*
%TO.N,/SCK*%
X141651000Y-72263000D03*
%TO.N,/SDO*%
X141651000Y-69723000D03*
%TO.N,/SDI*%
X141651000Y-67183000D03*
%TO.N,/SENS_RX*%
X141651000Y-64643000D03*
%TO.N,/SENS_TX*%
X141651000Y-62103000D03*
%TO.N,unconnected-(A1-IO21-Pad16)*%
X141651000Y-59563000D03*
%TO.N,/SDA*%
X161371000Y-59563000D03*
%TO.N,/SCL*%
X161371000Y-62103000D03*
%TO.N,/A6*%
X161371000Y-64643000D03*
%TO.N,/A7*%
X161371000Y-67183000D03*
%TO.N,/A8*%
X161371000Y-69723000D03*
%TO.N,/A9*%
X161371000Y-72263000D03*
%TO.N,unconnected-(A1-A10{slash}IO27-Pad23)*%
X161371000Y-74803000D03*
%TO.N,unconnected-(A1-A11{slash}IO12-Pad24)*%
X161371000Y-77343000D03*
%TO.N,/CS*%
X161371000Y-79883000D03*
%TO.N,/5V_USB*%
X161371000Y-82423000D03*
%TO.N,unconnected-(A1-EN-Pad27)*%
X161371000Y-84963000D03*
%TO.N,unconnected-(A1-VBAT-Pad28)*%
X161371000Y-87503000D03*
%TD*%
D25*
%TO.N,GND*%
X109728000Y-72009000D03*
%TO.N,/blues_RX*%
X134129200Y-62353400D03*
%TO.N,/blues_TX*%
X138937200Y-64584400D03*
%TO.N,/A3*%
X139138000Y-95403700D03*
%TO.N,/A9*%
X109794100Y-61641100D03*
%TO.N,Net-(A1-DAC2{slash}A0)*%
X109181200Y-87273400D03*
%TO.N,/SENS_RX*%
X110137500Y-54160800D03*
%TO.N,/SENS_TX*%
X113062500Y-59997200D03*
%TO.N,/SCL*%
X104937000Y-96830300D03*
X154805600Y-98774100D03*
X159891200Y-100531700D03*
%TO.N,/SDA*%
X157004000Y-100986600D03*
X110222300Y-99800200D03*
%TO.N,/SCK*%
X144541400Y-84443300D03*
%TO.N,/3V3_500mA*%
X157872700Y-94361000D03*
D26*
%TO.N,/5V_USB*%
X107990900Y-88241700D03*
D25*
%TO.N,GND*%
X159004000Y-98400500D03*
X155199600Y-100578400D03*
%TD*%
%TO.N,/blues_RX*%
D27*
X103124000Y-66548000D02*
X104425700Y-66548000D01*
X133639100Y-61863300D02*
X134129200Y-62353400D01*
X110422800Y-61863300D02*
X133639100Y-61863300D01*
X105738100Y-66548000D02*
X110422800Y-61863300D01*
X104425700Y-66548000D02*
X105738100Y-66548000D01*
%TO.N,/blues_TX*%
X103124000Y-69088000D02*
X104425700Y-69088000D01*
X137317400Y-62964600D02*
X138937200Y-64584400D01*
X133781600Y-62964600D02*
X137317400Y-62964600D01*
X133103800Y-62286800D02*
X133781600Y-62964600D01*
X110617500Y-62286800D02*
X133103800Y-62286800D01*
X104425700Y-68478600D02*
X110617500Y-62286800D01*
X104425700Y-69088000D02*
X104425700Y-68478600D01*
%TO.N,/A3*%
X130315600Y-95403700D02*
X139138000Y-95403700D01*
X128939500Y-96779800D02*
X130315600Y-95403700D01*
X121821100Y-96779800D02*
X128939500Y-96779800D01*
X121793000Y-96751700D02*
X121821100Y-96779800D01*
X121793000Y-95250000D02*
X121793000Y-96751700D01*
%TO.N,/A9*%
X109973700Y-61461500D02*
X109794100Y-61641100D01*
X134374600Y-61461500D02*
X109973700Y-61461500D01*
X135378700Y-62465600D02*
X134374600Y-61461500D01*
X139843800Y-62465600D02*
X135378700Y-62465600D01*
X140892700Y-63514500D02*
X139843800Y-62465600D01*
X154057200Y-63514500D02*
X140892700Y-63514500D01*
X158846900Y-68304200D02*
X154057200Y-63514500D01*
X163659100Y-68304200D02*
X158846900Y-68304200D01*
X163826500Y-68136800D02*
X163659100Y-68304200D01*
X166946200Y-68136800D02*
X163826500Y-68136800D01*
X167140700Y-68331300D02*
X166946200Y-68136800D01*
X167140700Y-70326300D02*
X167140700Y-68331300D01*
X165204000Y-72263000D02*
X167140700Y-70326300D01*
X161671000Y-72263000D02*
X165204000Y-72263000D01*
%TO.N,Net-(A1-DAC2{slash}A0)*%
X141351000Y-87503000D02*
X140049300Y-87503000D01*
X132882600Y-87273400D02*
X109181200Y-87273400D01*
X133429700Y-87820500D02*
X132882600Y-87273400D01*
X139731800Y-87820500D02*
X133429700Y-87820500D01*
X140049300Y-87503000D02*
X139731800Y-87820500D01*
%TO.N,/SENS_RX*%
X141165200Y-54160800D02*
X142494000Y-52832000D01*
X110137500Y-54160800D02*
X141165200Y-54160800D01*
%TO.N,/SENS_TX*%
X137943500Y-59997200D02*
X140049300Y-62103000D01*
X113062500Y-59997200D02*
X137943500Y-59997200D01*
X141351000Y-62103000D02*
X140049300Y-62103000D01*
%TO.N,/SCL*%
X165608000Y-62103000D02*
X165989000Y-61722000D01*
X161671000Y-62103000D02*
X165608000Y-62103000D01*
X106880800Y-98774100D02*
X104937000Y-96830300D01*
X154805600Y-98774100D02*
X106880800Y-98774100D01*
X158133600Y-98774100D02*
X159891200Y-100531700D01*
X154805600Y-98774100D02*
X158133600Y-98774100D01*
%TO.N,/SDA*%
X165608000Y-59563000D02*
X165989000Y-59182000D01*
X161671000Y-59563000D02*
X165608000Y-59563000D01*
X142983900Y-99800200D02*
X110222300Y-99800200D01*
X144419800Y-101236100D02*
X142983900Y-99800200D01*
X156754500Y-101236100D02*
X144419800Y-101236100D01*
X157004000Y-100986600D02*
X156754500Y-101236100D01*
%TO.N,/CS*%
X165481000Y-79883000D02*
X166243000Y-79121000D01*
X161671000Y-79883000D02*
X165481000Y-79883000D01*
%TO.N,/SDI*%
X167433700Y-80470300D02*
X166243000Y-81661000D01*
X167433700Y-78634300D02*
X167433700Y-80470300D01*
X164872400Y-76073000D02*
X167433700Y-78634300D01*
X157911000Y-76073000D02*
X164872400Y-76073000D01*
X157403000Y-75565000D02*
X157911000Y-76073000D01*
X151634700Y-75565000D02*
X157403000Y-75565000D01*
X143252700Y-67183000D02*
X151634700Y-75565000D01*
X141351000Y-67183000D02*
X143252700Y-67183000D01*
%TO.N,/SDO*%
X141351000Y-69723000D02*
X143252700Y-69723000D01*
X143252700Y-70223300D02*
X143252700Y-69723000D01*
X156098500Y-83069100D02*
X143252700Y-70223300D01*
X157090300Y-83069100D02*
X156098500Y-83069100D01*
X158855100Y-81304300D02*
X157090300Y-83069100D01*
X163346300Y-81304300D02*
X158855100Y-81304300D01*
X166243000Y-84201000D02*
X163346300Y-81304300D01*
%TO.N,/SCK*%
X144541400Y-84523500D02*
X144541400Y-84443300D01*
X148671100Y-88653200D02*
X144541400Y-84523500D01*
X164330800Y-88653200D02*
X148671100Y-88653200D01*
X166243000Y-86741000D02*
X164330800Y-88653200D01*
%TO.N,/3V3_500mA*%
X141351000Y-95123000D02*
X143252700Y-95123000D01*
X163186300Y-70993000D02*
X164837300Y-69342000D01*
X159893000Y-70993000D02*
X163186300Y-70993000D01*
X156591000Y-74295000D02*
X159893000Y-70993000D01*
X165989000Y-69342000D02*
X164837300Y-69342000D01*
X157872700Y-94361100D02*
X157872700Y-94361000D01*
X144014600Y-94361100D02*
X157872700Y-94361100D01*
X143252700Y-95123000D02*
X144014600Y-94361100D01*
X157872700Y-94361000D02*
X166243000Y-94361000D01*
%TO.N,Net-(J2-Pad3)*%
X120545300Y-92456000D02*
X127635000Y-92456000D01*
X119253000Y-93748300D02*
X120545300Y-92456000D01*
X119253000Y-95250000D02*
X119253000Y-93748300D01*
X119253000Y-95250000D02*
X119253000Y-96751700D01*
X162125000Y-96466000D02*
X162433000Y-96774000D01*
X137667000Y-96466000D02*
X162125000Y-96466000D01*
X137315200Y-96114200D02*
X137667000Y-96466000D01*
X130333200Y-96114200D02*
X137315200Y-96114200D01*
X129265900Y-97181500D02*
X130333200Y-96114200D01*
X119682800Y-97181500D02*
X129265900Y-97181500D01*
X119253000Y-96751700D02*
X119682800Y-97181500D01*
%TO.N,/5V_USB*%
D28*
X108995300Y-68219000D02*
X109018300Y-68196000D01*
X107696000Y-68219000D02*
X108995300Y-68219000D01*
X110232000Y-68196000D02*
X109018300Y-68196000D01*
X133223000Y-91948000D02*
X132715000Y-92456000D01*
X136124000Y-91948000D02*
X133223000Y-91948000D01*
X128798000Y-88539000D02*
X132715000Y-92456000D01*
X123825000Y-88539000D02*
X128798000Y-88539000D01*
X149607700Y-84455000D02*
X156591000Y-84455000D01*
X158623000Y-82423000D02*
X161671000Y-82423000D01*
X157904000Y-83142000D02*
X158623000Y-82423000D01*
X157904000Y-83144200D02*
X157904000Y-83142000D01*
X157255100Y-83793100D02*
X157904000Y-83144200D01*
X157252900Y-83793100D02*
X157255100Y-83793100D01*
X156591000Y-84455000D02*
X157252900Y-83793100D01*
X123527700Y-88241700D02*
X107990900Y-88241700D01*
X123825000Y-88539000D02*
X123527700Y-88241700D01*
%TD*%
M02*
