%TF.GenerationSoftware,KiCad,Pcbnew,10.0.3*%
%TF.CreationDate,2026-06-07T13:31:44-04:00*%
%TF.ProjectId,moveOmeterV1,6d6f7665-4f6d-4657-9465-7256312e6b69,rev?*%
%TF.SameCoordinates,Original*%
%TF.FileFunction,Copper,L1,Top*%
%TF.FilePolarity,Positive*%
%FSLAX46Y46*%
G04 Gerber Fmt 4.6, Leading zero omitted, Abs format (unit mm)*
G04 Created by KiCad (PCBNEW 10.0.3) date 2026-06-07 13:31:44*
%MOMM*%
%LPD*%
G01*
G04 APERTURE LIST*
G04 Aperture macros list*
%AMRoundRect*
0 Rectangle with rounded corners*
0 $1 Rounding radius*
0 $2 $3 $4 $5 $6 $7 $8 $9 X,Y pos of 4 corners*
0 Add a 4 corners polygon primitive as box body*
4,1,4,$2,$3,$4,$5,$6,$7,$8,$9,$2,$3,0*
0 Add four circle primitives for the rounded corners*
1,1,$1+$1,$2,$3*
1,1,$1+$1,$4,$5*
1,1,$1+$1,$6,$7*
1,1,$1+$1,$8,$9*
0 Add four rect primitives between the rounded corners*
20,1,$1+$1,$2,$3,$4,$5,0*
20,1,$1+$1,$4,$5,$6,$7,0*
20,1,$1+$1,$6,$7,$8,$9,0*
20,1,$1+$1,$8,$9,$2,$3,0*%
G04 Aperture macros list end*
%TA.AperFunction,ComponentPad*%
%ADD10C,3.000000*%
%TD*%
%TA.AperFunction,ComponentPad*%
%ADD11RoundRect,0.250000X0.550000X-0.550000X0.550000X0.550000X-0.550000X0.550000X-0.550000X-0.550000X0*%
%TD*%
%TA.AperFunction,ComponentPad*%
%ADD12C,1.600000*%
%TD*%
%TA.AperFunction,ComponentPad*%
%ADD13C,3.600000*%
%TD*%
%TA.AperFunction,ConnectorPad*%
%ADD14C,5.600000*%
%TD*%
%TA.AperFunction,ComponentPad*%
%ADD15RoundRect,0.190500X-0.444500X1.079500X-0.444500X-1.079500X0.444500X-1.079500X0.444500X1.079500X0*%
%TD*%
%TA.AperFunction,ComponentPad*%
%ADD16R,1.700000X1.700000*%
%TD*%
%TA.AperFunction,ComponentPad*%
%ADD17C,1.700000*%
%TD*%
%TA.AperFunction,ComponentPad*%
%ADD18R,1.408000X1.408000*%
%TD*%
%TA.AperFunction,ComponentPad*%
%ADD19C,1.408000*%
%TD*%
%TA.AperFunction,SMDPad,CuDef*%
%ADD20RoundRect,0.150000X-0.150000X-0.625000X0.150000X-0.625000X0.150000X0.625000X-0.150000X0.625000X0*%
%TD*%
%TA.AperFunction,SMDPad,CuDef*%
%ADD21RoundRect,0.250000X-0.350000X-0.650000X0.350000X-0.650000X0.350000X0.650000X-0.350000X0.650000X0*%
%TD*%
%TA.AperFunction,ComponentPad*%
%ADD22RoundRect,0.250000X-0.550000X0.950000X-0.550000X-0.950000X0.550000X-0.950000X0.550000X0.950000X0*%
%TD*%
%TA.AperFunction,ComponentPad*%
%ADD23O,1.600000X2.400000*%
%TD*%
%TA.AperFunction,ComponentPad*%
%ADD24RoundRect,0.250000X0.550000X0.550000X-0.550000X0.550000X-0.550000X-0.550000X0.550000X-0.550000X0*%
%TD*%
%TA.AperFunction,ComponentPad*%
%ADD25O,2.000000X1.200000*%
%TD*%
%TA.AperFunction,ComponentPad*%
%ADD26RoundRect,0.250000X-1.050000X-0.550000X1.050000X-0.550000X1.050000X0.550000X-1.050000X0.550000X0*%
%TD*%
%TA.AperFunction,ComponentPad*%
%ADD27O,2.600000X1.600000*%
%TD*%
%TA.AperFunction,ComponentPad*%
%ADD28O,2.600000X2.000000*%
%TD*%
%TA.AperFunction,ViaPad*%
%ADD29C,0.600000*%
%TD*%
%TA.AperFunction,ViaPad*%
%ADD30C,0.711200*%
%TD*%
%TA.AperFunction,Conductor*%
%ADD31C,0.200000*%
%TD*%
G04 APERTURE END LIST*
D10*
%TO.P,TP2,1,1_1*%
%TO.N,GND*%
X140335000Y-102235000D03*
%TD*%
D11*
%TO.P,C4,1*%
%TO.N,/5V_USB*%
X109728000Y-59817000D03*
D12*
%TO.P,C4,2*%
%TO.N,GND*%
X109728000Y-56317000D03*
%TD*%
D10*
%TO.P,TP1,1,1_1*%
%TO.N,Net-(J2-Pad3)*%
X162433000Y-96774000D03*
%TD*%
D13*
%TO.P,topleft,1*%
%TO.N,N/C*%
X166500000Y-53500000D03*
D14*
X166500000Y-53500000D03*
%TD*%
D15*
%TO.P,J2,1*%
%TO.N,/5V_USB*%
X132715000Y-92456000D03*
%TO.P,J2,2*%
%TO.N,GND*%
X130175000Y-92456000D03*
%TO.P,J2,3*%
%TO.N,Net-(J2-Pad3)*%
X127635000Y-92456000D03*
%TO.P,J2,4*%
%TO.N,unconnected-(J2-Pad4)*%
X127635000Y-102616000D03*
%TO.P,J2,5*%
%TO.N,unconnected-(J2-Pad5)*%
X130175000Y-102616000D03*
%TO.P,J2,6*%
%TO.N,unconnected-(J2-Pad6)*%
X132715000Y-102616000D03*
%TD*%
D13*
%TO.P,bottomright,1*%
%TO.N,N/C*%
X103500000Y-101500000D03*
D14*
X103500000Y-101500000D03*
%TD*%
D16*
%TO.P,J12,1*%
%TO.N,/3V3_500mA*%
X166243000Y-94361000D03*
D17*
%TO.P,J12,2*%
%TO.N,unconnected-(J12-Pad2)*%
X166243000Y-91821000D03*
%TO.P,J12,3*%
%TO.N,GND*%
X166243000Y-89281000D03*
%TO.P,J12,4*%
%TO.N,/SCK*%
X166243000Y-86741000D03*
%TO.P,J12,5*%
%TO.N,/SDO*%
X166243000Y-84201000D03*
%TO.P,J12,6*%
%TO.N,/SDI*%
X166243000Y-81661000D03*
%TO.P,J12,7*%
%TO.N,/CS*%
X166243000Y-79121000D03*
%TD*%
D16*
%TO.P,J3,1*%
%TO.N,GND*%
X156591000Y-86995000D03*
D17*
%TO.P,J3,2*%
%TO.N,/5V_USB*%
X156591000Y-84455000D03*
%TO.P,J3,3*%
%TO.N,/A7*%
X156591000Y-81915000D03*
%TO.P,J3,4*%
%TO.N,/A6*%
X156591000Y-79375000D03*
%TO.P,J3,5*%
%TO.N,/A8*%
X156591000Y-76835000D03*
%TO.P,J3,6*%
%TO.N,/3V3_500mA*%
X156591000Y-74295000D03*
%TO.P,J3,7*%
%TO.N,/SDA*%
X156591000Y-71755000D03*
%TO.P,J3,8*%
%TO.N,/SCL*%
X156591000Y-69215000D03*
%TD*%
D18*
%TO.P,U1,1,VIN_1*%
%TO.N,/5V_USB*%
X110232000Y-68196000D03*
D19*
%TO.P,U1,2,GND_2*%
%TO.N,GND*%
X110232000Y-70736000D03*
%TO.P,U1,3,RX_3*%
%TO.N,/SENS_TX*%
X110232000Y-73276000D03*
%TO.P,U1,4,TX_4*%
%TO.N,/SENS_RX*%
X110232000Y-75816000D03*
%TO.P,U1,5,IO1_5*%
%TO.N,Net-(A1-DAC2{slash}A0)*%
X110232000Y-78356000D03*
%TO.P,U1,6,IO2_6*%
%TO.N,/A9*%
X110232000Y-80896000D03*
D10*
%TO.P,U1,SH1*%
%TO.N,N/C*%
X129032000Y-65566000D03*
%TO.P,U1,SH2*%
X129032000Y-83566000D03*
%TD*%
D20*
%TO.P,J10,1*%
%TO.N,GND*%
X156083000Y-99695000D03*
%TO.P,J10,2*%
%TO.N,/3V3_500mA*%
X157083000Y-99695000D03*
%TO.P,J10,3*%
%TO.N,/SDA*%
X158083000Y-99695000D03*
%TO.P,J10,4*%
%TO.N,/SCL*%
X159083000Y-99695000D03*
D21*
%TO.P,J10,MP*%
%TO.N,N/C*%
X154783000Y-103570000D03*
X160383000Y-103570000D03*
%TD*%
D13*
%TO.P,bottomleft,1*%
%TO.N,N/C*%
X166500000Y-101500000D03*
D14*
X166500000Y-101500000D03*
%TD*%
D22*
%TO.P,U2,1*%
%TO.N,GND*%
X124333000Y-95250000D03*
D23*
%TO.P,U2,2*%
%TO.N,/A3*%
X121793000Y-95250000D03*
%TO.P,U2,3*%
%TO.N,Net-(J2-Pad3)*%
X119253000Y-95250000D03*
%TO.P,U2,4*%
%TO.N,N/C*%
X116713000Y-95250000D03*
%TO.P,U2,5*%
X114173000Y-95250000D03*
%TO.P,U2,6*%
X111633000Y-95250000D03*
%TO.P,U2,7,GND_7*%
%TO.N,GND*%
X109093000Y-95250000D03*
%TO.P,U2,8*%
%TO.N,N/C*%
X109093000Y-102870000D03*
%TO.P,U2,9*%
X111633000Y-102870000D03*
%TO.P,U2,10*%
X114173000Y-102870000D03*
%TO.P,U2,11*%
X116713000Y-102870000D03*
%TO.P,U2,12*%
X119253000Y-102870000D03*
%TO.P,U2,13*%
X121793000Y-102870000D03*
%TO.P,U2,14,VCC_14*%
%TO.N,/5V_USB*%
X124333000Y-102870000D03*
%TD*%
D12*
%TO.P,C6,1*%
%TO.N,/5V_USB*%
X147300000Y-92202000D03*
%TO.P,C6,2*%
%TO.N,GND*%
X144800000Y-92202000D03*
%TD*%
D13*
%TO.P,topright,1*%
%TO.N,N/C*%
X103500000Y-53500000D03*
D14*
X103500000Y-53500000D03*
%TD*%
D24*
%TO.P,C5,1*%
%TO.N,/5V_USB*%
X148972700Y-100076000D03*
D12*
%TO.P,C5,2*%
%TO.N,GND*%
X145472700Y-100076000D03*
%TD*%
D16*
%TO.P,J11,1*%
%TO.N,/3V3_500mA*%
X165989000Y-69342000D03*
D17*
%TO.P,J11,2*%
%TO.N,unconnected-(J11-Pad2)*%
X165989000Y-66802000D03*
%TO.P,J11,3*%
%TO.N,GND*%
X165989000Y-64262000D03*
%TO.P,J11,4*%
%TO.N,/SCL*%
X165989000Y-61722000D03*
%TO.P,J11,5*%
%TO.N,/SDA*%
X165989000Y-59182000D03*
%TD*%
D12*
%TO.P,C3,1*%
%TO.N,/5V_USB*%
X123825000Y-88539000D03*
%TO.P,C3,2*%
%TO.N,GND*%
X123825000Y-91039000D03*
%TD*%
D24*
%TO.P,C1,1*%
%TO.N,/5V_USB*%
X149607700Y-84455000D03*
D12*
%TO.P,C1,2*%
%TO.N,GND*%
X146107700Y-84455000D03*
%TD*%
D25*
%TO.P,U3,1,GND_1*%
%TO.N,GND*%
X103124000Y-97028000D03*
%TO.P,U3,2,AUX_TX_2*%
%TO.N,unconnected-(U3-AUX_TX-Pad2)*%
X103124000Y-94488000D03*
%TO.P,U3,3,AUX_RX_3*%
%TO.N,unconnected-(U3-AUX_RX-Pad3)*%
X103124000Y-91948000D03*
%TO.P,U3,4,AUX_EN_4*%
%TO.N,unconnected-(U3-AUX_EN-Pad4)*%
X103124000Y-89408000D03*
%TO.P,U3,5,AUX4_5*%
%TO.N,unconnected-(U3-AUX4-Pad5)*%
X103124000Y-86868000D03*
%TO.P,U3,6,AUX3_6*%
%TO.N,unconnected-(U3-AUX3-Pad6)*%
X103124000Y-84328000D03*
%TO.P,U3,7,AUX2_7*%
%TO.N,unconnected-(U3-AUX2-Pad7)*%
X103124000Y-81788000D03*
%TO.P,U3,8,AUX1_8*%
%TO.N,unconnected-(U3-AUX1-Pad8)*%
X103124000Y-79248000D03*
%TO.P,U3,9,ATTN_9*%
%TO.N,unconnected-(U3-ATTN-Pad9)*%
X103124000Y-76708000D03*
%TO.P,U3,10,CTX_10*%
%TO.N,unconnected-(U3-CTX-Pad10)*%
X103124000Y-74168000D03*
%TO.P,U3,11,RTX_11*%
%TO.N,unconnected-(U3-RTX-Pad11)*%
X103124000Y-71628000D03*
%TO.P,U3,12,TX_12*%
%TO.N,/blues_TX*%
X103124000Y-69088000D03*
%TO.P,U3,13,RX_13*%
%TO.N,/blues_RX*%
X103124000Y-66548000D03*
%TO.P,U3,14,SCL_14*%
%TO.N,Net-(JP1-B)*%
X103124000Y-64008000D03*
%TO.P,U3,15,SDA_15*%
%TO.N,Net-(JP2-B)*%
X103124000Y-61468000D03*
%TO.P,U3,16,GND_16*%
%TO.N,GND*%
X103124000Y-58928000D03*
%TO.P,U3,17,GND_17*%
X136124000Y-58928000D03*
%TO.P,U3,18,ALTDFU_RX_18*%
%TO.N,unconnected-(U3-ALTDFU_RX-Pad18)*%
X136124000Y-61468000D03*
%TO.P,U3,19,ALTDFU_TX_19*%
%TO.N,unconnected-(U3-ALTDFU_TX-Pad19)*%
X136124000Y-64008000D03*
%TO.P,U3,20,ALTDFU_BOOT_20*%
%TO.N,unconnected-(U3-ALTDFU_BOOT-Pad20)*%
X136124000Y-66548000D03*
%TO.P,U3,21,ALTDFU_NRST_21*%
%TO.N,unconnected-(U3-ALTDFU_NRST-Pad21)*%
X136124000Y-69088000D03*
%TO.P,U3,22,ALTDFU_IDLE_22*%
%TO.N,unconnected-(U3-ALTDFU_IDLE-Pad22)*%
X136124000Y-71628000D03*
%TO.P,U3,23,VGPS_IN_23*%
%TO.N,unconnected-(U3-VGPS_IN-Pad23)*%
X136124000Y-74168000D03*
%TO.P,U3,24,VGPS_OUT_24*%
%TO.N,unconnected-(U3-VGPS_OUT-Pad24)*%
X136124000Y-76708000D03*
%TO.P,U3,25,EN_25*%
%TO.N,unconnected-(U3-EN-Pad25)*%
X136124000Y-79248000D03*
%TO.P,U3,26,NCHG_26*%
%TO.N,unconnected-(U3-NCHG-Pad26)*%
X136124000Y-81788000D03*
%TO.P,U3,27,NRST_27*%
%TO.N,unconnected-(U3-NRST-Pad27)*%
X136124000Y-84328000D03*
%TO.P,U3,28,BOOT_28*%
%TO.N,unconnected-(U3-BOOT-Pad28)*%
X136124000Y-86868000D03*
%TO.P,U3,29,VIO_29*%
%TO.N,unconnected-(U3-VIO-Pad29)*%
X136124000Y-89408000D03*
%TO.P,U3,30,VMAIN_30*%
%TO.N,/5V_USB*%
X136124000Y-91948000D03*
%TO.P,U3,31,VUSB_31*%
%TO.N,unconnected-(U3-VUSB-Pad31)*%
X136124000Y-94488000D03*
%TO.P,U3,32,VBAT_32*%
%TO.N,unconnected-(U3-VBAT-Pad32)*%
X136124000Y-97028000D03*
%TD*%
D10*
%TO.P,TP4,1,1_1*%
%TO.N,/SENS_TX*%
X146812000Y-52705000D03*
%TD*%
%TO.P,TP3,1,1_1*%
%TO.N,/SENS_RX*%
X142494000Y-52832000D03*
%TD*%
D12*
%TO.P,C2,1*%
%TO.N,/5V_USB*%
X107696000Y-68219000D03*
%TO.P,C2,2*%
%TO.N,GND*%
X107696000Y-70719000D03*
%TD*%
D26*
%TO.P,A1,1,~{RESET}_1*%
%TO.N,unconnected-(A1-~{RESET}-Pad1)*%
X141651000Y-97663000D03*
D27*
%TO.P,A1,2,3V3_2*%
%TO.N,/3V3_500mA*%
X141651000Y-95123000D03*
%TO.P,A1,3,NC_3*%
%TO.N,unconnected-(A1-NC-Pad3)*%
X141651000Y-92583000D03*
D28*
%TO.P,A1,4,GND_4*%
%TO.N,GND*%
X141351000Y-90043000D03*
D27*
%TO.P,A1,5,DAC2/A0_5*%
%TO.N,Net-(A1-DAC2{slash}A0)*%
X141651000Y-87503000D03*
%TO.P,A1,6,DAC1/A1_6*%
%TO.N,unconnected-(A1-DAC1{slash}A1-Pad6)*%
X141651000Y-84963000D03*
%TO.P,A1,7,I34/A2_7*%
%TO.N,unconnected-(A1-I34{slash}A2-Pad7)*%
X141651000Y-82423000D03*
%TO.P,A1,8,I39/A3_8*%
%TO.N,/A3*%
X141651000Y-79883000D03*
%TO.P,A1,9,IO36/A4_9*%
%TO.N,/blues_RX*%
X141651000Y-77343000D03*
%TO.P,A1,10,IO4/A5_10*%
%TO.N,/blues_TX*%
X141651000Y-74803000D03*
%TO.P,A1,11,SCK/IO5_11*%
%TO.N,/SCK*%
X141651000Y-72263000D03*
%TO.P,A1,12,MOSI/IO18_12*%
%TO.N,/SDO*%
X141651000Y-69723000D03*
%TO.P,A1,13,MISO/IO19_13*%
%TO.N,/SDI*%
X141651000Y-67183000D03*
%TO.P,A1,14,RX/IO16_14*%
%TO.N,/SENS_RX*%
X141651000Y-64643000D03*
%TO.P,A1,15,TX/IO17_15*%
%TO.N,/SENS_TX*%
X141651000Y-62103000D03*
%TO.P,A1,16,IO21_16*%
%TO.N,unconnected-(A1-IO21-Pad16)*%
X141651000Y-59563000D03*
%TO.P,A1,17,SDA/IO23_17*%
%TO.N,/SDA*%
X161371000Y-59563000D03*
%TO.P,A1,18,SCL/IO22_18*%
%TO.N,/SCL*%
X161371000Y-62103000D03*
%TO.P,A1,19,A6/IO14_19*%
%TO.N,/A6*%
X161371000Y-64643000D03*
%TO.P,A1,20,A7/IO32_20*%
%TO.N,/A7*%
X161371000Y-67183000D03*
%TO.P,A1,21,A8/IO15_21*%
%TO.N,/A8*%
X161371000Y-69723000D03*
%TO.P,A1,22,A9/IO33_22*%
%TO.N,/A9*%
X161371000Y-72263000D03*
%TO.P,A1,23,A10/IO27_23*%
%TO.N,unconnected-(A1-A10{slash}IO27-Pad23)*%
X161371000Y-74803000D03*
%TO.P,A1,24,A11/IO12_24*%
%TO.N,unconnected-(A1-A11{slash}IO12-Pad24)*%
X161371000Y-77343000D03*
%TO.P,A1,25,A12/IO13_25*%
%TO.N,/CS*%
X161371000Y-79883000D03*
%TO.P,A1,26,USB_26*%
%TO.N,/5V_USB*%
X161371000Y-82423000D03*
%TO.P,A1,27,EN_27*%
%TO.N,unconnected-(A1-EN-Pad27)*%
X161371000Y-84963000D03*
%TO.P,A1,28,VBAT_28*%
%TO.N,unconnected-(A1-VBAT-Pad28)*%
X161371000Y-87503000D03*
%TD*%
D29*
%TO.N,GND*%
X109728000Y-72009000D03*
%TO.N,/blues_RX*%
X134129200Y-62353400D03*
%TO.N,/blues_TX*%
X138937200Y-64584400D03*
%TO.N,/A3*%
X139138000Y-95403700D03*
%TO.N,/A9*%
X109794100Y-61641100D03*
%TO.N,Net-(A1-DAC2{slash}A0)*%
X109181200Y-87273400D03*
%TO.N,/SENS_RX*%
X110137500Y-54160800D03*
%TO.N,/SENS_TX*%
X113062500Y-59997200D03*
%TO.N,/SCL*%
X104937000Y-96830300D03*
X154805600Y-98774100D03*
X159891200Y-100531700D03*
%TO.N,/SDA*%
X157004000Y-100986600D03*
X110222300Y-99800200D03*
%TO.N,/SCK*%
X144541400Y-84443300D03*
%TO.N,/3V3_500mA*%
X157872700Y-94361000D03*
D30*
%TO.N,/5V_USB*%
X107990900Y-88241700D03*
D29*
%TO.N,GND*%
X159004000Y-98400500D03*
X155199600Y-100578400D03*
%TD*%
%TO.N,GND*%
D31*
X109728000Y-72009000D02*
X108438000Y-70719000D01*
X108438000Y-70719000D02*
X107696000Y-70719000D01*
%TO.N,/SCL*%
X159083000Y-99723500D02*
X159083000Y-99695000D01*
X159891200Y-100531700D02*
X159083000Y-99723500D01*
%TO.N,/SDA*%
X157225600Y-100986600D02*
X157004000Y-100986600D01*
X158083000Y-100129200D02*
X157225600Y-100986600D01*
X158083000Y-99695000D02*
X158083000Y-100129200D01*
%TO.N,/3V3_500mA*%
X157083000Y-95150700D02*
X157083000Y-99695000D01*
X157872700Y-94361000D02*
X157083000Y-95150700D01*
%TO.N,GND*%
X155199600Y-100578400D02*
X156083000Y-99695000D01*
%TD*%
M02*
