%TF.GenerationSoftware,KiCad,Pcbnew,10.0.3*%
%TF.CreationDate,2026-06-07T13:31:44-04:00*%
%TF.ProjectId,moveOmeterV1,6d6f7665-4f6d-4657-9465-7256312e6b69,rev?*%
%TF.SameCoordinates,Original*%
%TF.FileFunction,Legend,Top*%
%TF.FilePolarity,Positive*%
%FSLAX46Y46*%
G04 Gerber Fmt 4.6, Leading zero omitted, Abs format (unit mm)*
G04 Created by KiCad (PCBNEW 10.0.3) date 2026-06-07 13:31:44*
%MOMM*%
%LPD*%
G01*
G04 APERTURE LIST*
%ADD10C,0.200000*%
%ADD11C,0.250000*%
%ADD12C,0.150000*%
%ADD13C,0.120000*%
%ADD14C,0.127000*%
G04 APERTURE END LIST*
D10*
X159111600Y-69820041D02*
X159149695Y-69705755D01*
X159149695Y-69705755D02*
X159149695Y-69515279D01*
X159149695Y-69515279D02*
X159111600Y-69439088D01*
X159111600Y-69439088D02*
X159073504Y-69400993D01*
X159073504Y-69400993D02*
X158997314Y-69362898D01*
X158997314Y-69362898D02*
X158921123Y-69362898D01*
X158921123Y-69362898D02*
X158844933Y-69400993D01*
X158844933Y-69400993D02*
X158806838Y-69439088D01*
X158806838Y-69439088D02*
X158768742Y-69515279D01*
X158768742Y-69515279D02*
X158730647Y-69667660D01*
X158730647Y-69667660D02*
X158692552Y-69743850D01*
X158692552Y-69743850D02*
X158654457Y-69781945D01*
X158654457Y-69781945D02*
X158578266Y-69820041D01*
X158578266Y-69820041D02*
X158502076Y-69820041D01*
X158502076Y-69820041D02*
X158425885Y-69781945D01*
X158425885Y-69781945D02*
X158387790Y-69743850D01*
X158387790Y-69743850D02*
X158349695Y-69667660D01*
X158349695Y-69667660D02*
X158349695Y-69477183D01*
X158349695Y-69477183D02*
X158387790Y-69362898D01*
X159073504Y-68562897D02*
X159111600Y-68600993D01*
X159111600Y-68600993D02*
X159149695Y-68715278D01*
X159149695Y-68715278D02*
X159149695Y-68791469D01*
X159149695Y-68791469D02*
X159111600Y-68905755D01*
X159111600Y-68905755D02*
X159035409Y-68981945D01*
X159035409Y-68981945D02*
X158959219Y-69020040D01*
X158959219Y-69020040D02*
X158806838Y-69058136D01*
X158806838Y-69058136D02*
X158692552Y-69058136D01*
X158692552Y-69058136D02*
X158540171Y-69020040D01*
X158540171Y-69020040D02*
X158463980Y-68981945D01*
X158463980Y-68981945D02*
X158387790Y-68905755D01*
X158387790Y-68905755D02*
X158349695Y-68791469D01*
X158349695Y-68791469D02*
X158349695Y-68715278D01*
X158349695Y-68715278D02*
X158387790Y-68600993D01*
X158387790Y-68600993D02*
X158425885Y-68562897D01*
X159149695Y-67839088D02*
X159149695Y-68220040D01*
X159149695Y-68220040D02*
X158349695Y-68220040D01*
X159111600Y-72614041D02*
X159149695Y-72499755D01*
X159149695Y-72499755D02*
X159149695Y-72309279D01*
X159149695Y-72309279D02*
X159111600Y-72233088D01*
X159111600Y-72233088D02*
X159073504Y-72194993D01*
X159073504Y-72194993D02*
X158997314Y-72156898D01*
X158997314Y-72156898D02*
X158921123Y-72156898D01*
X158921123Y-72156898D02*
X158844933Y-72194993D01*
X158844933Y-72194993D02*
X158806838Y-72233088D01*
X158806838Y-72233088D02*
X158768742Y-72309279D01*
X158768742Y-72309279D02*
X158730647Y-72461660D01*
X158730647Y-72461660D02*
X158692552Y-72537850D01*
X158692552Y-72537850D02*
X158654457Y-72575945D01*
X158654457Y-72575945D02*
X158578266Y-72614041D01*
X158578266Y-72614041D02*
X158502076Y-72614041D01*
X158502076Y-72614041D02*
X158425885Y-72575945D01*
X158425885Y-72575945D02*
X158387790Y-72537850D01*
X158387790Y-72537850D02*
X158349695Y-72461660D01*
X158349695Y-72461660D02*
X158349695Y-72271183D01*
X158349695Y-72271183D02*
X158387790Y-72156898D01*
X159149695Y-71814040D02*
X158349695Y-71814040D01*
X158349695Y-71814040D02*
X158349695Y-71623564D01*
X158349695Y-71623564D02*
X158387790Y-71509278D01*
X158387790Y-71509278D02*
X158463980Y-71433088D01*
X158463980Y-71433088D02*
X158540171Y-71394993D01*
X158540171Y-71394993D02*
X158692552Y-71356897D01*
X158692552Y-71356897D02*
X158806838Y-71356897D01*
X158806838Y-71356897D02*
X158959219Y-71394993D01*
X158959219Y-71394993D02*
X159035409Y-71433088D01*
X159035409Y-71433088D02*
X159111600Y-71509278D01*
X159111600Y-71509278D02*
X159149695Y-71623564D01*
X159149695Y-71623564D02*
X159149695Y-71814040D01*
X158921123Y-71052136D02*
X158921123Y-70671183D01*
X159149695Y-71128326D02*
X158349695Y-70861659D01*
X158349695Y-70861659D02*
X159149695Y-70594993D01*
X158349695Y-75192136D02*
X158349695Y-74696898D01*
X158349695Y-74696898D02*
X158654457Y-74963564D01*
X158654457Y-74963564D02*
X158654457Y-74849279D01*
X158654457Y-74849279D02*
X158692552Y-74773088D01*
X158692552Y-74773088D02*
X158730647Y-74734993D01*
X158730647Y-74734993D02*
X158806838Y-74696898D01*
X158806838Y-74696898D02*
X158997314Y-74696898D01*
X158997314Y-74696898D02*
X159073504Y-74734993D01*
X159073504Y-74734993D02*
X159111600Y-74773088D01*
X159111600Y-74773088D02*
X159149695Y-74849279D01*
X159149695Y-74849279D02*
X159149695Y-75077850D01*
X159149695Y-75077850D02*
X159111600Y-75154041D01*
X159111600Y-75154041D02*
X159073504Y-75192136D01*
X158349695Y-74468326D02*
X159149695Y-74201659D01*
X159149695Y-74201659D02*
X158349695Y-73934993D01*
X158349695Y-73744517D02*
X158349695Y-73249279D01*
X158349695Y-73249279D02*
X158654457Y-73515945D01*
X158654457Y-73515945D02*
X158654457Y-73401660D01*
X158654457Y-73401660D02*
X158692552Y-73325469D01*
X158692552Y-73325469D02*
X158730647Y-73287374D01*
X158730647Y-73287374D02*
X158806838Y-73249279D01*
X158806838Y-73249279D02*
X158997314Y-73249279D01*
X158997314Y-73249279D02*
X159073504Y-73287374D01*
X159073504Y-73287374D02*
X159111600Y-73325469D01*
X159111600Y-73325469D02*
X159149695Y-73401660D01*
X159149695Y-73401660D02*
X159149695Y-73630231D01*
X159149695Y-73630231D02*
X159111600Y-73706422D01*
X159111600Y-73706422D02*
X159073504Y-73744517D01*
X158921123Y-77186041D02*
X158921123Y-76805088D01*
X159149695Y-77262231D02*
X158349695Y-76995564D01*
X158349695Y-76995564D02*
X159149695Y-76728898D01*
X158692552Y-76347946D02*
X158654457Y-76424136D01*
X158654457Y-76424136D02*
X158616361Y-76462231D01*
X158616361Y-76462231D02*
X158540171Y-76500327D01*
X158540171Y-76500327D02*
X158502076Y-76500327D01*
X158502076Y-76500327D02*
X158425885Y-76462231D01*
X158425885Y-76462231D02*
X158387790Y-76424136D01*
X158387790Y-76424136D02*
X158349695Y-76347946D01*
X158349695Y-76347946D02*
X158349695Y-76195565D01*
X158349695Y-76195565D02*
X158387790Y-76119374D01*
X158387790Y-76119374D02*
X158425885Y-76081279D01*
X158425885Y-76081279D02*
X158502076Y-76043184D01*
X158502076Y-76043184D02*
X158540171Y-76043184D01*
X158540171Y-76043184D02*
X158616361Y-76081279D01*
X158616361Y-76081279D02*
X158654457Y-76119374D01*
X158654457Y-76119374D02*
X158692552Y-76195565D01*
X158692552Y-76195565D02*
X158692552Y-76347946D01*
X158692552Y-76347946D02*
X158730647Y-76424136D01*
X158730647Y-76424136D02*
X158768742Y-76462231D01*
X158768742Y-76462231D02*
X158844933Y-76500327D01*
X158844933Y-76500327D02*
X158997314Y-76500327D01*
X158997314Y-76500327D02*
X159073504Y-76462231D01*
X159073504Y-76462231D02*
X159111600Y-76424136D01*
X159111600Y-76424136D02*
X159149695Y-76347946D01*
X159149695Y-76347946D02*
X159149695Y-76195565D01*
X159149695Y-76195565D02*
X159111600Y-76119374D01*
X159111600Y-76119374D02*
X159073504Y-76081279D01*
X159073504Y-76081279D02*
X158997314Y-76043184D01*
X158997314Y-76043184D02*
X158844933Y-76043184D01*
X158844933Y-76043184D02*
X158768742Y-76081279D01*
X158768742Y-76081279D02*
X158730647Y-76119374D01*
X158730647Y-76119374D02*
X158692552Y-76195565D01*
X158921123Y-79726041D02*
X158921123Y-79345088D01*
X159149695Y-79802231D02*
X158349695Y-79535564D01*
X158349695Y-79535564D02*
X159149695Y-79268898D01*
X158349695Y-78659374D02*
X158349695Y-78811755D01*
X158349695Y-78811755D02*
X158387790Y-78887946D01*
X158387790Y-78887946D02*
X158425885Y-78926041D01*
X158425885Y-78926041D02*
X158540171Y-79002231D01*
X158540171Y-79002231D02*
X158692552Y-79040327D01*
X158692552Y-79040327D02*
X158997314Y-79040327D01*
X158997314Y-79040327D02*
X159073504Y-79002231D01*
X159073504Y-79002231D02*
X159111600Y-78964136D01*
X159111600Y-78964136D02*
X159149695Y-78887946D01*
X159149695Y-78887946D02*
X159149695Y-78735565D01*
X159149695Y-78735565D02*
X159111600Y-78659374D01*
X159111600Y-78659374D02*
X159073504Y-78621279D01*
X159073504Y-78621279D02*
X158997314Y-78583184D01*
X158997314Y-78583184D02*
X158806838Y-78583184D01*
X158806838Y-78583184D02*
X158730647Y-78621279D01*
X158730647Y-78621279D02*
X158692552Y-78659374D01*
X158692552Y-78659374D02*
X158654457Y-78735565D01*
X158654457Y-78735565D02*
X158654457Y-78887946D01*
X158654457Y-78887946D02*
X158692552Y-78964136D01*
X158692552Y-78964136D02*
X158730647Y-79002231D01*
X158730647Y-79002231D02*
X158806838Y-79040327D01*
X158921123Y-82266041D02*
X158921123Y-81885088D01*
X159149695Y-82342231D02*
X158349695Y-82075564D01*
X158349695Y-82075564D02*
X159149695Y-81808898D01*
X158349695Y-81199374D02*
X158349695Y-81351755D01*
X158349695Y-81351755D02*
X158387790Y-81427946D01*
X158387790Y-81427946D02*
X158425885Y-81466041D01*
X158425885Y-81466041D02*
X158540171Y-81542231D01*
X158540171Y-81542231D02*
X158692552Y-81580327D01*
X158692552Y-81580327D02*
X158997314Y-81580327D01*
X158997314Y-81580327D02*
X159073504Y-81542231D01*
X159073504Y-81542231D02*
X159111600Y-81504136D01*
X159111600Y-81504136D02*
X159149695Y-81427946D01*
X159149695Y-81427946D02*
X159149695Y-81275565D01*
X159149695Y-81275565D02*
X159111600Y-81199374D01*
X159111600Y-81199374D02*
X159073504Y-81161279D01*
X159073504Y-81161279D02*
X158997314Y-81123184D01*
X158997314Y-81123184D02*
X158806838Y-81123184D01*
X158806838Y-81123184D02*
X158730647Y-81161279D01*
X158730647Y-81161279D02*
X158692552Y-81199374D01*
X158692552Y-81199374D02*
X158654457Y-81275565D01*
X158654457Y-81275565D02*
X158654457Y-81427946D01*
X158654457Y-81427946D02*
X158692552Y-81504136D01*
X158692552Y-81504136D02*
X158730647Y-81542231D01*
X158730647Y-81542231D02*
X158806838Y-81580327D01*
X158349695Y-84386993D02*
X158349695Y-84767945D01*
X158349695Y-84767945D02*
X158730647Y-84806041D01*
X158730647Y-84806041D02*
X158692552Y-84767945D01*
X158692552Y-84767945D02*
X158654457Y-84691755D01*
X158654457Y-84691755D02*
X158654457Y-84501279D01*
X158654457Y-84501279D02*
X158692552Y-84425088D01*
X158692552Y-84425088D02*
X158730647Y-84386993D01*
X158730647Y-84386993D02*
X158806838Y-84348898D01*
X158806838Y-84348898D02*
X158997314Y-84348898D01*
X158997314Y-84348898D02*
X159073504Y-84386993D01*
X159073504Y-84386993D02*
X159111600Y-84425088D01*
X159111600Y-84425088D02*
X159149695Y-84501279D01*
X159149695Y-84501279D02*
X159149695Y-84691755D01*
X159149695Y-84691755D02*
X159111600Y-84767945D01*
X159111600Y-84767945D02*
X159073504Y-84806041D01*
X158349695Y-84120326D02*
X159149695Y-83853659D01*
X159149695Y-83853659D02*
X158349695Y-83586993D01*
X158387790Y-87650898D02*
X158349695Y-87727088D01*
X158349695Y-87727088D02*
X158349695Y-87841374D01*
X158349695Y-87841374D02*
X158387790Y-87955660D01*
X158387790Y-87955660D02*
X158463980Y-88031850D01*
X158463980Y-88031850D02*
X158540171Y-88069945D01*
X158540171Y-88069945D02*
X158692552Y-88108041D01*
X158692552Y-88108041D02*
X158806838Y-88108041D01*
X158806838Y-88108041D02*
X158959219Y-88069945D01*
X158959219Y-88069945D02*
X159035409Y-88031850D01*
X159035409Y-88031850D02*
X159111600Y-87955660D01*
X159111600Y-87955660D02*
X159149695Y-87841374D01*
X159149695Y-87841374D02*
X159149695Y-87765183D01*
X159149695Y-87765183D02*
X159111600Y-87650898D01*
X159111600Y-87650898D02*
X159073504Y-87612802D01*
X159073504Y-87612802D02*
X158806838Y-87612802D01*
X158806838Y-87612802D02*
X158806838Y-87765183D01*
X159149695Y-87269945D02*
X158349695Y-87269945D01*
X158349695Y-87269945D02*
X159149695Y-86812802D01*
X159149695Y-86812802D02*
X158349695Y-86812802D01*
X159149695Y-86431850D02*
X158349695Y-86431850D01*
X158349695Y-86431850D02*
X158349695Y-86241374D01*
X158349695Y-86241374D02*
X158387790Y-86127088D01*
X158387790Y-86127088D02*
X158463980Y-86050898D01*
X158463980Y-86050898D02*
X158540171Y-86012803D01*
X158540171Y-86012803D02*
X158692552Y-85974707D01*
X158692552Y-85974707D02*
X158806838Y-85974707D01*
X158806838Y-85974707D02*
X158959219Y-86012803D01*
X158959219Y-86012803D02*
X159035409Y-86050898D01*
X159035409Y-86050898D02*
X159111600Y-86127088D01*
X159111600Y-86127088D02*
X159149695Y-86241374D01*
X159149695Y-86241374D02*
X159149695Y-86431850D01*
D11*
X115004187Y-52464343D02*
X115004187Y-51664343D01*
X115004187Y-51778629D02*
X115061330Y-51721486D01*
X115061330Y-51721486D02*
X115175615Y-51664343D01*
X115175615Y-51664343D02*
X115347044Y-51664343D01*
X115347044Y-51664343D02*
X115461330Y-51721486D01*
X115461330Y-51721486D02*
X115518473Y-51835772D01*
X115518473Y-51835772D02*
X115518473Y-52464343D01*
X115518473Y-51835772D02*
X115575615Y-51721486D01*
X115575615Y-51721486D02*
X115689901Y-51664343D01*
X115689901Y-51664343D02*
X115861330Y-51664343D01*
X115861330Y-51664343D02*
X115975615Y-51721486D01*
X115975615Y-51721486D02*
X116032758Y-51835772D01*
X116032758Y-51835772D02*
X116032758Y-52464343D01*
X116775615Y-52464343D02*
X116661330Y-52407201D01*
X116661330Y-52407201D02*
X116604187Y-52350058D01*
X116604187Y-52350058D02*
X116547044Y-52235772D01*
X116547044Y-52235772D02*
X116547044Y-51892915D01*
X116547044Y-51892915D02*
X116604187Y-51778629D01*
X116604187Y-51778629D02*
X116661330Y-51721486D01*
X116661330Y-51721486D02*
X116775615Y-51664343D01*
X116775615Y-51664343D02*
X116947044Y-51664343D01*
X116947044Y-51664343D02*
X117061330Y-51721486D01*
X117061330Y-51721486D02*
X117118473Y-51778629D01*
X117118473Y-51778629D02*
X117175615Y-51892915D01*
X117175615Y-51892915D02*
X117175615Y-52235772D01*
X117175615Y-52235772D02*
X117118473Y-52350058D01*
X117118473Y-52350058D02*
X117061330Y-52407201D01*
X117061330Y-52407201D02*
X116947044Y-52464343D01*
X116947044Y-52464343D02*
X116775615Y-52464343D01*
X117575615Y-51664343D02*
X117861329Y-52464343D01*
X117861329Y-52464343D02*
X118147044Y-51664343D01*
X119061330Y-52407201D02*
X118947044Y-52464343D01*
X118947044Y-52464343D02*
X118718473Y-52464343D01*
X118718473Y-52464343D02*
X118604187Y-52407201D01*
X118604187Y-52407201D02*
X118547044Y-52292915D01*
X118547044Y-52292915D02*
X118547044Y-51835772D01*
X118547044Y-51835772D02*
X118604187Y-51721486D01*
X118604187Y-51721486D02*
X118718473Y-51664343D01*
X118718473Y-51664343D02*
X118947044Y-51664343D01*
X118947044Y-51664343D02*
X119061330Y-51721486D01*
X119061330Y-51721486D02*
X119118473Y-51835772D01*
X119118473Y-51835772D02*
X119118473Y-51950058D01*
X119118473Y-51950058D02*
X118547044Y-52064343D01*
X119861329Y-51264343D02*
X120089901Y-51264343D01*
X120089901Y-51264343D02*
X120204186Y-51321486D01*
X120204186Y-51321486D02*
X120318472Y-51435772D01*
X120318472Y-51435772D02*
X120375615Y-51664343D01*
X120375615Y-51664343D02*
X120375615Y-52064343D01*
X120375615Y-52064343D02*
X120318472Y-52292915D01*
X120318472Y-52292915D02*
X120204186Y-52407201D01*
X120204186Y-52407201D02*
X120089901Y-52464343D01*
X120089901Y-52464343D02*
X119861329Y-52464343D01*
X119861329Y-52464343D02*
X119747044Y-52407201D01*
X119747044Y-52407201D02*
X119632758Y-52292915D01*
X119632758Y-52292915D02*
X119575615Y-52064343D01*
X119575615Y-52064343D02*
X119575615Y-51664343D01*
X119575615Y-51664343D02*
X119632758Y-51435772D01*
X119632758Y-51435772D02*
X119747044Y-51321486D01*
X119747044Y-51321486D02*
X119861329Y-51264343D01*
X120889901Y-52464343D02*
X120889901Y-51664343D01*
X120889901Y-51778629D02*
X120947044Y-51721486D01*
X120947044Y-51721486D02*
X121061329Y-51664343D01*
X121061329Y-51664343D02*
X121232758Y-51664343D01*
X121232758Y-51664343D02*
X121347044Y-51721486D01*
X121347044Y-51721486D02*
X121404187Y-51835772D01*
X121404187Y-51835772D02*
X121404187Y-52464343D01*
X121404187Y-51835772D02*
X121461329Y-51721486D01*
X121461329Y-51721486D02*
X121575615Y-51664343D01*
X121575615Y-51664343D02*
X121747044Y-51664343D01*
X121747044Y-51664343D02*
X121861329Y-51721486D01*
X121861329Y-51721486D02*
X121918472Y-51835772D01*
X121918472Y-51835772D02*
X121918472Y-52464343D01*
X122947044Y-52407201D02*
X122832758Y-52464343D01*
X122832758Y-52464343D02*
X122604187Y-52464343D01*
X122604187Y-52464343D02*
X122489901Y-52407201D01*
X122489901Y-52407201D02*
X122432758Y-52292915D01*
X122432758Y-52292915D02*
X122432758Y-51835772D01*
X122432758Y-51835772D02*
X122489901Y-51721486D01*
X122489901Y-51721486D02*
X122604187Y-51664343D01*
X122604187Y-51664343D02*
X122832758Y-51664343D01*
X122832758Y-51664343D02*
X122947044Y-51721486D01*
X122947044Y-51721486D02*
X123004187Y-51835772D01*
X123004187Y-51835772D02*
X123004187Y-51950058D01*
X123004187Y-51950058D02*
X122432758Y-52064343D01*
X123347043Y-51664343D02*
X123804186Y-51664343D01*
X123518472Y-51264343D02*
X123518472Y-52292915D01*
X123518472Y-52292915D02*
X123575615Y-52407201D01*
X123575615Y-52407201D02*
X123689900Y-52464343D01*
X123689900Y-52464343D02*
X123804186Y-52464343D01*
X124661329Y-52407201D02*
X124547043Y-52464343D01*
X124547043Y-52464343D02*
X124318472Y-52464343D01*
X124318472Y-52464343D02*
X124204186Y-52407201D01*
X124204186Y-52407201D02*
X124147043Y-52292915D01*
X124147043Y-52292915D02*
X124147043Y-51835772D01*
X124147043Y-51835772D02*
X124204186Y-51721486D01*
X124204186Y-51721486D02*
X124318472Y-51664343D01*
X124318472Y-51664343D02*
X124547043Y-51664343D01*
X124547043Y-51664343D02*
X124661329Y-51721486D01*
X124661329Y-51721486D02*
X124718472Y-51835772D01*
X124718472Y-51835772D02*
X124718472Y-51950058D01*
X124718472Y-51950058D02*
X124147043Y-52064343D01*
X125232757Y-52464343D02*
X125232757Y-51664343D01*
X125232757Y-51892915D02*
X125289900Y-51778629D01*
X125289900Y-51778629D02*
X125347043Y-51721486D01*
X125347043Y-51721486D02*
X125461328Y-51664343D01*
X125461328Y-51664343D02*
X125575614Y-51664343D01*
X126832757Y-51264343D02*
X126832757Y-51492915D01*
X127289900Y-51264343D02*
X127289900Y-51492915D01*
X127747043Y-52407201D02*
X127918472Y-52464343D01*
X127918472Y-52464343D02*
X128204186Y-52464343D01*
X128204186Y-52464343D02*
X128318472Y-52407201D01*
X128318472Y-52407201D02*
X128375614Y-52350058D01*
X128375614Y-52350058D02*
X128432757Y-52235772D01*
X128432757Y-52235772D02*
X128432757Y-52121486D01*
X128432757Y-52121486D02*
X128375614Y-52007201D01*
X128375614Y-52007201D02*
X128318472Y-51950058D01*
X128318472Y-51950058D02*
X128204186Y-51892915D01*
X128204186Y-51892915D02*
X127975614Y-51835772D01*
X127975614Y-51835772D02*
X127861329Y-51778629D01*
X127861329Y-51778629D02*
X127804186Y-51721486D01*
X127804186Y-51721486D02*
X127747043Y-51607201D01*
X127747043Y-51607201D02*
X127747043Y-51492915D01*
X127747043Y-51492915D02*
X127804186Y-51378629D01*
X127804186Y-51378629D02*
X127861329Y-51321486D01*
X127861329Y-51321486D02*
X127975614Y-51264343D01*
X127975614Y-51264343D02*
X128261329Y-51264343D01*
X128261329Y-51264343D02*
X128432757Y-51321486D01*
X128775614Y-51664343D02*
X129232757Y-51664343D01*
X128947043Y-51264343D02*
X128947043Y-52292915D01*
X128947043Y-52292915D02*
X129004186Y-52407201D01*
X129004186Y-52407201D02*
X129118471Y-52464343D01*
X129118471Y-52464343D02*
X129232757Y-52464343D01*
X129632757Y-52464343D02*
X129632757Y-51664343D01*
X129632757Y-51264343D02*
X129575614Y-51321486D01*
X129575614Y-51321486D02*
X129632757Y-51378629D01*
X129632757Y-51378629D02*
X129689900Y-51321486D01*
X129689900Y-51321486D02*
X129632757Y-51264343D01*
X129632757Y-51264343D02*
X129632757Y-51378629D01*
X130375614Y-52464343D02*
X130261329Y-52407201D01*
X130261329Y-52407201D02*
X130204186Y-52292915D01*
X130204186Y-52292915D02*
X130204186Y-51264343D01*
X131004185Y-52464343D02*
X130889900Y-52407201D01*
X130889900Y-52407201D02*
X130832757Y-52292915D01*
X130832757Y-52292915D02*
X130832757Y-51264343D01*
X132375614Y-52464343D02*
X132375614Y-51264343D01*
X133061328Y-52464343D02*
X132547042Y-51778629D01*
X133061328Y-51264343D02*
X132375614Y-51950058D01*
X133575614Y-52464343D02*
X133575614Y-51664343D01*
X133575614Y-51264343D02*
X133518471Y-51321486D01*
X133518471Y-51321486D02*
X133575614Y-51378629D01*
X133575614Y-51378629D02*
X133632757Y-51321486D01*
X133632757Y-51321486D02*
X133575614Y-51264343D01*
X133575614Y-51264343D02*
X133575614Y-51378629D01*
X134661329Y-52407201D02*
X134547043Y-52464343D01*
X134547043Y-52464343D02*
X134318471Y-52464343D01*
X134318471Y-52464343D02*
X134204186Y-52407201D01*
X134204186Y-52407201D02*
X134147043Y-52350058D01*
X134147043Y-52350058D02*
X134089900Y-52235772D01*
X134089900Y-52235772D02*
X134089900Y-51892915D01*
X134089900Y-51892915D02*
X134147043Y-51778629D01*
X134147043Y-51778629D02*
X134204186Y-51721486D01*
X134204186Y-51721486D02*
X134318471Y-51664343D01*
X134318471Y-51664343D02*
X134547043Y-51664343D01*
X134547043Y-51664343D02*
X134661329Y-51721486D01*
X135175614Y-52464343D02*
X135175614Y-51264343D01*
X135289900Y-52007201D02*
X135632757Y-52464343D01*
X135632757Y-51664343D02*
X135175614Y-52121486D01*
X136147043Y-52464343D02*
X136147043Y-51664343D01*
X136147043Y-51264343D02*
X136089900Y-51321486D01*
X136089900Y-51321486D02*
X136147043Y-51378629D01*
X136147043Y-51378629D02*
X136204186Y-51321486D01*
X136204186Y-51321486D02*
X136147043Y-51264343D01*
X136147043Y-51264343D02*
X136147043Y-51378629D01*
X136718472Y-51664343D02*
X136718472Y-52464343D01*
X136718472Y-51778629D02*
X136775615Y-51721486D01*
X136775615Y-51721486D02*
X136889900Y-51664343D01*
X136889900Y-51664343D02*
X137061329Y-51664343D01*
X137061329Y-51664343D02*
X137175615Y-51721486D01*
X137175615Y-51721486D02*
X137232758Y-51835772D01*
X137232758Y-51835772D02*
X137232758Y-52464343D01*
X137747043Y-51264343D02*
X137747043Y-51492915D01*
X138204186Y-51264343D02*
X138204186Y-51492915D01*
X114889901Y-53596276D02*
X115175615Y-54396276D01*
X115175615Y-54396276D02*
X115461330Y-53596276D01*
X116147044Y-53196276D02*
X116261330Y-53196276D01*
X116261330Y-53196276D02*
X116375616Y-53253419D01*
X116375616Y-53253419D02*
X116432759Y-53310562D01*
X116432759Y-53310562D02*
X116489901Y-53424848D01*
X116489901Y-53424848D02*
X116547044Y-53653419D01*
X116547044Y-53653419D02*
X116547044Y-53939134D01*
X116547044Y-53939134D02*
X116489901Y-54167705D01*
X116489901Y-54167705D02*
X116432759Y-54281991D01*
X116432759Y-54281991D02*
X116375616Y-54339134D01*
X116375616Y-54339134D02*
X116261330Y-54396276D01*
X116261330Y-54396276D02*
X116147044Y-54396276D01*
X116147044Y-54396276D02*
X116032759Y-54339134D01*
X116032759Y-54339134D02*
X115975616Y-54281991D01*
X115975616Y-54281991D02*
X115918473Y-54167705D01*
X115918473Y-54167705D02*
X115861330Y-53939134D01*
X115861330Y-53939134D02*
X115861330Y-53653419D01*
X115861330Y-53653419D02*
X115918473Y-53424848D01*
X115918473Y-53424848D02*
X115975616Y-53310562D01*
X115975616Y-53310562D02*
X116032759Y-53253419D01*
X116032759Y-53253419D02*
X116147044Y-53196276D01*
X117061330Y-54281991D02*
X117118473Y-54339134D01*
X117118473Y-54339134D02*
X117061330Y-54396276D01*
X117061330Y-54396276D02*
X117004187Y-54339134D01*
X117004187Y-54339134D02*
X117061330Y-54281991D01*
X117061330Y-54281991D02*
X117061330Y-54396276D01*
X118261330Y-54396276D02*
X117575616Y-54396276D01*
X117918473Y-54396276D02*
X117918473Y-53196276D01*
X117918473Y-53196276D02*
X117804187Y-53367705D01*
X117804187Y-53367705D02*
X117689902Y-53481991D01*
X117689902Y-53481991D02*
X117575616Y-53539134D01*
X119632759Y-54053419D02*
X120204188Y-54053419D01*
X119518473Y-54396276D02*
X119918473Y-53196276D01*
X119918473Y-53196276D02*
X120318473Y-54396276D01*
X120889901Y-54396276D02*
X120775616Y-54339134D01*
X120775616Y-54339134D02*
X120718473Y-54224848D01*
X120718473Y-54224848D02*
X120718473Y-53196276D01*
X121347044Y-53596276D02*
X121347044Y-54796276D01*
X121347044Y-53653419D02*
X121461330Y-53596276D01*
X121461330Y-53596276D02*
X121689901Y-53596276D01*
X121689901Y-53596276D02*
X121804187Y-53653419D01*
X121804187Y-53653419D02*
X121861330Y-53710562D01*
X121861330Y-53710562D02*
X121918472Y-53824848D01*
X121918472Y-53824848D02*
X121918472Y-54167705D01*
X121918472Y-54167705D02*
X121861330Y-54281991D01*
X121861330Y-54281991D02*
X121804187Y-54339134D01*
X121804187Y-54339134D02*
X121689901Y-54396276D01*
X121689901Y-54396276D02*
X121461330Y-54396276D01*
X121461330Y-54396276D02*
X121347044Y-54339134D01*
X122432758Y-54396276D02*
X122432758Y-53196276D01*
X122947044Y-54396276D02*
X122947044Y-53767705D01*
X122947044Y-53767705D02*
X122889901Y-53653419D01*
X122889901Y-53653419D02*
X122775615Y-53596276D01*
X122775615Y-53596276D02*
X122604186Y-53596276D01*
X122604186Y-53596276D02*
X122489901Y-53653419D01*
X122489901Y-53653419D02*
X122432758Y-53710562D01*
X124032758Y-54396276D02*
X124032758Y-53767705D01*
X124032758Y-53767705D02*
X123975615Y-53653419D01*
X123975615Y-53653419D02*
X123861329Y-53596276D01*
X123861329Y-53596276D02*
X123632758Y-53596276D01*
X123632758Y-53596276D02*
X123518472Y-53653419D01*
X124032758Y-54339134D02*
X123918472Y-54396276D01*
X123918472Y-54396276D02*
X123632758Y-54396276D01*
X123632758Y-54396276D02*
X123518472Y-54339134D01*
X123518472Y-54339134D02*
X123461329Y-54224848D01*
X123461329Y-54224848D02*
X123461329Y-54110562D01*
X123461329Y-54110562D02*
X123518472Y-53996276D01*
X123518472Y-53996276D02*
X123632758Y-53939134D01*
X123632758Y-53939134D02*
X123918472Y-53939134D01*
X123918472Y-53939134D02*
X124032758Y-53881991D01*
X125518472Y-54396276D02*
X125518472Y-53196276D01*
X125518472Y-53196276D02*
X125975615Y-53196276D01*
X125975615Y-53196276D02*
X126089900Y-53253419D01*
X126089900Y-53253419D02*
X126147043Y-53310562D01*
X126147043Y-53310562D02*
X126204186Y-53424848D01*
X126204186Y-53424848D02*
X126204186Y-53596276D01*
X126204186Y-53596276D02*
X126147043Y-53710562D01*
X126147043Y-53710562D02*
X126089900Y-53767705D01*
X126089900Y-53767705D02*
X125975615Y-53824848D01*
X125975615Y-53824848D02*
X125518472Y-53824848D01*
X126718472Y-54396276D02*
X126718472Y-53596276D01*
X126718472Y-53824848D02*
X126775615Y-53710562D01*
X126775615Y-53710562D02*
X126832758Y-53653419D01*
X126832758Y-53653419D02*
X126947043Y-53596276D01*
X126947043Y-53596276D02*
X127061329Y-53596276D01*
X127632757Y-54396276D02*
X127518472Y-54339134D01*
X127518472Y-54339134D02*
X127461329Y-54281991D01*
X127461329Y-54281991D02*
X127404186Y-54167705D01*
X127404186Y-54167705D02*
X127404186Y-53824848D01*
X127404186Y-53824848D02*
X127461329Y-53710562D01*
X127461329Y-53710562D02*
X127518472Y-53653419D01*
X127518472Y-53653419D02*
X127632757Y-53596276D01*
X127632757Y-53596276D02*
X127804186Y-53596276D01*
X127804186Y-53596276D02*
X127918472Y-53653419D01*
X127918472Y-53653419D02*
X127975615Y-53710562D01*
X127975615Y-53710562D02*
X128032757Y-53824848D01*
X128032757Y-53824848D02*
X128032757Y-54167705D01*
X128032757Y-54167705D02*
X127975615Y-54281991D01*
X127975615Y-54281991D02*
X127918472Y-54339134D01*
X127918472Y-54339134D02*
X127804186Y-54396276D01*
X127804186Y-54396276D02*
X127632757Y-54396276D01*
X128375614Y-53596276D02*
X128832757Y-53596276D01*
X128547043Y-53196276D02*
X128547043Y-54224848D01*
X128547043Y-54224848D02*
X128604186Y-54339134D01*
X128604186Y-54339134D02*
X128718471Y-54396276D01*
X128718471Y-54396276D02*
X128832757Y-54396276D01*
X129404185Y-54396276D02*
X129289900Y-54339134D01*
X129289900Y-54339134D02*
X129232757Y-54281991D01*
X129232757Y-54281991D02*
X129175614Y-54167705D01*
X129175614Y-54167705D02*
X129175614Y-53824848D01*
X129175614Y-53824848D02*
X129232757Y-53710562D01*
X129232757Y-53710562D02*
X129289900Y-53653419D01*
X129289900Y-53653419D02*
X129404185Y-53596276D01*
X129404185Y-53596276D02*
X129575614Y-53596276D01*
X129575614Y-53596276D02*
X129689900Y-53653419D01*
X129689900Y-53653419D02*
X129747043Y-53710562D01*
X129747043Y-53710562D02*
X129804185Y-53824848D01*
X129804185Y-53824848D02*
X129804185Y-54167705D01*
X129804185Y-54167705D02*
X129747043Y-54281991D01*
X129747043Y-54281991D02*
X129689900Y-54339134D01*
X129689900Y-54339134D02*
X129575614Y-54396276D01*
X129575614Y-54396276D02*
X129404185Y-54396276D01*
X130147042Y-53596276D02*
X130604185Y-53596276D01*
X130318471Y-53196276D02*
X130318471Y-54224848D01*
X130318471Y-54224848D02*
X130375614Y-54339134D01*
X130375614Y-54339134D02*
X130489899Y-54396276D01*
X130489899Y-54396276D02*
X130604185Y-54396276D01*
X130889899Y-53596276D02*
X131175613Y-54396276D01*
X131461328Y-53596276D02*
X131175613Y-54396276D01*
X131175613Y-54396276D02*
X131061328Y-54681991D01*
X131061328Y-54681991D02*
X131004185Y-54739134D01*
X131004185Y-54739134D02*
X130889899Y-54796276D01*
X131918471Y-53596276D02*
X131918471Y-54796276D01*
X131918471Y-53653419D02*
X132032757Y-53596276D01*
X132032757Y-53596276D02*
X132261328Y-53596276D01*
X132261328Y-53596276D02*
X132375614Y-53653419D01*
X132375614Y-53653419D02*
X132432757Y-53710562D01*
X132432757Y-53710562D02*
X132489899Y-53824848D01*
X132489899Y-53824848D02*
X132489899Y-54167705D01*
X132489899Y-54167705D02*
X132432757Y-54281991D01*
X132432757Y-54281991D02*
X132375614Y-54339134D01*
X132375614Y-54339134D02*
X132261328Y-54396276D01*
X132261328Y-54396276D02*
X132032757Y-54396276D01*
X132032757Y-54396276D02*
X131918471Y-54339134D01*
X133461328Y-54339134D02*
X133347042Y-54396276D01*
X133347042Y-54396276D02*
X133118471Y-54396276D01*
X133118471Y-54396276D02*
X133004185Y-54339134D01*
X133004185Y-54339134D02*
X132947042Y-54224848D01*
X132947042Y-54224848D02*
X132947042Y-53767705D01*
X132947042Y-53767705D02*
X133004185Y-53653419D01*
X133004185Y-53653419D02*
X133118471Y-53596276D01*
X133118471Y-53596276D02*
X133347042Y-53596276D01*
X133347042Y-53596276D02*
X133461328Y-53653419D01*
X133461328Y-53653419D02*
X133518471Y-53767705D01*
X133518471Y-53767705D02*
X133518471Y-53881991D01*
X133518471Y-53881991D02*
X132947042Y-53996276D01*
X115347044Y-55128209D02*
X115347044Y-55985352D01*
X115347044Y-55985352D02*
X115289901Y-56156781D01*
X115289901Y-56156781D02*
X115175615Y-56271067D01*
X115175615Y-56271067D02*
X115004187Y-56328209D01*
X115004187Y-56328209D02*
X114889901Y-56328209D01*
X116089901Y-56328209D02*
X115975616Y-56271067D01*
X115975616Y-56271067D02*
X115918473Y-56213924D01*
X115918473Y-56213924D02*
X115861330Y-56099638D01*
X115861330Y-56099638D02*
X115861330Y-55756781D01*
X115861330Y-55756781D02*
X115918473Y-55642495D01*
X115918473Y-55642495D02*
X115975616Y-55585352D01*
X115975616Y-55585352D02*
X116089901Y-55528209D01*
X116089901Y-55528209D02*
X116261330Y-55528209D01*
X116261330Y-55528209D02*
X116375616Y-55585352D01*
X116375616Y-55585352D02*
X116432759Y-55642495D01*
X116432759Y-55642495D02*
X116489901Y-55756781D01*
X116489901Y-55756781D02*
X116489901Y-56099638D01*
X116489901Y-56099638D02*
X116432759Y-56213924D01*
X116432759Y-56213924D02*
X116375616Y-56271067D01*
X116375616Y-56271067D02*
X116261330Y-56328209D01*
X116261330Y-56328209D02*
X116089901Y-56328209D01*
X117004187Y-56328209D02*
X117004187Y-55128209D01*
X117518473Y-56328209D02*
X117518473Y-55699638D01*
X117518473Y-55699638D02*
X117461330Y-55585352D01*
X117461330Y-55585352D02*
X117347044Y-55528209D01*
X117347044Y-55528209D02*
X117175615Y-55528209D01*
X117175615Y-55528209D02*
X117061330Y-55585352D01*
X117061330Y-55585352D02*
X117004187Y-55642495D01*
X118089901Y-55528209D02*
X118089901Y-56328209D01*
X118089901Y-55642495D02*
X118147044Y-55585352D01*
X118147044Y-55585352D02*
X118261329Y-55528209D01*
X118261329Y-55528209D02*
X118432758Y-55528209D01*
X118432758Y-55528209D02*
X118547044Y-55585352D01*
X118547044Y-55585352D02*
X118604187Y-55699638D01*
X118604187Y-55699638D02*
X118604187Y-56328209D01*
X120775615Y-56328209D02*
X120375615Y-55756781D01*
X120089901Y-56328209D02*
X120089901Y-55128209D01*
X120089901Y-55128209D02*
X120547044Y-55128209D01*
X120547044Y-55128209D02*
X120661329Y-55185352D01*
X120661329Y-55185352D02*
X120718472Y-55242495D01*
X120718472Y-55242495D02*
X120775615Y-55356781D01*
X120775615Y-55356781D02*
X120775615Y-55528209D01*
X120775615Y-55528209D02*
X120718472Y-55642495D01*
X120718472Y-55642495D02*
X120661329Y-55699638D01*
X120661329Y-55699638D02*
X120547044Y-55756781D01*
X120547044Y-55756781D02*
X120089901Y-55756781D01*
X121747044Y-56271067D02*
X121632758Y-56328209D01*
X121632758Y-56328209D02*
X121404187Y-56328209D01*
X121404187Y-56328209D02*
X121289901Y-56271067D01*
X121289901Y-56271067D02*
X121232758Y-56156781D01*
X121232758Y-56156781D02*
X121232758Y-55699638D01*
X121232758Y-55699638D02*
X121289901Y-55585352D01*
X121289901Y-55585352D02*
X121404187Y-55528209D01*
X121404187Y-55528209D02*
X121632758Y-55528209D01*
X121632758Y-55528209D02*
X121747044Y-55585352D01*
X121747044Y-55585352D02*
X121804187Y-55699638D01*
X121804187Y-55699638D02*
X121804187Y-55813924D01*
X121804187Y-55813924D02*
X121232758Y-55928209D01*
X122318472Y-56328209D02*
X122318472Y-55528209D01*
X122318472Y-55128209D02*
X122261329Y-55185352D01*
X122261329Y-55185352D02*
X122318472Y-55242495D01*
X122318472Y-55242495D02*
X122375615Y-55185352D01*
X122375615Y-55185352D02*
X122318472Y-55128209D01*
X122318472Y-55128209D02*
X122318472Y-55242495D01*
X122889901Y-55528209D02*
X122889901Y-56328209D01*
X122889901Y-55642495D02*
X122947044Y-55585352D01*
X122947044Y-55585352D02*
X123061329Y-55528209D01*
X123061329Y-55528209D02*
X123232758Y-55528209D01*
X123232758Y-55528209D02*
X123347044Y-55585352D01*
X123347044Y-55585352D02*
X123404187Y-55699638D01*
X123404187Y-55699638D02*
X123404187Y-56328209D01*
X124432758Y-56271067D02*
X124318472Y-56328209D01*
X124318472Y-56328209D02*
X124089901Y-56328209D01*
X124089901Y-56328209D02*
X123975615Y-56271067D01*
X123975615Y-56271067D02*
X123918472Y-56156781D01*
X123918472Y-56156781D02*
X123918472Y-55699638D01*
X123918472Y-55699638D02*
X123975615Y-55585352D01*
X123975615Y-55585352D02*
X124089901Y-55528209D01*
X124089901Y-55528209D02*
X124318472Y-55528209D01*
X124318472Y-55528209D02*
X124432758Y-55585352D01*
X124432758Y-55585352D02*
X124489901Y-55699638D01*
X124489901Y-55699638D02*
X124489901Y-55813924D01*
X124489901Y-55813924D02*
X123918472Y-55928209D01*
X127347044Y-55528209D02*
X127347044Y-56328209D01*
X127061329Y-55071067D02*
X126775615Y-55928209D01*
X126775615Y-55928209D02*
X127518472Y-55928209D01*
X128832758Y-55071067D02*
X127804186Y-56613924D01*
X129804186Y-55128209D02*
X129232758Y-55128209D01*
X129232758Y-55128209D02*
X129175615Y-55699638D01*
X129175615Y-55699638D02*
X129232758Y-55642495D01*
X129232758Y-55642495D02*
X129347044Y-55585352D01*
X129347044Y-55585352D02*
X129632758Y-55585352D01*
X129632758Y-55585352D02*
X129747044Y-55642495D01*
X129747044Y-55642495D02*
X129804186Y-55699638D01*
X129804186Y-55699638D02*
X129861329Y-55813924D01*
X129861329Y-55813924D02*
X129861329Y-56099638D01*
X129861329Y-56099638D02*
X129804186Y-56213924D01*
X129804186Y-56213924D02*
X129747044Y-56271067D01*
X129747044Y-56271067D02*
X129632758Y-56328209D01*
X129632758Y-56328209D02*
X129347044Y-56328209D01*
X129347044Y-56328209D02*
X129232758Y-56271067D01*
X129232758Y-56271067D02*
X129175615Y-56213924D01*
X131232758Y-55071067D02*
X130204186Y-56613924D01*
X131575615Y-55242495D02*
X131632758Y-55185352D01*
X131632758Y-55185352D02*
X131747044Y-55128209D01*
X131747044Y-55128209D02*
X132032758Y-55128209D01*
X132032758Y-55128209D02*
X132147044Y-55185352D01*
X132147044Y-55185352D02*
X132204186Y-55242495D01*
X132204186Y-55242495D02*
X132261329Y-55356781D01*
X132261329Y-55356781D02*
X132261329Y-55471067D01*
X132261329Y-55471067D02*
X132204186Y-55642495D01*
X132204186Y-55642495D02*
X131518472Y-56328209D01*
X131518472Y-56328209D02*
X132261329Y-56328209D01*
X133289901Y-55128209D02*
X133061329Y-55128209D01*
X133061329Y-55128209D02*
X132947043Y-55185352D01*
X132947043Y-55185352D02*
X132889901Y-55242495D01*
X132889901Y-55242495D02*
X132775615Y-55413924D01*
X132775615Y-55413924D02*
X132718472Y-55642495D01*
X132718472Y-55642495D02*
X132718472Y-56099638D01*
X132718472Y-56099638D02*
X132775615Y-56213924D01*
X132775615Y-56213924D02*
X132832758Y-56271067D01*
X132832758Y-56271067D02*
X132947043Y-56328209D01*
X132947043Y-56328209D02*
X133175615Y-56328209D01*
X133175615Y-56328209D02*
X133289901Y-56271067D01*
X133289901Y-56271067D02*
X133347043Y-56213924D01*
X133347043Y-56213924D02*
X133404186Y-56099638D01*
X133404186Y-56099638D02*
X133404186Y-55813924D01*
X133404186Y-55813924D02*
X133347043Y-55699638D01*
X133347043Y-55699638D02*
X133289901Y-55642495D01*
X133289901Y-55642495D02*
X133175615Y-55585352D01*
X133175615Y-55585352D02*
X132947043Y-55585352D01*
X132947043Y-55585352D02*
X132832758Y-55642495D01*
X132832758Y-55642495D02*
X132775615Y-55699638D01*
X132775615Y-55699638D02*
X132718472Y-55813924D01*
X114889901Y-57460142D02*
X115118473Y-58260142D01*
X115118473Y-58260142D02*
X115347044Y-57688714D01*
X115347044Y-57688714D02*
X115575615Y-58260142D01*
X115575615Y-58260142D02*
X115804187Y-57460142D01*
X116147044Y-57460142D02*
X116375616Y-58260142D01*
X116375616Y-58260142D02*
X116604187Y-57688714D01*
X116604187Y-57688714D02*
X116832758Y-58260142D01*
X116832758Y-58260142D02*
X117061330Y-57460142D01*
X117404187Y-57460142D02*
X117632759Y-58260142D01*
X117632759Y-58260142D02*
X117861330Y-57688714D01*
X117861330Y-57688714D02*
X118089901Y-58260142D01*
X118089901Y-58260142D02*
X118318473Y-57460142D01*
X118775616Y-58145857D02*
X118832759Y-58203000D01*
X118832759Y-58203000D02*
X118775616Y-58260142D01*
X118775616Y-58260142D02*
X118718473Y-58203000D01*
X118718473Y-58203000D02*
X118775616Y-58145857D01*
X118775616Y-58145857D02*
X118775616Y-58260142D01*
X119347045Y-58260142D02*
X119347045Y-57460142D01*
X119347045Y-57574428D02*
X119404188Y-57517285D01*
X119404188Y-57517285D02*
X119518473Y-57460142D01*
X119518473Y-57460142D02*
X119689902Y-57460142D01*
X119689902Y-57460142D02*
X119804188Y-57517285D01*
X119804188Y-57517285D02*
X119861331Y-57631571D01*
X119861331Y-57631571D02*
X119861331Y-58260142D01*
X119861331Y-57631571D02*
X119918473Y-57517285D01*
X119918473Y-57517285D02*
X120032759Y-57460142D01*
X120032759Y-57460142D02*
X120204188Y-57460142D01*
X120204188Y-57460142D02*
X120318473Y-57517285D01*
X120318473Y-57517285D02*
X120375616Y-57631571D01*
X120375616Y-57631571D02*
X120375616Y-58260142D01*
X121118473Y-58260142D02*
X121004188Y-58203000D01*
X121004188Y-58203000D02*
X120947045Y-58145857D01*
X120947045Y-58145857D02*
X120889902Y-58031571D01*
X120889902Y-58031571D02*
X120889902Y-57688714D01*
X120889902Y-57688714D02*
X120947045Y-57574428D01*
X120947045Y-57574428D02*
X121004188Y-57517285D01*
X121004188Y-57517285D02*
X121118473Y-57460142D01*
X121118473Y-57460142D02*
X121289902Y-57460142D01*
X121289902Y-57460142D02*
X121404188Y-57517285D01*
X121404188Y-57517285D02*
X121461331Y-57574428D01*
X121461331Y-57574428D02*
X121518473Y-57688714D01*
X121518473Y-57688714D02*
X121518473Y-58031571D01*
X121518473Y-58031571D02*
X121461331Y-58145857D01*
X121461331Y-58145857D02*
X121404188Y-58203000D01*
X121404188Y-58203000D02*
X121289902Y-58260142D01*
X121289902Y-58260142D02*
X121118473Y-58260142D01*
X121918473Y-57460142D02*
X122204187Y-58260142D01*
X122204187Y-58260142D02*
X122489902Y-57460142D01*
X123404188Y-58203000D02*
X123289902Y-58260142D01*
X123289902Y-58260142D02*
X123061331Y-58260142D01*
X123061331Y-58260142D02*
X122947045Y-58203000D01*
X122947045Y-58203000D02*
X122889902Y-58088714D01*
X122889902Y-58088714D02*
X122889902Y-57631571D01*
X122889902Y-57631571D02*
X122947045Y-57517285D01*
X122947045Y-57517285D02*
X123061331Y-57460142D01*
X123061331Y-57460142D02*
X123289902Y-57460142D01*
X123289902Y-57460142D02*
X123404188Y-57517285D01*
X123404188Y-57517285D02*
X123461331Y-57631571D01*
X123461331Y-57631571D02*
X123461331Y-57745857D01*
X123461331Y-57745857D02*
X122889902Y-57860142D01*
X124204187Y-57060142D02*
X124432759Y-57060142D01*
X124432759Y-57060142D02*
X124547044Y-57117285D01*
X124547044Y-57117285D02*
X124661330Y-57231571D01*
X124661330Y-57231571D02*
X124718473Y-57460142D01*
X124718473Y-57460142D02*
X124718473Y-57860142D01*
X124718473Y-57860142D02*
X124661330Y-58088714D01*
X124661330Y-58088714D02*
X124547044Y-58203000D01*
X124547044Y-58203000D02*
X124432759Y-58260142D01*
X124432759Y-58260142D02*
X124204187Y-58260142D01*
X124204187Y-58260142D02*
X124089902Y-58203000D01*
X124089902Y-58203000D02*
X123975616Y-58088714D01*
X123975616Y-58088714D02*
X123918473Y-57860142D01*
X123918473Y-57860142D02*
X123918473Y-57460142D01*
X123918473Y-57460142D02*
X123975616Y-57231571D01*
X123975616Y-57231571D02*
X124089902Y-57117285D01*
X124089902Y-57117285D02*
X124204187Y-57060142D01*
X125232759Y-58260142D02*
X125232759Y-57460142D01*
X125232759Y-57574428D02*
X125289902Y-57517285D01*
X125289902Y-57517285D02*
X125404187Y-57460142D01*
X125404187Y-57460142D02*
X125575616Y-57460142D01*
X125575616Y-57460142D02*
X125689902Y-57517285D01*
X125689902Y-57517285D02*
X125747045Y-57631571D01*
X125747045Y-57631571D02*
X125747045Y-58260142D01*
X125747045Y-57631571D02*
X125804187Y-57517285D01*
X125804187Y-57517285D02*
X125918473Y-57460142D01*
X125918473Y-57460142D02*
X126089902Y-57460142D01*
X126089902Y-57460142D02*
X126204187Y-57517285D01*
X126204187Y-57517285D02*
X126261330Y-57631571D01*
X126261330Y-57631571D02*
X126261330Y-58260142D01*
X127289902Y-58203000D02*
X127175616Y-58260142D01*
X127175616Y-58260142D02*
X126947045Y-58260142D01*
X126947045Y-58260142D02*
X126832759Y-58203000D01*
X126832759Y-58203000D02*
X126775616Y-58088714D01*
X126775616Y-58088714D02*
X126775616Y-57631571D01*
X126775616Y-57631571D02*
X126832759Y-57517285D01*
X126832759Y-57517285D02*
X126947045Y-57460142D01*
X126947045Y-57460142D02*
X127175616Y-57460142D01*
X127175616Y-57460142D02*
X127289902Y-57517285D01*
X127289902Y-57517285D02*
X127347045Y-57631571D01*
X127347045Y-57631571D02*
X127347045Y-57745857D01*
X127347045Y-57745857D02*
X126775616Y-57860142D01*
X127689901Y-57460142D02*
X128147044Y-57460142D01*
X127861330Y-57060142D02*
X127861330Y-58088714D01*
X127861330Y-58088714D02*
X127918473Y-58203000D01*
X127918473Y-58203000D02*
X128032758Y-58260142D01*
X128032758Y-58260142D02*
X128147044Y-58260142D01*
X129004187Y-58203000D02*
X128889901Y-58260142D01*
X128889901Y-58260142D02*
X128661330Y-58260142D01*
X128661330Y-58260142D02*
X128547044Y-58203000D01*
X128547044Y-58203000D02*
X128489901Y-58088714D01*
X128489901Y-58088714D02*
X128489901Y-57631571D01*
X128489901Y-57631571D02*
X128547044Y-57517285D01*
X128547044Y-57517285D02*
X128661330Y-57460142D01*
X128661330Y-57460142D02*
X128889901Y-57460142D01*
X128889901Y-57460142D02*
X129004187Y-57517285D01*
X129004187Y-57517285D02*
X129061330Y-57631571D01*
X129061330Y-57631571D02*
X129061330Y-57745857D01*
X129061330Y-57745857D02*
X128489901Y-57860142D01*
X129575615Y-58260142D02*
X129575615Y-57460142D01*
X129575615Y-57688714D02*
X129632758Y-57574428D01*
X129632758Y-57574428D02*
X129689901Y-57517285D01*
X129689901Y-57517285D02*
X129804186Y-57460142D01*
X129804186Y-57460142D02*
X129918472Y-57460142D01*
X130318472Y-58145857D02*
X130375615Y-58203000D01*
X130375615Y-58203000D02*
X130318472Y-58260142D01*
X130318472Y-58260142D02*
X130261329Y-58203000D01*
X130261329Y-58203000D02*
X130318472Y-58145857D01*
X130318472Y-58145857D02*
X130318472Y-58260142D01*
X131404187Y-58203000D02*
X131289901Y-58260142D01*
X131289901Y-58260142D02*
X131061329Y-58260142D01*
X131061329Y-58260142D02*
X130947044Y-58203000D01*
X130947044Y-58203000D02*
X130889901Y-58145857D01*
X130889901Y-58145857D02*
X130832758Y-58031571D01*
X130832758Y-58031571D02*
X130832758Y-57688714D01*
X130832758Y-57688714D02*
X130889901Y-57574428D01*
X130889901Y-57574428D02*
X130947044Y-57517285D01*
X130947044Y-57517285D02*
X131061329Y-57460142D01*
X131061329Y-57460142D02*
X131289901Y-57460142D01*
X131289901Y-57460142D02*
X131404187Y-57517285D01*
X132089900Y-58260142D02*
X131975615Y-58203000D01*
X131975615Y-58203000D02*
X131918472Y-58145857D01*
X131918472Y-58145857D02*
X131861329Y-58031571D01*
X131861329Y-58031571D02*
X131861329Y-57688714D01*
X131861329Y-57688714D02*
X131918472Y-57574428D01*
X131918472Y-57574428D02*
X131975615Y-57517285D01*
X131975615Y-57517285D02*
X132089900Y-57460142D01*
X132089900Y-57460142D02*
X132261329Y-57460142D01*
X132261329Y-57460142D02*
X132375615Y-57517285D01*
X132375615Y-57517285D02*
X132432758Y-57574428D01*
X132432758Y-57574428D02*
X132489900Y-57688714D01*
X132489900Y-57688714D02*
X132489900Y-58031571D01*
X132489900Y-58031571D02*
X132432758Y-58145857D01*
X132432758Y-58145857D02*
X132375615Y-58203000D01*
X132375615Y-58203000D02*
X132261329Y-58260142D01*
X132261329Y-58260142D02*
X132089900Y-58260142D01*
X133004186Y-58260142D02*
X133004186Y-57460142D01*
X133004186Y-57574428D02*
X133061329Y-57517285D01*
X133061329Y-57517285D02*
X133175614Y-57460142D01*
X133175614Y-57460142D02*
X133347043Y-57460142D01*
X133347043Y-57460142D02*
X133461329Y-57517285D01*
X133461329Y-57517285D02*
X133518472Y-57631571D01*
X133518472Y-57631571D02*
X133518472Y-58260142D01*
X133518472Y-57631571D02*
X133575614Y-57517285D01*
X133575614Y-57517285D02*
X133689900Y-57460142D01*
X133689900Y-57460142D02*
X133861329Y-57460142D01*
X133861329Y-57460142D02*
X133975614Y-57517285D01*
X133975614Y-57517285D02*
X134032757Y-57631571D01*
X134032757Y-57631571D02*
X134032757Y-58260142D01*
D12*
X135517095Y-101562819D02*
X136088523Y-101562819D01*
X135802809Y-102562819D02*
X135802809Y-101562819D01*
X136421857Y-102562819D02*
X136421857Y-101562819D01*
X136421857Y-101562819D02*
X136802809Y-101562819D01*
X136802809Y-101562819D02*
X136898047Y-101610438D01*
X136898047Y-101610438D02*
X136945666Y-101658057D01*
X136945666Y-101658057D02*
X136993285Y-101753295D01*
X136993285Y-101753295D02*
X136993285Y-101896152D01*
X136993285Y-101896152D02*
X136945666Y-101991390D01*
X136945666Y-101991390D02*
X136898047Y-102039009D01*
X136898047Y-102039009D02*
X136802809Y-102086628D01*
X136802809Y-102086628D02*
X136421857Y-102086628D01*
X137374238Y-101658057D02*
X137421857Y-101610438D01*
X137421857Y-101610438D02*
X137517095Y-101562819D01*
X137517095Y-101562819D02*
X137755190Y-101562819D01*
X137755190Y-101562819D02*
X137850428Y-101610438D01*
X137850428Y-101610438D02*
X137898047Y-101658057D01*
X137898047Y-101658057D02*
X137945666Y-101753295D01*
X137945666Y-101753295D02*
X137945666Y-101848533D01*
X137945666Y-101848533D02*
X137898047Y-101991390D01*
X137898047Y-101991390D02*
X137326619Y-102562819D01*
X137326619Y-102562819D02*
X137945666Y-102562819D01*
X136525095Y-103388438D02*
X136429857Y-103340819D01*
X136429857Y-103340819D02*
X136287000Y-103340819D01*
X136287000Y-103340819D02*
X136144143Y-103388438D01*
X136144143Y-103388438D02*
X136048905Y-103483676D01*
X136048905Y-103483676D02*
X136001286Y-103578914D01*
X136001286Y-103578914D02*
X135953667Y-103769390D01*
X135953667Y-103769390D02*
X135953667Y-103912247D01*
X135953667Y-103912247D02*
X136001286Y-104102723D01*
X136001286Y-104102723D02*
X136048905Y-104197961D01*
X136048905Y-104197961D02*
X136144143Y-104293200D01*
X136144143Y-104293200D02*
X136287000Y-104340819D01*
X136287000Y-104340819D02*
X136382238Y-104340819D01*
X136382238Y-104340819D02*
X136525095Y-104293200D01*
X136525095Y-104293200D02*
X136572714Y-104245580D01*
X136572714Y-104245580D02*
X136572714Y-103912247D01*
X136572714Y-103912247D02*
X136382238Y-103912247D01*
X137001286Y-104340819D02*
X137001286Y-103340819D01*
X137001286Y-103340819D02*
X137572714Y-104340819D01*
X137572714Y-104340819D02*
X137572714Y-103340819D01*
X138048905Y-104340819D02*
X138048905Y-103340819D01*
X138048905Y-103340819D02*
X138287000Y-103340819D01*
X138287000Y-103340819D02*
X138429857Y-103388438D01*
X138429857Y-103388438D02*
X138525095Y-103483676D01*
X138525095Y-103483676D02*
X138572714Y-103578914D01*
X138572714Y-103578914D02*
X138620333Y-103769390D01*
X138620333Y-103769390D02*
X138620333Y-103912247D01*
X138620333Y-103912247D02*
X138572714Y-104102723D01*
X138572714Y-104102723D02*
X138525095Y-104197961D01*
X138525095Y-104197961D02*
X138429857Y-104293200D01*
X138429857Y-104293200D02*
X138287000Y-104340819D01*
X138287000Y-104340819D02*
X138048905Y-104340819D01*
X113879333Y-61825929D02*
X113831714Y-61873549D01*
X113831714Y-61873549D02*
X113688857Y-61921168D01*
X113688857Y-61921168D02*
X113593619Y-61921168D01*
X113593619Y-61921168D02*
X113450762Y-61873549D01*
X113450762Y-61873549D02*
X113355524Y-61778310D01*
X113355524Y-61778310D02*
X113307905Y-61683072D01*
X113307905Y-61683072D02*
X113260286Y-61492596D01*
X113260286Y-61492596D02*
X113260286Y-61349739D01*
X113260286Y-61349739D02*
X113307905Y-61159263D01*
X113307905Y-61159263D02*
X113355524Y-61064025D01*
X113355524Y-61064025D02*
X113450762Y-60968787D01*
X113450762Y-60968787D02*
X113593619Y-60921168D01*
X113593619Y-60921168D02*
X113688857Y-60921168D01*
X113688857Y-60921168D02*
X113831714Y-60968787D01*
X113831714Y-60968787D02*
X113879333Y-61016406D01*
X114736476Y-61254501D02*
X114736476Y-61921168D01*
X114498381Y-60873549D02*
X114260286Y-61587834D01*
X114260286Y-61587834D02*
X114879333Y-61587834D01*
X108434380Y-63445168D02*
X107862952Y-63445168D01*
X108148666Y-63445168D02*
X108148666Y-62445168D01*
X108148666Y-62445168D02*
X108053428Y-62588025D01*
X108053428Y-62588025D02*
X107958190Y-62683263D01*
X107958190Y-62683263D02*
X107862952Y-62730882D01*
X109053428Y-62445168D02*
X109148666Y-62445168D01*
X109148666Y-62445168D02*
X109243904Y-62492787D01*
X109243904Y-62492787D02*
X109291523Y-62540406D01*
X109291523Y-62540406D02*
X109339142Y-62635644D01*
X109339142Y-62635644D02*
X109386761Y-62826120D01*
X109386761Y-62826120D02*
X109386761Y-63064215D01*
X109386761Y-63064215D02*
X109339142Y-63254691D01*
X109339142Y-63254691D02*
X109291523Y-63349929D01*
X109291523Y-63349929D02*
X109243904Y-63397549D01*
X109243904Y-63397549D02*
X109148666Y-63445168D01*
X109148666Y-63445168D02*
X109053428Y-63445168D01*
X109053428Y-63445168D02*
X108958190Y-63397549D01*
X108958190Y-63397549D02*
X108910571Y-63349929D01*
X108910571Y-63349929D02*
X108862952Y-63254691D01*
X108862952Y-63254691D02*
X108815333Y-63064215D01*
X108815333Y-63064215D02*
X108815333Y-62826120D01*
X108815333Y-62826120D02*
X108862952Y-62635644D01*
X108862952Y-62635644D02*
X108910571Y-62540406D01*
X108910571Y-62540406D02*
X108958190Y-62492787D01*
X108958190Y-62492787D02*
X109053428Y-62445168D01*
X110005809Y-62445168D02*
X110101047Y-62445168D01*
X110101047Y-62445168D02*
X110196285Y-62492787D01*
X110196285Y-62492787D02*
X110243904Y-62540406D01*
X110243904Y-62540406D02*
X110291523Y-62635644D01*
X110291523Y-62635644D02*
X110339142Y-62826120D01*
X110339142Y-62826120D02*
X110339142Y-63064215D01*
X110339142Y-63064215D02*
X110291523Y-63254691D01*
X110291523Y-63254691D02*
X110243904Y-63349929D01*
X110243904Y-63349929D02*
X110196285Y-63397549D01*
X110196285Y-63397549D02*
X110101047Y-63445168D01*
X110101047Y-63445168D02*
X110005809Y-63445168D01*
X110005809Y-63445168D02*
X109910571Y-63397549D01*
X109910571Y-63397549D02*
X109862952Y-63349929D01*
X109862952Y-63349929D02*
X109815333Y-63254691D01*
X109815333Y-63254691D02*
X109767714Y-63064215D01*
X109767714Y-63064215D02*
X109767714Y-62826120D01*
X109767714Y-62826120D02*
X109815333Y-62635644D01*
X109815333Y-62635644D02*
X109862952Y-62540406D01*
X109862952Y-62540406D02*
X109910571Y-62492787D01*
X109910571Y-62492787D02*
X110005809Y-62445168D01*
X111196285Y-62778501D02*
X111196285Y-63445168D01*
X110767714Y-62778501D02*
X110767714Y-63302310D01*
X110767714Y-63302310D02*
X110815333Y-63397549D01*
X110815333Y-63397549D02*
X110910571Y-63445168D01*
X110910571Y-63445168D02*
X111053428Y-63445168D01*
X111053428Y-63445168D02*
X111148666Y-63397549D01*
X111148666Y-63397549D02*
X111196285Y-63349929D01*
X112005809Y-62921358D02*
X111672476Y-62921358D01*
X111672476Y-63445168D02*
X111672476Y-62445168D01*
X111672476Y-62445168D02*
X112148666Y-62445168D01*
X157742095Y-96228819D02*
X158313523Y-96228819D01*
X158027809Y-97228819D02*
X158027809Y-96228819D01*
X158646857Y-97228819D02*
X158646857Y-96228819D01*
X158646857Y-96228819D02*
X159027809Y-96228819D01*
X159027809Y-96228819D02*
X159123047Y-96276438D01*
X159123047Y-96276438D02*
X159170666Y-96324057D01*
X159170666Y-96324057D02*
X159218285Y-96419295D01*
X159218285Y-96419295D02*
X159218285Y-96562152D01*
X159218285Y-96562152D02*
X159170666Y-96657390D01*
X159170666Y-96657390D02*
X159123047Y-96705009D01*
X159123047Y-96705009D02*
X159027809Y-96752628D01*
X159027809Y-96752628D02*
X158646857Y-96752628D01*
X160170666Y-97228819D02*
X159599238Y-97228819D01*
X159884952Y-97228819D02*
X159884952Y-96228819D01*
X159884952Y-96228819D02*
X159789714Y-96371676D01*
X159789714Y-96371676D02*
X159694476Y-96466914D01*
X159694476Y-96466914D02*
X159599238Y-96514533D01*
X159972667Y-94307819D02*
X159972667Y-93307819D01*
X159972667Y-93307819D02*
X160544095Y-94307819D01*
X160544095Y-94307819D02*
X160544095Y-93307819D01*
X161401238Y-94260200D02*
X161306000Y-94307819D01*
X161306000Y-94307819D02*
X161115524Y-94307819D01*
X161115524Y-94307819D02*
X161020286Y-94260200D01*
X161020286Y-94260200D02*
X160972667Y-94164961D01*
X160972667Y-94164961D02*
X160972667Y-93784009D01*
X160972667Y-93784009D02*
X161020286Y-93688771D01*
X161020286Y-93688771D02*
X161115524Y-93641152D01*
X161115524Y-93641152D02*
X161306000Y-93641152D01*
X161306000Y-93641152D02*
X161401238Y-93688771D01*
X161401238Y-93688771D02*
X161448857Y-93784009D01*
X161448857Y-93784009D02*
X161448857Y-93879247D01*
X161448857Y-93879247D02*
X160972667Y-93974485D01*
X162020286Y-94307819D02*
X161925048Y-94260200D01*
X161925048Y-94260200D02*
X161877429Y-94212580D01*
X161877429Y-94212580D02*
X161829810Y-94117342D01*
X161829810Y-94117342D02*
X161829810Y-93831628D01*
X161829810Y-93831628D02*
X161877429Y-93736390D01*
X161877429Y-93736390D02*
X161925048Y-93688771D01*
X161925048Y-93688771D02*
X162020286Y-93641152D01*
X162020286Y-93641152D02*
X162163143Y-93641152D01*
X162163143Y-93641152D02*
X162258381Y-93688771D01*
X162258381Y-93688771D02*
X162306000Y-93736390D01*
X162306000Y-93736390D02*
X162353619Y-93831628D01*
X162353619Y-93831628D02*
X162353619Y-94117342D01*
X162353619Y-94117342D02*
X162306000Y-94212580D01*
X162306000Y-94212580D02*
X162258381Y-94260200D01*
X162258381Y-94260200D02*
X162163143Y-94307819D01*
X162163143Y-94307819D02*
X162020286Y-94307819D01*
X162734572Y-94260200D02*
X162877429Y-94307819D01*
X162877429Y-94307819D02*
X163115524Y-94307819D01*
X163115524Y-94307819D02*
X163210762Y-94260200D01*
X163210762Y-94260200D02*
X163258381Y-94212580D01*
X163258381Y-94212580D02*
X163306000Y-94117342D01*
X163306000Y-94117342D02*
X163306000Y-94022104D01*
X163306000Y-94022104D02*
X163258381Y-93926866D01*
X163258381Y-93926866D02*
X163210762Y-93879247D01*
X163210762Y-93879247D02*
X163115524Y-93831628D01*
X163115524Y-93831628D02*
X162925048Y-93784009D01*
X162925048Y-93784009D02*
X162829810Y-93736390D01*
X162829810Y-93736390D02*
X162782191Y-93688771D01*
X162782191Y-93688771D02*
X162734572Y-93593533D01*
X162734572Y-93593533D02*
X162734572Y-93498295D01*
X162734572Y-93498295D02*
X162782191Y-93403057D01*
X162782191Y-93403057D02*
X162829810Y-93355438D01*
X162829810Y-93355438D02*
X162925048Y-93307819D01*
X162925048Y-93307819D02*
X163163143Y-93307819D01*
X163163143Y-93307819D02*
X163306000Y-93355438D01*
X163734572Y-94307819D02*
X163734572Y-93641152D01*
X163734572Y-93307819D02*
X163686953Y-93355438D01*
X163686953Y-93355438D02*
X163734572Y-93403057D01*
X163734572Y-93403057D02*
X163782191Y-93355438D01*
X163782191Y-93355438D02*
X163734572Y-93307819D01*
X163734572Y-93307819D02*
X163734572Y-93403057D01*
X164639333Y-93641152D02*
X164639333Y-94450676D01*
X164639333Y-94450676D02*
X164591714Y-94545914D01*
X164591714Y-94545914D02*
X164544095Y-94593533D01*
X164544095Y-94593533D02*
X164448857Y-94641152D01*
X164448857Y-94641152D02*
X164306000Y-94641152D01*
X164306000Y-94641152D02*
X164210762Y-94593533D01*
X164639333Y-94260200D02*
X164544095Y-94307819D01*
X164544095Y-94307819D02*
X164353619Y-94307819D01*
X164353619Y-94307819D02*
X164258381Y-94260200D01*
X164258381Y-94260200D02*
X164210762Y-94212580D01*
X164210762Y-94212580D02*
X164163143Y-94117342D01*
X164163143Y-94117342D02*
X164163143Y-93831628D01*
X164163143Y-93831628D02*
X164210762Y-93736390D01*
X164210762Y-93736390D02*
X164258381Y-93688771D01*
X164258381Y-93688771D02*
X164353619Y-93641152D01*
X164353619Y-93641152D02*
X164544095Y-93641152D01*
X164544095Y-93641152D02*
X164639333Y-93688771D01*
X125447680Y-93138666D02*
X124733395Y-93138666D01*
X124733395Y-93138666D02*
X124590538Y-93091047D01*
X124590538Y-93091047D02*
X124495300Y-92995809D01*
X124495300Y-92995809D02*
X124447680Y-92852952D01*
X124447680Y-92852952D02*
X124447680Y-92757714D01*
X125352442Y-93567238D02*
X125400061Y-93614857D01*
X125400061Y-93614857D02*
X125447680Y-93710095D01*
X125447680Y-93710095D02*
X125447680Y-93948190D01*
X125447680Y-93948190D02*
X125400061Y-94043428D01*
X125400061Y-94043428D02*
X125352442Y-94091047D01*
X125352442Y-94091047D02*
X125257204Y-94138666D01*
X125257204Y-94138666D02*
X125161966Y-94138666D01*
X125161966Y-94138666D02*
X125019109Y-94091047D01*
X125019109Y-94091047D02*
X124447680Y-93519619D01*
X124447680Y-93519619D02*
X124447680Y-94138666D01*
X134281152Y-104528571D02*
X134947819Y-104528571D01*
X134376390Y-104528571D02*
X134328771Y-104480952D01*
X134328771Y-104480952D02*
X134281152Y-104385714D01*
X134281152Y-104385714D02*
X134281152Y-104242857D01*
X134281152Y-104242857D02*
X134328771Y-104147619D01*
X134328771Y-104147619D02*
X134424009Y-104100000D01*
X134424009Y-104100000D02*
X134947819Y-104100000D01*
X134900200Y-103242857D02*
X134947819Y-103338095D01*
X134947819Y-103338095D02*
X134947819Y-103528571D01*
X134947819Y-103528571D02*
X134900200Y-103623809D01*
X134900200Y-103623809D02*
X134804961Y-103671428D01*
X134804961Y-103671428D02*
X134424009Y-103671428D01*
X134424009Y-103671428D02*
X134328771Y-103623809D01*
X134328771Y-103623809D02*
X134281152Y-103528571D01*
X134281152Y-103528571D02*
X134281152Y-103338095D01*
X134281152Y-103338095D02*
X134328771Y-103242857D01*
X134328771Y-103242857D02*
X134424009Y-103195238D01*
X134424009Y-103195238D02*
X134519247Y-103195238D01*
X134519247Y-103195238D02*
X134614485Y-103671428D01*
X134947819Y-102623809D02*
X134900200Y-102719047D01*
X134900200Y-102719047D02*
X134852580Y-102766666D01*
X134852580Y-102766666D02*
X134757342Y-102814285D01*
X134757342Y-102814285D02*
X134471628Y-102814285D01*
X134471628Y-102814285D02*
X134376390Y-102766666D01*
X134376390Y-102766666D02*
X134328771Y-102719047D01*
X134328771Y-102719047D02*
X134281152Y-102623809D01*
X134281152Y-102623809D02*
X134281152Y-102480952D01*
X134281152Y-102480952D02*
X134328771Y-102385714D01*
X134328771Y-102385714D02*
X134376390Y-102338095D01*
X134376390Y-102338095D02*
X134471628Y-102290476D01*
X134471628Y-102290476D02*
X134757342Y-102290476D01*
X134757342Y-102290476D02*
X134852580Y-102338095D01*
X134852580Y-102338095D02*
X134900200Y-102385714D01*
X134900200Y-102385714D02*
X134947819Y-102480952D01*
X134947819Y-102480952D02*
X134947819Y-102623809D01*
X134947819Y-101861904D02*
X133947819Y-101861904D01*
X133947819Y-101861904D02*
X133947819Y-101480952D01*
X133947819Y-101480952D02*
X133995438Y-101385714D01*
X133995438Y-101385714D02*
X134043057Y-101338095D01*
X134043057Y-101338095D02*
X134138295Y-101290476D01*
X134138295Y-101290476D02*
X134281152Y-101290476D01*
X134281152Y-101290476D02*
X134376390Y-101338095D01*
X134376390Y-101338095D02*
X134424009Y-101385714D01*
X134424009Y-101385714D02*
X134471628Y-101480952D01*
X134471628Y-101480952D02*
X134471628Y-101861904D01*
X134947819Y-100861904D02*
X134281152Y-100861904D01*
X133947819Y-100861904D02*
X133995438Y-100909523D01*
X133995438Y-100909523D02*
X134043057Y-100861904D01*
X134043057Y-100861904D02*
X133995438Y-100814285D01*
X133995438Y-100814285D02*
X133947819Y-100861904D01*
X133947819Y-100861904D02*
X134043057Y-100861904D01*
X134947819Y-100480952D02*
X134281152Y-99957143D01*
X134281152Y-100480952D02*
X134947819Y-99957143D01*
X134900200Y-99195238D02*
X134947819Y-99290476D01*
X134947819Y-99290476D02*
X134947819Y-99480952D01*
X134947819Y-99480952D02*
X134900200Y-99576190D01*
X134900200Y-99576190D02*
X134804961Y-99623809D01*
X134804961Y-99623809D02*
X134424009Y-99623809D01*
X134424009Y-99623809D02*
X134328771Y-99576190D01*
X134328771Y-99576190D02*
X134281152Y-99480952D01*
X134281152Y-99480952D02*
X134281152Y-99290476D01*
X134281152Y-99290476D02*
X134328771Y-99195238D01*
X134328771Y-99195238D02*
X134424009Y-99147619D01*
X134424009Y-99147619D02*
X134519247Y-99147619D01*
X134519247Y-99147619D02*
X134614485Y-99623809D01*
X134947819Y-98576190D02*
X134900200Y-98671428D01*
X134900200Y-98671428D02*
X134804961Y-98719047D01*
X134804961Y-98719047D02*
X133947819Y-98719047D01*
X126733180Y-101746255D02*
X126733180Y-101936731D01*
X126733180Y-101936731D02*
X126685561Y-102031969D01*
X126685561Y-102031969D02*
X126590323Y-102127207D01*
X126590323Y-102127207D02*
X126399847Y-102174826D01*
X126399847Y-102174826D02*
X126066514Y-102174826D01*
X126066514Y-102174826D02*
X125876038Y-102127207D01*
X125876038Y-102127207D02*
X125780800Y-102031969D01*
X125780800Y-102031969D02*
X125733180Y-101936731D01*
X125733180Y-101936731D02*
X125733180Y-101746255D01*
X125733180Y-101746255D02*
X125780800Y-101651017D01*
X125780800Y-101651017D02*
X125876038Y-101555779D01*
X125876038Y-101555779D02*
X126066514Y-101508160D01*
X126066514Y-101508160D02*
X126399847Y-101508160D01*
X126399847Y-101508160D02*
X126590323Y-101555779D01*
X126590323Y-101555779D02*
X126685561Y-101651017D01*
X126685561Y-101651017D02*
X126733180Y-101746255D01*
X126733180Y-102603398D02*
X125923657Y-102603398D01*
X125923657Y-102603398D02*
X125828419Y-102651017D01*
X125828419Y-102651017D02*
X125780800Y-102698636D01*
X125780800Y-102698636D02*
X125733180Y-102793874D01*
X125733180Y-102793874D02*
X125733180Y-102984350D01*
X125733180Y-102984350D02*
X125780800Y-103079588D01*
X125780800Y-103079588D02*
X125828419Y-103127207D01*
X125828419Y-103127207D02*
X125923657Y-103174826D01*
X125923657Y-103174826D02*
X126733180Y-103174826D01*
X126733180Y-103508160D02*
X126733180Y-104079588D01*
X125733180Y-103793874D02*
X126733180Y-103793874D01*
X127130180Y-89744779D02*
X128130180Y-89744779D01*
X127130180Y-90220969D02*
X128130180Y-90220969D01*
X128130180Y-90220969D02*
X127130180Y-90792397D01*
X127130180Y-90792397D02*
X128130180Y-90792397D01*
X130622561Y-90649588D02*
X130670180Y-90554350D01*
X130670180Y-90554350D02*
X130670180Y-90411493D01*
X130670180Y-90411493D02*
X130622561Y-90268636D01*
X130622561Y-90268636D02*
X130527323Y-90173398D01*
X130527323Y-90173398D02*
X130432085Y-90125779D01*
X130432085Y-90125779D02*
X130241609Y-90078160D01*
X130241609Y-90078160D02*
X130098752Y-90078160D01*
X130098752Y-90078160D02*
X129908276Y-90125779D01*
X129908276Y-90125779D02*
X129813038Y-90173398D01*
X129813038Y-90173398D02*
X129717800Y-90268636D01*
X129717800Y-90268636D02*
X129670180Y-90411493D01*
X129670180Y-90411493D02*
X129670180Y-90506731D01*
X129670180Y-90506731D02*
X129717800Y-90649588D01*
X129717800Y-90649588D02*
X129765419Y-90697207D01*
X129765419Y-90697207D02*
X130098752Y-90697207D01*
X130098752Y-90697207D02*
X130098752Y-90506731D01*
X130622561Y-104619588D02*
X130670180Y-104524350D01*
X130670180Y-104524350D02*
X130670180Y-104381493D01*
X130670180Y-104381493D02*
X130622561Y-104238636D01*
X130622561Y-104238636D02*
X130527323Y-104143398D01*
X130527323Y-104143398D02*
X130432085Y-104095779D01*
X130432085Y-104095779D02*
X130241609Y-104048160D01*
X130241609Y-104048160D02*
X130098752Y-104048160D01*
X130098752Y-104048160D02*
X129908276Y-104095779D01*
X129908276Y-104095779D02*
X129813038Y-104143398D01*
X129813038Y-104143398D02*
X129717800Y-104238636D01*
X129717800Y-104238636D02*
X129670180Y-104381493D01*
X129670180Y-104381493D02*
X129670180Y-104476731D01*
X129670180Y-104476731D02*
X129717800Y-104619588D01*
X129717800Y-104619588D02*
X129765419Y-104667207D01*
X129765419Y-104667207D02*
X130098752Y-104667207D01*
X130098752Y-104667207D02*
X130098752Y-104476731D01*
X133210180Y-90109922D02*
X132210180Y-90443255D01*
X132210180Y-90443255D02*
X133210180Y-90776588D01*
X133337180Y-100269922D02*
X132337180Y-100603255D01*
X132337180Y-100603255D02*
X133337180Y-100936588D01*
X135292180Y-97583666D02*
X134577895Y-97583666D01*
X134577895Y-97583666D02*
X134435038Y-97536047D01*
X134435038Y-97536047D02*
X134339800Y-97440809D01*
X134339800Y-97440809D02*
X134292180Y-97297952D01*
X134292180Y-97297952D02*
X134292180Y-97202714D01*
X135196942Y-98012238D02*
X135244561Y-98059857D01*
X135244561Y-98059857D02*
X135292180Y-98155095D01*
X135292180Y-98155095D02*
X135292180Y-98393190D01*
X135292180Y-98393190D02*
X135244561Y-98488428D01*
X135244561Y-98488428D02*
X135196942Y-98536047D01*
X135196942Y-98536047D02*
X135101704Y-98583666D01*
X135101704Y-98583666D02*
X135006466Y-98583666D01*
X135006466Y-98583666D02*
X134863609Y-98536047D01*
X134863609Y-98536047D02*
X134292180Y-97964619D01*
X134292180Y-97964619D02*
X134292180Y-98583666D01*
X165433476Y-96195819D02*
X165433476Y-96910104D01*
X165433476Y-96910104D02*
X165385857Y-97052961D01*
X165385857Y-97052961D02*
X165290619Y-97148200D01*
X165290619Y-97148200D02*
X165147762Y-97195819D01*
X165147762Y-97195819D02*
X165052524Y-97195819D01*
X166433476Y-97195819D02*
X165862048Y-97195819D01*
X166147762Y-97195819D02*
X166147762Y-96195819D01*
X166147762Y-96195819D02*
X166052524Y-96338676D01*
X166052524Y-96338676D02*
X165957286Y-96433914D01*
X165957286Y-96433914D02*
X165862048Y-96481533D01*
X166814429Y-96291057D02*
X166862048Y-96243438D01*
X166862048Y-96243438D02*
X166957286Y-96195819D01*
X166957286Y-96195819D02*
X167195381Y-96195819D01*
X167195381Y-96195819D02*
X167290619Y-96243438D01*
X167290619Y-96243438D02*
X167338238Y-96291057D01*
X167338238Y-96291057D02*
X167385857Y-96386295D01*
X167385857Y-96386295D02*
X167385857Y-96481533D01*
X167385857Y-96481533D02*
X167338238Y-96624390D01*
X167338238Y-96624390D02*
X166766810Y-97195819D01*
X166766810Y-97195819D02*
X167385857Y-97195819D01*
X168714009Y-88232952D02*
X168761628Y-88090095D01*
X168761628Y-88090095D02*
X168809247Y-88042476D01*
X168809247Y-88042476D02*
X168904485Y-87994857D01*
X168904485Y-87994857D02*
X169047342Y-87994857D01*
X169047342Y-87994857D02*
X169142580Y-88042476D01*
X169142580Y-88042476D02*
X169190200Y-88090095D01*
X169190200Y-88090095D02*
X169237819Y-88185333D01*
X169237819Y-88185333D02*
X169237819Y-88566285D01*
X169237819Y-88566285D02*
X168237819Y-88566285D01*
X168237819Y-88566285D02*
X168237819Y-88232952D01*
X168237819Y-88232952D02*
X168285438Y-88137714D01*
X168285438Y-88137714D02*
X168333057Y-88090095D01*
X168333057Y-88090095D02*
X168428295Y-88042476D01*
X168428295Y-88042476D02*
X168523533Y-88042476D01*
X168523533Y-88042476D02*
X168618771Y-88090095D01*
X168618771Y-88090095D02*
X168666390Y-88137714D01*
X168666390Y-88137714D02*
X168714009Y-88232952D01*
X168714009Y-88232952D02*
X168714009Y-88566285D01*
X169237819Y-87566285D02*
X168237819Y-87566285D01*
X168237819Y-87566285D02*
X168952104Y-87232952D01*
X168952104Y-87232952D02*
X168237819Y-86899619D01*
X168237819Y-86899619D02*
X169237819Y-86899619D01*
X168714009Y-86423428D02*
X168714009Y-86090095D01*
X169237819Y-85947238D02*
X169237819Y-86423428D01*
X169237819Y-86423428D02*
X168237819Y-86423428D01*
X168237819Y-86423428D02*
X168237819Y-85947238D01*
X168333057Y-85566285D02*
X168285438Y-85518666D01*
X168285438Y-85518666D02*
X168237819Y-85423428D01*
X168237819Y-85423428D02*
X168237819Y-85185333D01*
X168237819Y-85185333D02*
X168285438Y-85090095D01*
X168285438Y-85090095D02*
X168333057Y-85042476D01*
X168333057Y-85042476D02*
X168428295Y-84994857D01*
X168428295Y-84994857D02*
X168523533Y-84994857D01*
X168523533Y-84994857D02*
X168666390Y-85042476D01*
X168666390Y-85042476D02*
X169237819Y-85613904D01*
X169237819Y-85613904D02*
X169237819Y-84994857D01*
X168666390Y-84423428D02*
X168618771Y-84518666D01*
X168618771Y-84518666D02*
X168571152Y-84566285D01*
X168571152Y-84566285D02*
X168475914Y-84613904D01*
X168475914Y-84613904D02*
X168428295Y-84613904D01*
X168428295Y-84613904D02*
X168333057Y-84566285D01*
X168333057Y-84566285D02*
X168285438Y-84518666D01*
X168285438Y-84518666D02*
X168237819Y-84423428D01*
X168237819Y-84423428D02*
X168237819Y-84232952D01*
X168237819Y-84232952D02*
X168285438Y-84137714D01*
X168285438Y-84137714D02*
X168333057Y-84090095D01*
X168333057Y-84090095D02*
X168428295Y-84042476D01*
X168428295Y-84042476D02*
X168475914Y-84042476D01*
X168475914Y-84042476D02*
X168571152Y-84090095D01*
X168571152Y-84090095D02*
X168618771Y-84137714D01*
X168618771Y-84137714D02*
X168666390Y-84232952D01*
X168666390Y-84232952D02*
X168666390Y-84423428D01*
X168666390Y-84423428D02*
X168714009Y-84518666D01*
X168714009Y-84518666D02*
X168761628Y-84566285D01*
X168761628Y-84566285D02*
X168856866Y-84613904D01*
X168856866Y-84613904D02*
X169047342Y-84613904D01*
X169047342Y-84613904D02*
X169142580Y-84566285D01*
X169142580Y-84566285D02*
X169190200Y-84518666D01*
X169190200Y-84518666D02*
X169237819Y-84423428D01*
X169237819Y-84423428D02*
X169237819Y-84232952D01*
X169237819Y-84232952D02*
X169190200Y-84137714D01*
X169190200Y-84137714D02*
X169142580Y-84090095D01*
X169142580Y-84090095D02*
X169047342Y-84042476D01*
X169047342Y-84042476D02*
X168856866Y-84042476D01*
X168856866Y-84042476D02*
X168761628Y-84090095D01*
X168761628Y-84090095D02*
X168714009Y-84137714D01*
X168714009Y-84137714D02*
X168666390Y-84232952D01*
X168237819Y-83423428D02*
X168237819Y-83328190D01*
X168237819Y-83328190D02*
X168285438Y-83232952D01*
X168285438Y-83232952D02*
X168333057Y-83185333D01*
X168333057Y-83185333D02*
X168428295Y-83137714D01*
X168428295Y-83137714D02*
X168618771Y-83090095D01*
X168618771Y-83090095D02*
X168856866Y-83090095D01*
X168856866Y-83090095D02*
X169047342Y-83137714D01*
X169047342Y-83137714D02*
X169142580Y-83185333D01*
X169142580Y-83185333D02*
X169190200Y-83232952D01*
X169190200Y-83232952D02*
X169237819Y-83328190D01*
X169237819Y-83328190D02*
X169237819Y-83423428D01*
X169237819Y-83423428D02*
X169190200Y-83518666D01*
X169190200Y-83518666D02*
X169142580Y-83566285D01*
X169142580Y-83566285D02*
X169047342Y-83613904D01*
X169047342Y-83613904D02*
X168856866Y-83661523D01*
X168856866Y-83661523D02*
X168618771Y-83661523D01*
X168618771Y-83661523D02*
X168428295Y-83613904D01*
X168428295Y-83613904D02*
X168333057Y-83566285D01*
X168333057Y-83566285D02*
X168285438Y-83518666D01*
X168285438Y-83518666D02*
X168237819Y-83423428D01*
X153590666Y-84671819D02*
X153590666Y-85386104D01*
X153590666Y-85386104D02*
X153543047Y-85528961D01*
X153543047Y-85528961D02*
X153447809Y-85624200D01*
X153447809Y-85624200D02*
X153304952Y-85671819D01*
X153304952Y-85671819D02*
X153209714Y-85671819D01*
X153971619Y-84671819D02*
X154590666Y-84671819D01*
X154590666Y-84671819D02*
X154257333Y-85052771D01*
X154257333Y-85052771D02*
X154400190Y-85052771D01*
X154400190Y-85052771D02*
X154495428Y-85100390D01*
X154495428Y-85100390D02*
X154543047Y-85148009D01*
X154543047Y-85148009D02*
X154590666Y-85243247D01*
X154590666Y-85243247D02*
X154590666Y-85481342D01*
X154590666Y-85481342D02*
X154543047Y-85576580D01*
X154543047Y-85576580D02*
X154495428Y-85624200D01*
X154495428Y-85624200D02*
X154400190Y-85671819D01*
X154400190Y-85671819D02*
X154114476Y-85671819D01*
X154114476Y-85671819D02*
X154019238Y-85624200D01*
X154019238Y-85624200D02*
X153971619Y-85576580D01*
X154632819Y-82747809D02*
X153632819Y-82747809D01*
X153632819Y-82747809D02*
X153632819Y-82509714D01*
X153632819Y-82509714D02*
X153680438Y-82366857D01*
X153680438Y-82366857D02*
X153775676Y-82271619D01*
X153775676Y-82271619D02*
X153870914Y-82224000D01*
X153870914Y-82224000D02*
X154061390Y-82176381D01*
X154061390Y-82176381D02*
X154204247Y-82176381D01*
X154204247Y-82176381D02*
X154394723Y-82224000D01*
X154394723Y-82224000D02*
X154489961Y-82271619D01*
X154489961Y-82271619D02*
X154585200Y-82366857D01*
X154585200Y-82366857D02*
X154632819Y-82509714D01*
X154632819Y-82509714D02*
X154632819Y-82747809D01*
X154585200Y-81366857D02*
X154632819Y-81462095D01*
X154632819Y-81462095D02*
X154632819Y-81652571D01*
X154632819Y-81652571D02*
X154585200Y-81747809D01*
X154585200Y-81747809D02*
X154489961Y-81795428D01*
X154489961Y-81795428D02*
X154109009Y-81795428D01*
X154109009Y-81795428D02*
X154013771Y-81747809D01*
X154013771Y-81747809D02*
X153966152Y-81652571D01*
X153966152Y-81652571D02*
X153966152Y-81462095D01*
X153966152Y-81462095D02*
X154013771Y-81366857D01*
X154013771Y-81366857D02*
X154109009Y-81319238D01*
X154109009Y-81319238D02*
X154204247Y-81319238D01*
X154204247Y-81319238D02*
X154299485Y-81795428D01*
X154632819Y-80890666D02*
X153632819Y-80890666D01*
X154013771Y-80890666D02*
X153966152Y-80795428D01*
X153966152Y-80795428D02*
X153966152Y-80604952D01*
X153966152Y-80604952D02*
X154013771Y-80509714D01*
X154013771Y-80509714D02*
X154061390Y-80462095D01*
X154061390Y-80462095D02*
X154156628Y-80414476D01*
X154156628Y-80414476D02*
X154442342Y-80414476D01*
X154442342Y-80414476D02*
X154537580Y-80462095D01*
X154537580Y-80462095D02*
X154585200Y-80509714D01*
X154585200Y-80509714D02*
X154632819Y-80604952D01*
X154632819Y-80604952D02*
X154632819Y-80795428D01*
X154632819Y-80795428D02*
X154585200Y-80890666D01*
X153966152Y-79557333D02*
X154632819Y-79557333D01*
X153966152Y-79985904D02*
X154489961Y-79985904D01*
X154489961Y-79985904D02*
X154585200Y-79938285D01*
X154585200Y-79938285D02*
X154632819Y-79843047D01*
X154632819Y-79843047D02*
X154632819Y-79700190D01*
X154632819Y-79700190D02*
X154585200Y-79604952D01*
X154585200Y-79604952D02*
X154537580Y-79557333D01*
X153966152Y-78652571D02*
X154775676Y-78652571D01*
X154775676Y-78652571D02*
X154870914Y-78700190D01*
X154870914Y-78700190D02*
X154918533Y-78747809D01*
X154918533Y-78747809D02*
X154966152Y-78843047D01*
X154966152Y-78843047D02*
X154966152Y-78985904D01*
X154966152Y-78985904D02*
X154918533Y-79081142D01*
X154585200Y-78652571D02*
X154632819Y-78747809D01*
X154632819Y-78747809D02*
X154632819Y-78938285D01*
X154632819Y-78938285D02*
X154585200Y-79033523D01*
X154585200Y-79033523D02*
X154537580Y-79081142D01*
X154537580Y-79081142D02*
X154442342Y-79128761D01*
X154442342Y-79128761D02*
X154156628Y-79128761D01*
X154156628Y-79128761D02*
X154061390Y-79081142D01*
X154061390Y-79081142D02*
X154013771Y-79033523D01*
X154013771Y-79033523D02*
X153966152Y-78938285D01*
X153966152Y-78938285D02*
X153966152Y-78747809D01*
X153966152Y-78747809D02*
X154013771Y-78652571D01*
X154632819Y-77414475D02*
X153632819Y-77414475D01*
X154109009Y-77414475D02*
X154109009Y-76843047D01*
X154632819Y-76843047D02*
X153632819Y-76843047D01*
X154585200Y-75985904D02*
X154632819Y-76081142D01*
X154632819Y-76081142D02*
X154632819Y-76271618D01*
X154632819Y-76271618D02*
X154585200Y-76366856D01*
X154585200Y-76366856D02*
X154489961Y-76414475D01*
X154489961Y-76414475D02*
X154109009Y-76414475D01*
X154109009Y-76414475D02*
X154013771Y-76366856D01*
X154013771Y-76366856D02*
X153966152Y-76271618D01*
X153966152Y-76271618D02*
X153966152Y-76081142D01*
X153966152Y-76081142D02*
X154013771Y-75985904D01*
X154013771Y-75985904D02*
X154109009Y-75938285D01*
X154109009Y-75938285D02*
X154204247Y-75938285D01*
X154204247Y-75938285D02*
X154299485Y-76414475D01*
X154632819Y-75081142D02*
X154109009Y-75081142D01*
X154109009Y-75081142D02*
X154013771Y-75128761D01*
X154013771Y-75128761D02*
X153966152Y-75223999D01*
X153966152Y-75223999D02*
X153966152Y-75414475D01*
X153966152Y-75414475D02*
X154013771Y-75509713D01*
X154585200Y-75081142D02*
X154632819Y-75176380D01*
X154632819Y-75176380D02*
X154632819Y-75414475D01*
X154632819Y-75414475D02*
X154585200Y-75509713D01*
X154585200Y-75509713D02*
X154489961Y-75557332D01*
X154489961Y-75557332D02*
X154394723Y-75557332D01*
X154394723Y-75557332D02*
X154299485Y-75509713D01*
X154299485Y-75509713D02*
X154251866Y-75414475D01*
X154251866Y-75414475D02*
X154251866Y-75176380D01*
X154251866Y-75176380D02*
X154204247Y-75081142D01*
X154632819Y-74176380D02*
X153632819Y-74176380D01*
X154585200Y-74176380D02*
X154632819Y-74271618D01*
X154632819Y-74271618D02*
X154632819Y-74462094D01*
X154632819Y-74462094D02*
X154585200Y-74557332D01*
X154585200Y-74557332D02*
X154537580Y-74604951D01*
X154537580Y-74604951D02*
X154442342Y-74652570D01*
X154442342Y-74652570D02*
X154156628Y-74652570D01*
X154156628Y-74652570D02*
X154061390Y-74604951D01*
X154061390Y-74604951D02*
X154013771Y-74557332D01*
X154013771Y-74557332D02*
X153966152Y-74462094D01*
X153966152Y-74462094D02*
X153966152Y-74271618D01*
X153966152Y-74271618D02*
X154013771Y-74176380D01*
X154585200Y-73319237D02*
X154632819Y-73414475D01*
X154632819Y-73414475D02*
X154632819Y-73604951D01*
X154632819Y-73604951D02*
X154585200Y-73700189D01*
X154585200Y-73700189D02*
X154489961Y-73747808D01*
X154489961Y-73747808D02*
X154109009Y-73747808D01*
X154109009Y-73747808D02*
X154013771Y-73700189D01*
X154013771Y-73700189D02*
X153966152Y-73604951D01*
X153966152Y-73604951D02*
X153966152Y-73414475D01*
X153966152Y-73414475D02*
X154013771Y-73319237D01*
X154013771Y-73319237D02*
X154109009Y-73271618D01*
X154109009Y-73271618D02*
X154204247Y-73271618D01*
X154204247Y-73271618D02*
X154299485Y-73747808D01*
X154632819Y-72843046D02*
X153966152Y-72843046D01*
X154156628Y-72843046D02*
X154061390Y-72795427D01*
X154061390Y-72795427D02*
X154013771Y-72747808D01*
X154013771Y-72747808D02*
X153966152Y-72652570D01*
X153966152Y-72652570D02*
X153966152Y-72557332D01*
X118999095Y-62065819D02*
X118999095Y-62875342D01*
X118999095Y-62875342D02*
X119046714Y-62970580D01*
X119046714Y-62970580D02*
X119094333Y-63018200D01*
X119094333Y-63018200D02*
X119189571Y-63065819D01*
X119189571Y-63065819D02*
X119380047Y-63065819D01*
X119380047Y-63065819D02*
X119475285Y-63018200D01*
X119475285Y-63018200D02*
X119522904Y-62970580D01*
X119522904Y-62970580D02*
X119570523Y-62875342D01*
X119570523Y-62875342D02*
X119570523Y-62065819D01*
X120570523Y-63065819D02*
X119999095Y-63065819D01*
X120284809Y-63065819D02*
X120284809Y-62065819D01*
X120284809Y-62065819D02*
X120189571Y-62208676D01*
X120189571Y-62208676D02*
X120094333Y-62303914D01*
X120094333Y-62303914D02*
X119999095Y-62351533D01*
X132576700Y-77482666D02*
X132624319Y-77339809D01*
X132624319Y-77339809D02*
X132624319Y-77101714D01*
X132624319Y-77101714D02*
X132576700Y-77006476D01*
X132576700Y-77006476D02*
X132529080Y-76958857D01*
X132529080Y-76958857D02*
X132433842Y-76911238D01*
X132433842Y-76911238D02*
X132338604Y-76911238D01*
X132338604Y-76911238D02*
X132243366Y-76958857D01*
X132243366Y-76958857D02*
X132195747Y-77006476D01*
X132195747Y-77006476D02*
X132148128Y-77101714D01*
X132148128Y-77101714D02*
X132100509Y-77292190D01*
X132100509Y-77292190D02*
X132052890Y-77387428D01*
X132052890Y-77387428D02*
X132005271Y-77435047D01*
X132005271Y-77435047D02*
X131910033Y-77482666D01*
X131910033Y-77482666D02*
X131814795Y-77482666D01*
X131814795Y-77482666D02*
X131719557Y-77435047D01*
X131719557Y-77435047D02*
X131671938Y-77387428D01*
X131671938Y-77387428D02*
X131624319Y-77292190D01*
X131624319Y-77292190D02*
X131624319Y-77054095D01*
X131624319Y-77054095D02*
X131671938Y-76911238D01*
X132100509Y-76482666D02*
X132100509Y-76149333D01*
X132624319Y-76006476D02*
X132624319Y-76482666D01*
X132624319Y-76482666D02*
X131624319Y-76482666D01*
X131624319Y-76482666D02*
X131624319Y-76006476D01*
X132624319Y-75577904D02*
X131624319Y-75577904D01*
X131624319Y-75577904D02*
X132624319Y-75006476D01*
X132624319Y-75006476D02*
X131624319Y-75006476D01*
X131624319Y-74339809D02*
X131624319Y-74244571D01*
X131624319Y-74244571D02*
X131671938Y-74149333D01*
X131671938Y-74149333D02*
X131719557Y-74101714D01*
X131719557Y-74101714D02*
X131814795Y-74054095D01*
X131814795Y-74054095D02*
X132005271Y-74006476D01*
X132005271Y-74006476D02*
X132243366Y-74006476D01*
X132243366Y-74006476D02*
X132433842Y-74054095D01*
X132433842Y-74054095D02*
X132529080Y-74101714D01*
X132529080Y-74101714D02*
X132576700Y-74149333D01*
X132576700Y-74149333D02*
X132624319Y-74244571D01*
X132624319Y-74244571D02*
X132624319Y-74339809D01*
X132624319Y-74339809D02*
X132576700Y-74435047D01*
X132576700Y-74435047D02*
X132529080Y-74482666D01*
X132529080Y-74482666D02*
X132433842Y-74530285D01*
X132433842Y-74530285D02*
X132243366Y-74577904D01*
X132243366Y-74577904D02*
X132005271Y-74577904D01*
X132005271Y-74577904D02*
X131814795Y-74530285D01*
X131814795Y-74530285D02*
X131719557Y-74482666D01*
X131719557Y-74482666D02*
X131671938Y-74435047D01*
X131671938Y-74435047D02*
X131624319Y-74339809D01*
X131624319Y-73149333D02*
X131624319Y-73339809D01*
X131624319Y-73339809D02*
X131671938Y-73435047D01*
X131671938Y-73435047D02*
X131719557Y-73482666D01*
X131719557Y-73482666D02*
X131862414Y-73577904D01*
X131862414Y-73577904D02*
X132052890Y-73625523D01*
X132052890Y-73625523D02*
X132433842Y-73625523D01*
X132433842Y-73625523D02*
X132529080Y-73577904D01*
X132529080Y-73577904D02*
X132576700Y-73530285D01*
X132576700Y-73530285D02*
X132624319Y-73435047D01*
X132624319Y-73435047D02*
X132624319Y-73244571D01*
X132624319Y-73244571D02*
X132576700Y-73149333D01*
X132576700Y-73149333D02*
X132529080Y-73101714D01*
X132529080Y-73101714D02*
X132433842Y-73054095D01*
X132433842Y-73054095D02*
X132195747Y-73054095D01*
X132195747Y-73054095D02*
X132100509Y-73101714D01*
X132100509Y-73101714D02*
X132052890Y-73149333D01*
X132052890Y-73149333D02*
X132005271Y-73244571D01*
X132005271Y-73244571D02*
X132005271Y-73435047D01*
X132005271Y-73435047D02*
X132052890Y-73530285D01*
X132052890Y-73530285D02*
X132100509Y-73577904D01*
X132100509Y-73577904D02*
X132195747Y-73625523D01*
X131719557Y-72673142D02*
X131671938Y-72625523D01*
X131671938Y-72625523D02*
X131624319Y-72530285D01*
X131624319Y-72530285D02*
X131624319Y-72292190D01*
X131624319Y-72292190D02*
X131671938Y-72196952D01*
X131671938Y-72196952D02*
X131719557Y-72149333D01*
X131719557Y-72149333D02*
X131814795Y-72101714D01*
X131814795Y-72101714D02*
X131910033Y-72101714D01*
X131910033Y-72101714D02*
X132052890Y-72149333D01*
X132052890Y-72149333D02*
X132624319Y-72720761D01*
X132624319Y-72720761D02*
X132624319Y-72101714D01*
X131624319Y-71768380D02*
X131624319Y-71149333D01*
X131624319Y-71149333D02*
X132005271Y-71482666D01*
X132005271Y-71482666D02*
X132005271Y-71339809D01*
X132005271Y-71339809D02*
X132052890Y-71244571D01*
X132052890Y-71244571D02*
X132100509Y-71196952D01*
X132100509Y-71196952D02*
X132195747Y-71149333D01*
X132195747Y-71149333D02*
X132433842Y-71149333D01*
X132433842Y-71149333D02*
X132529080Y-71196952D01*
X132529080Y-71196952D02*
X132576700Y-71244571D01*
X132576700Y-71244571D02*
X132624319Y-71339809D01*
X132624319Y-71339809D02*
X132624319Y-71625523D01*
X132624319Y-71625523D02*
X132576700Y-71720761D01*
X132576700Y-71720761D02*
X132529080Y-71768380D01*
X156773476Y-97169819D02*
X156773476Y-97884104D01*
X156773476Y-97884104D02*
X156725857Y-98026961D01*
X156725857Y-98026961D02*
X156630619Y-98122200D01*
X156630619Y-98122200D02*
X156487762Y-98169819D01*
X156487762Y-98169819D02*
X156392524Y-98169819D01*
X157773476Y-98169819D02*
X157202048Y-98169819D01*
X157487762Y-98169819D02*
X157487762Y-97169819D01*
X157487762Y-97169819D02*
X157392524Y-97312676D01*
X157392524Y-97312676D02*
X157297286Y-97407914D01*
X157297286Y-97407914D02*
X157202048Y-97455533D01*
X158392524Y-97169819D02*
X158487762Y-97169819D01*
X158487762Y-97169819D02*
X158583000Y-97217438D01*
X158583000Y-97217438D02*
X158630619Y-97265057D01*
X158630619Y-97265057D02*
X158678238Y-97360295D01*
X158678238Y-97360295D02*
X158725857Y-97550771D01*
X158725857Y-97550771D02*
X158725857Y-97788866D01*
X158725857Y-97788866D02*
X158678238Y-97979342D01*
X158678238Y-97979342D02*
X158630619Y-98074580D01*
X158630619Y-98074580D02*
X158583000Y-98122200D01*
X158583000Y-98122200D02*
X158487762Y-98169819D01*
X158487762Y-98169819D02*
X158392524Y-98169819D01*
X158392524Y-98169819D02*
X158297286Y-98122200D01*
X158297286Y-98122200D02*
X158249667Y-98074580D01*
X158249667Y-98074580D02*
X158202048Y-97979342D01*
X158202048Y-97979342D02*
X158154429Y-97788866D01*
X158154429Y-97788866D02*
X158154429Y-97550771D01*
X158154429Y-97550771D02*
X158202048Y-97360295D01*
X158202048Y-97360295D02*
X158249667Y-97265057D01*
X158249667Y-97265057D02*
X158297286Y-97217438D01*
X158297286Y-97217438D02*
X158392524Y-97169819D01*
X126117819Y-99821904D02*
X126927342Y-99821904D01*
X126927342Y-99821904D02*
X127022580Y-99774285D01*
X127022580Y-99774285D02*
X127070200Y-99726666D01*
X127070200Y-99726666D02*
X127117819Y-99631428D01*
X127117819Y-99631428D02*
X127117819Y-99440952D01*
X127117819Y-99440952D02*
X127070200Y-99345714D01*
X127070200Y-99345714D02*
X127022580Y-99298095D01*
X127022580Y-99298095D02*
X126927342Y-99250476D01*
X126927342Y-99250476D02*
X126117819Y-99250476D01*
X126213057Y-98821904D02*
X126165438Y-98774285D01*
X126165438Y-98774285D02*
X126117819Y-98679047D01*
X126117819Y-98679047D02*
X126117819Y-98440952D01*
X126117819Y-98440952D02*
X126165438Y-98345714D01*
X126165438Y-98345714D02*
X126213057Y-98298095D01*
X126213057Y-98298095D02*
X126308295Y-98250476D01*
X126308295Y-98250476D02*
X126403533Y-98250476D01*
X126403533Y-98250476D02*
X126546390Y-98298095D01*
X126546390Y-98298095D02*
X127117819Y-98869523D01*
X127117819Y-98869523D02*
X127117819Y-98250476D01*
X112641571Y-92164819D02*
X113308237Y-92164819D01*
X113308237Y-92164819D02*
X112879666Y-93164819D01*
X114117761Y-92498152D02*
X114117761Y-93164819D01*
X113879666Y-92117200D02*
X113641571Y-92831485D01*
X113641571Y-92831485D02*
X114260618Y-92831485D01*
X114593952Y-92879104D02*
X115070142Y-92879104D01*
X114498714Y-93164819D02*
X114832047Y-92164819D01*
X114832047Y-92164819D02*
X115165380Y-93164819D01*
X115498714Y-93164819D02*
X115498714Y-92164819D01*
X115498714Y-92641009D02*
X116070142Y-92641009D01*
X116070142Y-93164819D02*
X116070142Y-92164819D01*
X117117761Y-93069580D02*
X117070142Y-93117200D01*
X117070142Y-93117200D02*
X116927285Y-93164819D01*
X116927285Y-93164819D02*
X116832047Y-93164819D01*
X116832047Y-93164819D02*
X116689190Y-93117200D01*
X116689190Y-93117200D02*
X116593952Y-93021961D01*
X116593952Y-93021961D02*
X116546333Y-92926723D01*
X116546333Y-92926723D02*
X116498714Y-92736247D01*
X116498714Y-92736247D02*
X116498714Y-92593390D01*
X116498714Y-92593390D02*
X116546333Y-92402914D01*
X116546333Y-92402914D02*
X116593952Y-92307676D01*
X116593952Y-92307676D02*
X116689190Y-92212438D01*
X116689190Y-92212438D02*
X116832047Y-92164819D01*
X116832047Y-92164819D02*
X116927285Y-92164819D01*
X116927285Y-92164819D02*
X117070142Y-92212438D01*
X117070142Y-92212438D02*
X117117761Y-92260057D01*
X117403476Y-92164819D02*
X117974904Y-92164819D01*
X117689190Y-93164819D02*
X117689190Y-92164819D01*
X118832047Y-93164819D02*
X118260619Y-93164819D01*
X118546333Y-93164819D02*
X118546333Y-92164819D01*
X118546333Y-92164819D02*
X118451095Y-92307676D01*
X118451095Y-92307676D02*
X118355857Y-92402914D01*
X118355857Y-92402914D02*
X118260619Y-92450533D01*
X119213000Y-92260057D02*
X119260619Y-92212438D01*
X119260619Y-92212438D02*
X119355857Y-92164819D01*
X119355857Y-92164819D02*
X119593952Y-92164819D01*
X119593952Y-92164819D02*
X119689190Y-92212438D01*
X119689190Y-92212438D02*
X119736809Y-92260057D01*
X119736809Y-92260057D02*
X119784428Y-92355295D01*
X119784428Y-92355295D02*
X119784428Y-92450533D01*
X119784428Y-92450533D02*
X119736809Y-92593390D01*
X119736809Y-92593390D02*
X119165381Y-93164819D01*
X119165381Y-93164819D02*
X119784428Y-93164819D01*
X120689190Y-92164819D02*
X120213000Y-92164819D01*
X120213000Y-92164819D02*
X120165381Y-92641009D01*
X120165381Y-92641009D02*
X120213000Y-92593390D01*
X120213000Y-92593390D02*
X120308238Y-92545771D01*
X120308238Y-92545771D02*
X120546333Y-92545771D01*
X120546333Y-92545771D02*
X120641571Y-92593390D01*
X120641571Y-92593390D02*
X120689190Y-92641009D01*
X120689190Y-92641009D02*
X120736809Y-92736247D01*
X120736809Y-92736247D02*
X120736809Y-92974342D01*
X120736809Y-92974342D02*
X120689190Y-93069580D01*
X120689190Y-93069580D02*
X120641571Y-93117200D01*
X120641571Y-93117200D02*
X120546333Y-93164819D01*
X120546333Y-93164819D02*
X120308238Y-93164819D01*
X120308238Y-93164819D02*
X120213000Y-93117200D01*
X120213000Y-93117200D02*
X120165381Y-93069580D01*
X145883333Y-94466580D02*
X145835714Y-94514200D01*
X145835714Y-94514200D02*
X145692857Y-94561819D01*
X145692857Y-94561819D02*
X145597619Y-94561819D01*
X145597619Y-94561819D02*
X145454762Y-94514200D01*
X145454762Y-94514200D02*
X145359524Y-94418961D01*
X145359524Y-94418961D02*
X145311905Y-94323723D01*
X145311905Y-94323723D02*
X145264286Y-94133247D01*
X145264286Y-94133247D02*
X145264286Y-93990390D01*
X145264286Y-93990390D02*
X145311905Y-93799914D01*
X145311905Y-93799914D02*
X145359524Y-93704676D01*
X145359524Y-93704676D02*
X145454762Y-93609438D01*
X145454762Y-93609438D02*
X145597619Y-93561819D01*
X145597619Y-93561819D02*
X145692857Y-93561819D01*
X145692857Y-93561819D02*
X145835714Y-93609438D01*
X145835714Y-93609438D02*
X145883333Y-93657057D01*
X146740476Y-93561819D02*
X146550000Y-93561819D01*
X146550000Y-93561819D02*
X146454762Y-93609438D01*
X146454762Y-93609438D02*
X146407143Y-93657057D01*
X146407143Y-93657057D02*
X146311905Y-93799914D01*
X146311905Y-93799914D02*
X146264286Y-93990390D01*
X146264286Y-93990390D02*
X146264286Y-94371342D01*
X146264286Y-94371342D02*
X146311905Y-94466580D01*
X146311905Y-94466580D02*
X146359524Y-94514200D01*
X146359524Y-94514200D02*
X146454762Y-94561819D01*
X146454762Y-94561819D02*
X146645238Y-94561819D01*
X146645238Y-94561819D02*
X146740476Y-94514200D01*
X146740476Y-94514200D02*
X146788095Y-94466580D01*
X146788095Y-94466580D02*
X146835714Y-94371342D01*
X146835714Y-94371342D02*
X146835714Y-94133247D01*
X146835714Y-94133247D02*
X146788095Y-94038009D01*
X146788095Y-94038009D02*
X146740476Y-93990390D01*
X146740476Y-93990390D02*
X146645238Y-93942771D01*
X146645238Y-93942771D02*
X146454762Y-93942771D01*
X146454762Y-93942771D02*
X146359524Y-93990390D01*
X146359524Y-93990390D02*
X146311905Y-94038009D01*
X146311905Y-94038009D02*
X146264286Y-94133247D01*
X148725143Y-91910819D02*
X148820381Y-91910819D01*
X148820381Y-91910819D02*
X148915619Y-91958438D01*
X148915619Y-91958438D02*
X148963238Y-92006057D01*
X148963238Y-92006057D02*
X149010857Y-92101295D01*
X149010857Y-92101295D02*
X149058476Y-92291771D01*
X149058476Y-92291771D02*
X149058476Y-92529866D01*
X149058476Y-92529866D02*
X149010857Y-92720342D01*
X149010857Y-92720342D02*
X148963238Y-92815580D01*
X148963238Y-92815580D02*
X148915619Y-92863200D01*
X148915619Y-92863200D02*
X148820381Y-92910819D01*
X148820381Y-92910819D02*
X148725143Y-92910819D01*
X148725143Y-92910819D02*
X148629905Y-92863200D01*
X148629905Y-92863200D02*
X148582286Y-92815580D01*
X148582286Y-92815580D02*
X148534667Y-92720342D01*
X148534667Y-92720342D02*
X148487048Y-92529866D01*
X148487048Y-92529866D02*
X148487048Y-92291771D01*
X148487048Y-92291771D02*
X148534667Y-92101295D01*
X148534667Y-92101295D02*
X148582286Y-92006057D01*
X148582286Y-92006057D02*
X148629905Y-91958438D01*
X148629905Y-91958438D02*
X148725143Y-91910819D01*
X149487048Y-92815580D02*
X149534667Y-92863200D01*
X149534667Y-92863200D02*
X149487048Y-92910819D01*
X149487048Y-92910819D02*
X149439429Y-92863200D01*
X149439429Y-92863200D02*
X149487048Y-92815580D01*
X149487048Y-92815580D02*
X149487048Y-92910819D01*
X150487047Y-92910819D02*
X149915619Y-92910819D01*
X150201333Y-92910819D02*
X150201333Y-91910819D01*
X150201333Y-91910819D02*
X150106095Y-92053676D01*
X150106095Y-92053676D02*
X150010857Y-92148914D01*
X150010857Y-92148914D02*
X149915619Y-92196533D01*
X151344190Y-92244152D02*
X151344190Y-92910819D01*
X150915619Y-92244152D02*
X150915619Y-92767961D01*
X150915619Y-92767961D02*
X150963238Y-92863200D01*
X150963238Y-92863200D02*
X151058476Y-92910819D01*
X151058476Y-92910819D02*
X151201333Y-92910819D01*
X151201333Y-92910819D02*
X151296571Y-92863200D01*
X151296571Y-92863200D02*
X151344190Y-92815580D01*
X152153714Y-92387009D02*
X151820381Y-92387009D01*
X151820381Y-92910819D02*
X151820381Y-91910819D01*
X151820381Y-91910819D02*
X152296571Y-91910819D01*
X151725333Y-98149580D02*
X151677714Y-98197200D01*
X151677714Y-98197200D02*
X151534857Y-98244819D01*
X151534857Y-98244819D02*
X151439619Y-98244819D01*
X151439619Y-98244819D02*
X151296762Y-98197200D01*
X151296762Y-98197200D02*
X151201524Y-98101961D01*
X151201524Y-98101961D02*
X151153905Y-98006723D01*
X151153905Y-98006723D02*
X151106286Y-97816247D01*
X151106286Y-97816247D02*
X151106286Y-97673390D01*
X151106286Y-97673390D02*
X151153905Y-97482914D01*
X151153905Y-97482914D02*
X151201524Y-97387676D01*
X151201524Y-97387676D02*
X151296762Y-97292438D01*
X151296762Y-97292438D02*
X151439619Y-97244819D01*
X151439619Y-97244819D02*
X151534857Y-97244819D01*
X151534857Y-97244819D02*
X151677714Y-97292438D01*
X151677714Y-97292438D02*
X151725333Y-97340057D01*
X152630095Y-97244819D02*
X152153905Y-97244819D01*
X152153905Y-97244819D02*
X152106286Y-97721009D01*
X152106286Y-97721009D02*
X152153905Y-97673390D01*
X152153905Y-97673390D02*
X152249143Y-97625771D01*
X152249143Y-97625771D02*
X152487238Y-97625771D01*
X152487238Y-97625771D02*
X152582476Y-97673390D01*
X152582476Y-97673390D02*
X152630095Y-97721009D01*
X152630095Y-97721009D02*
X152677714Y-97816247D01*
X152677714Y-97816247D02*
X152677714Y-98054342D01*
X152677714Y-98054342D02*
X152630095Y-98149580D01*
X152630095Y-98149580D02*
X152582476Y-98197200D01*
X152582476Y-98197200D02*
X152487238Y-98244819D01*
X152487238Y-98244819D02*
X152249143Y-98244819D01*
X152249143Y-98244819D02*
X152153905Y-98197200D01*
X152153905Y-98197200D02*
X152106286Y-98149580D01*
X150852380Y-96974819D02*
X150280952Y-96974819D01*
X150566666Y-96974819D02*
X150566666Y-95974819D01*
X150566666Y-95974819D02*
X150471428Y-96117676D01*
X150471428Y-96117676D02*
X150376190Y-96212914D01*
X150376190Y-96212914D02*
X150280952Y-96260533D01*
X151471428Y-95974819D02*
X151566666Y-95974819D01*
X151566666Y-95974819D02*
X151661904Y-96022438D01*
X151661904Y-96022438D02*
X151709523Y-96070057D01*
X151709523Y-96070057D02*
X151757142Y-96165295D01*
X151757142Y-96165295D02*
X151804761Y-96355771D01*
X151804761Y-96355771D02*
X151804761Y-96593866D01*
X151804761Y-96593866D02*
X151757142Y-96784342D01*
X151757142Y-96784342D02*
X151709523Y-96879580D01*
X151709523Y-96879580D02*
X151661904Y-96927200D01*
X151661904Y-96927200D02*
X151566666Y-96974819D01*
X151566666Y-96974819D02*
X151471428Y-96974819D01*
X151471428Y-96974819D02*
X151376190Y-96927200D01*
X151376190Y-96927200D02*
X151328571Y-96879580D01*
X151328571Y-96879580D02*
X151280952Y-96784342D01*
X151280952Y-96784342D02*
X151233333Y-96593866D01*
X151233333Y-96593866D02*
X151233333Y-96355771D01*
X151233333Y-96355771D02*
X151280952Y-96165295D01*
X151280952Y-96165295D02*
X151328571Y-96070057D01*
X151328571Y-96070057D02*
X151376190Y-96022438D01*
X151376190Y-96022438D02*
X151471428Y-95974819D01*
X152423809Y-95974819D02*
X152519047Y-95974819D01*
X152519047Y-95974819D02*
X152614285Y-96022438D01*
X152614285Y-96022438D02*
X152661904Y-96070057D01*
X152661904Y-96070057D02*
X152709523Y-96165295D01*
X152709523Y-96165295D02*
X152757142Y-96355771D01*
X152757142Y-96355771D02*
X152757142Y-96593866D01*
X152757142Y-96593866D02*
X152709523Y-96784342D01*
X152709523Y-96784342D02*
X152661904Y-96879580D01*
X152661904Y-96879580D02*
X152614285Y-96927200D01*
X152614285Y-96927200D02*
X152519047Y-96974819D01*
X152519047Y-96974819D02*
X152423809Y-96974819D01*
X152423809Y-96974819D02*
X152328571Y-96927200D01*
X152328571Y-96927200D02*
X152280952Y-96879580D01*
X152280952Y-96879580D02*
X152233333Y-96784342D01*
X152233333Y-96784342D02*
X152185714Y-96593866D01*
X152185714Y-96593866D02*
X152185714Y-96355771D01*
X152185714Y-96355771D02*
X152233333Y-96165295D01*
X152233333Y-96165295D02*
X152280952Y-96070057D01*
X152280952Y-96070057D02*
X152328571Y-96022438D01*
X152328571Y-96022438D02*
X152423809Y-95974819D01*
X153614285Y-96308152D02*
X153614285Y-96974819D01*
X153185714Y-96308152D02*
X153185714Y-96831961D01*
X153185714Y-96831961D02*
X153233333Y-96927200D01*
X153233333Y-96927200D02*
X153328571Y-96974819D01*
X153328571Y-96974819D02*
X153471428Y-96974819D01*
X153471428Y-96974819D02*
X153566666Y-96927200D01*
X153566666Y-96927200D02*
X153614285Y-96879580D01*
X154423809Y-96451009D02*
X154090476Y-96451009D01*
X154090476Y-96974819D02*
X154090476Y-95974819D01*
X154090476Y-95974819D02*
X154566666Y-95974819D01*
X165179476Y-71176819D02*
X165179476Y-71891104D01*
X165179476Y-71891104D02*
X165131857Y-72033961D01*
X165131857Y-72033961D02*
X165036619Y-72129200D01*
X165036619Y-72129200D02*
X164893762Y-72176819D01*
X164893762Y-72176819D02*
X164798524Y-72176819D01*
X166179476Y-72176819D02*
X165608048Y-72176819D01*
X165893762Y-72176819D02*
X165893762Y-71176819D01*
X165893762Y-71176819D02*
X165798524Y-71319676D01*
X165798524Y-71319676D02*
X165703286Y-71414914D01*
X165703286Y-71414914D02*
X165608048Y-71462533D01*
X167131857Y-72176819D02*
X166560429Y-72176819D01*
X166846143Y-72176819D02*
X166846143Y-71176819D01*
X166846143Y-71176819D02*
X166750905Y-71319676D01*
X166750905Y-71319676D02*
X166655667Y-71414914D01*
X166655667Y-71414914D02*
X166560429Y-71462533D01*
X169063200Y-66531856D02*
X169110819Y-66388999D01*
X169110819Y-66388999D02*
X169110819Y-66150904D01*
X169110819Y-66150904D02*
X169063200Y-66055666D01*
X169063200Y-66055666D02*
X169015580Y-66008047D01*
X169015580Y-66008047D02*
X168920342Y-65960428D01*
X168920342Y-65960428D02*
X168825104Y-65960428D01*
X168825104Y-65960428D02*
X168729866Y-66008047D01*
X168729866Y-66008047D02*
X168682247Y-66055666D01*
X168682247Y-66055666D02*
X168634628Y-66150904D01*
X168634628Y-66150904D02*
X168587009Y-66341380D01*
X168587009Y-66341380D02*
X168539390Y-66436618D01*
X168539390Y-66436618D02*
X168491771Y-66484237D01*
X168491771Y-66484237D02*
X168396533Y-66531856D01*
X168396533Y-66531856D02*
X168301295Y-66531856D01*
X168301295Y-66531856D02*
X168206057Y-66484237D01*
X168206057Y-66484237D02*
X168158438Y-66436618D01*
X168158438Y-66436618D02*
X168110819Y-66341380D01*
X168110819Y-66341380D02*
X168110819Y-66103285D01*
X168110819Y-66103285D02*
X168158438Y-65960428D01*
X169110819Y-65531856D02*
X168110819Y-65531856D01*
X168587009Y-65531856D02*
X168587009Y-64960428D01*
X169110819Y-64960428D02*
X168110819Y-64960428D01*
X168110819Y-64627094D02*
X168110819Y-64055666D01*
X169110819Y-64341380D02*
X168110819Y-64341380D01*
X168444152Y-63293761D02*
X169110819Y-63293761D01*
X168063200Y-63531856D02*
X168777485Y-63769951D01*
X168777485Y-63769951D02*
X168777485Y-63150904D01*
X168110819Y-62579475D02*
X168110819Y-62484237D01*
X168110819Y-62484237D02*
X168158438Y-62388999D01*
X168158438Y-62388999D02*
X168206057Y-62341380D01*
X168206057Y-62341380D02*
X168301295Y-62293761D01*
X168301295Y-62293761D02*
X168491771Y-62246142D01*
X168491771Y-62246142D02*
X168729866Y-62246142D01*
X168729866Y-62246142D02*
X168920342Y-62293761D01*
X168920342Y-62293761D02*
X169015580Y-62341380D01*
X169015580Y-62341380D02*
X169063200Y-62388999D01*
X169063200Y-62388999D02*
X169110819Y-62484237D01*
X169110819Y-62484237D02*
X169110819Y-62579475D01*
X169110819Y-62579475D02*
X169063200Y-62674713D01*
X169063200Y-62674713D02*
X169015580Y-62722332D01*
X169015580Y-62722332D02*
X168920342Y-62769951D01*
X168920342Y-62769951D02*
X168729866Y-62817570D01*
X168729866Y-62817570D02*
X168491771Y-62817570D01*
X168491771Y-62817570D02*
X168301295Y-62769951D01*
X168301295Y-62769951D02*
X168206057Y-62722332D01*
X168206057Y-62722332D02*
X168158438Y-62674713D01*
X168158438Y-62674713D02*
X168110819Y-62579475D01*
X124184580Y-93257666D02*
X124232200Y-93305285D01*
X124232200Y-93305285D02*
X124279819Y-93448142D01*
X124279819Y-93448142D02*
X124279819Y-93543380D01*
X124279819Y-93543380D02*
X124232200Y-93686237D01*
X124232200Y-93686237D02*
X124136961Y-93781475D01*
X124136961Y-93781475D02*
X124041723Y-93829094D01*
X124041723Y-93829094D02*
X123851247Y-93876713D01*
X123851247Y-93876713D02*
X123708390Y-93876713D01*
X123708390Y-93876713D02*
X123517914Y-93829094D01*
X123517914Y-93829094D02*
X123422676Y-93781475D01*
X123422676Y-93781475D02*
X123327438Y-93686237D01*
X123327438Y-93686237D02*
X123279819Y-93543380D01*
X123279819Y-93543380D02*
X123279819Y-93448142D01*
X123279819Y-93448142D02*
X123327438Y-93305285D01*
X123327438Y-93305285D02*
X123375057Y-93257666D01*
X123279819Y-92924332D02*
X123279819Y-92305285D01*
X123279819Y-92305285D02*
X123660771Y-92638618D01*
X123660771Y-92638618D02*
X123660771Y-92495761D01*
X123660771Y-92495761D02*
X123708390Y-92400523D01*
X123708390Y-92400523D02*
X123756009Y-92352904D01*
X123756009Y-92352904D02*
X123851247Y-92305285D01*
X123851247Y-92305285D02*
X124089342Y-92305285D01*
X124089342Y-92305285D02*
X124184580Y-92352904D01*
X124184580Y-92352904D02*
X124232200Y-92400523D01*
X124232200Y-92400523D02*
X124279819Y-92495761D01*
X124279819Y-92495761D02*
X124279819Y-92781475D01*
X124279819Y-92781475D02*
X124232200Y-92876713D01*
X124232200Y-92876713D02*
X124184580Y-92924332D01*
X124549819Y-95241856D02*
X124549819Y-95146618D01*
X124549819Y-95146618D02*
X124597438Y-95051380D01*
X124597438Y-95051380D02*
X124645057Y-95003761D01*
X124645057Y-95003761D02*
X124740295Y-94956142D01*
X124740295Y-94956142D02*
X124930771Y-94908523D01*
X124930771Y-94908523D02*
X125168866Y-94908523D01*
X125168866Y-94908523D02*
X125359342Y-94956142D01*
X125359342Y-94956142D02*
X125454580Y-95003761D01*
X125454580Y-95003761D02*
X125502200Y-95051380D01*
X125502200Y-95051380D02*
X125549819Y-95146618D01*
X125549819Y-95146618D02*
X125549819Y-95241856D01*
X125549819Y-95241856D02*
X125502200Y-95337094D01*
X125502200Y-95337094D02*
X125454580Y-95384713D01*
X125454580Y-95384713D02*
X125359342Y-95432332D01*
X125359342Y-95432332D02*
X125168866Y-95479951D01*
X125168866Y-95479951D02*
X124930771Y-95479951D01*
X124930771Y-95479951D02*
X124740295Y-95432332D01*
X124740295Y-95432332D02*
X124645057Y-95384713D01*
X124645057Y-95384713D02*
X124597438Y-95337094D01*
X124597438Y-95337094D02*
X124549819Y-95241856D01*
X125454580Y-94479951D02*
X125502200Y-94432332D01*
X125502200Y-94432332D02*
X125549819Y-94479951D01*
X125549819Y-94479951D02*
X125502200Y-94527570D01*
X125502200Y-94527570D02*
X125454580Y-94479951D01*
X125454580Y-94479951D02*
X125549819Y-94479951D01*
X125549819Y-93479952D02*
X125549819Y-94051380D01*
X125549819Y-93765666D02*
X124549819Y-93765666D01*
X124549819Y-93765666D02*
X124692676Y-93860904D01*
X124692676Y-93860904D02*
X124787914Y-93956142D01*
X124787914Y-93956142D02*
X124835533Y-94051380D01*
X124883152Y-92622809D02*
X125549819Y-92622809D01*
X124883152Y-93051380D02*
X125406961Y-93051380D01*
X125406961Y-93051380D02*
X125502200Y-93003761D01*
X125502200Y-93003761D02*
X125549819Y-92908523D01*
X125549819Y-92908523D02*
X125549819Y-92765666D01*
X125549819Y-92765666D02*
X125502200Y-92670428D01*
X125502200Y-92670428D02*
X125454580Y-92622809D01*
X125026009Y-91813285D02*
X125026009Y-92146618D01*
X125549819Y-92146618D02*
X124549819Y-92146618D01*
X124549819Y-92146618D02*
X124549819Y-91670428D01*
X144486333Y-88878580D02*
X144438714Y-88926200D01*
X144438714Y-88926200D02*
X144295857Y-88973819D01*
X144295857Y-88973819D02*
X144200619Y-88973819D01*
X144200619Y-88973819D02*
X144057762Y-88926200D01*
X144057762Y-88926200D02*
X143962524Y-88830961D01*
X143962524Y-88830961D02*
X143914905Y-88735723D01*
X143914905Y-88735723D02*
X143867286Y-88545247D01*
X143867286Y-88545247D02*
X143867286Y-88402390D01*
X143867286Y-88402390D02*
X143914905Y-88211914D01*
X143914905Y-88211914D02*
X143962524Y-88116676D01*
X143962524Y-88116676D02*
X144057762Y-88021438D01*
X144057762Y-88021438D02*
X144200619Y-87973819D01*
X144200619Y-87973819D02*
X144295857Y-87973819D01*
X144295857Y-87973819D02*
X144438714Y-88021438D01*
X144438714Y-88021438D02*
X144486333Y-88069057D01*
X145438714Y-88973819D02*
X144867286Y-88973819D01*
X145153000Y-88973819D02*
X145153000Y-87973819D01*
X145153000Y-87973819D02*
X145057762Y-88116676D01*
X145057762Y-88116676D02*
X144962524Y-88211914D01*
X144962524Y-88211914D02*
X144867286Y-88259533D01*
X146280380Y-80210819D02*
X145708952Y-80210819D01*
X145994666Y-80210819D02*
X145994666Y-79210819D01*
X145994666Y-79210819D02*
X145899428Y-79353676D01*
X145899428Y-79353676D02*
X145804190Y-79448914D01*
X145804190Y-79448914D02*
X145708952Y-79496533D01*
X146899428Y-79210819D02*
X146994666Y-79210819D01*
X146994666Y-79210819D02*
X147089904Y-79258438D01*
X147089904Y-79258438D02*
X147137523Y-79306057D01*
X147137523Y-79306057D02*
X147185142Y-79401295D01*
X147185142Y-79401295D02*
X147232761Y-79591771D01*
X147232761Y-79591771D02*
X147232761Y-79829866D01*
X147232761Y-79829866D02*
X147185142Y-80020342D01*
X147185142Y-80020342D02*
X147137523Y-80115580D01*
X147137523Y-80115580D02*
X147089904Y-80163200D01*
X147089904Y-80163200D02*
X146994666Y-80210819D01*
X146994666Y-80210819D02*
X146899428Y-80210819D01*
X146899428Y-80210819D02*
X146804190Y-80163200D01*
X146804190Y-80163200D02*
X146756571Y-80115580D01*
X146756571Y-80115580D02*
X146708952Y-80020342D01*
X146708952Y-80020342D02*
X146661333Y-79829866D01*
X146661333Y-79829866D02*
X146661333Y-79591771D01*
X146661333Y-79591771D02*
X146708952Y-79401295D01*
X146708952Y-79401295D02*
X146756571Y-79306057D01*
X146756571Y-79306057D02*
X146804190Y-79258438D01*
X146804190Y-79258438D02*
X146899428Y-79210819D01*
X147851809Y-79210819D02*
X147947047Y-79210819D01*
X147947047Y-79210819D02*
X148042285Y-79258438D01*
X148042285Y-79258438D02*
X148089904Y-79306057D01*
X148089904Y-79306057D02*
X148137523Y-79401295D01*
X148137523Y-79401295D02*
X148185142Y-79591771D01*
X148185142Y-79591771D02*
X148185142Y-79829866D01*
X148185142Y-79829866D02*
X148137523Y-80020342D01*
X148137523Y-80020342D02*
X148089904Y-80115580D01*
X148089904Y-80115580D02*
X148042285Y-80163200D01*
X148042285Y-80163200D02*
X147947047Y-80210819D01*
X147947047Y-80210819D02*
X147851809Y-80210819D01*
X147851809Y-80210819D02*
X147756571Y-80163200D01*
X147756571Y-80163200D02*
X147708952Y-80115580D01*
X147708952Y-80115580D02*
X147661333Y-80020342D01*
X147661333Y-80020342D02*
X147613714Y-79829866D01*
X147613714Y-79829866D02*
X147613714Y-79591771D01*
X147613714Y-79591771D02*
X147661333Y-79401295D01*
X147661333Y-79401295D02*
X147708952Y-79306057D01*
X147708952Y-79306057D02*
X147756571Y-79258438D01*
X147756571Y-79258438D02*
X147851809Y-79210819D01*
X149042285Y-79544152D02*
X149042285Y-80210819D01*
X148613714Y-79544152D02*
X148613714Y-80067961D01*
X148613714Y-80067961D02*
X148661333Y-80163200D01*
X148661333Y-80163200D02*
X148756571Y-80210819D01*
X148756571Y-80210819D02*
X148899428Y-80210819D01*
X148899428Y-80210819D02*
X148994666Y-80163200D01*
X148994666Y-80163200D02*
X149042285Y-80115580D01*
X149851809Y-79687009D02*
X149518476Y-79687009D01*
X149518476Y-80210819D02*
X149518476Y-79210819D01*
X149518476Y-79210819D02*
X149994666Y-79210819D01*
%TO.C,TP2*%
D13*
X142035000Y-102235000D02*
G75*
G02*
X138635000Y-102235000I-1700000J0D01*
G01*
X138635000Y-102235000D02*
G75*
G02*
X142035000Y-102235000I1700000J0D01*
G01*
%TO.C,C4*%
X105648000Y-58027000D02*
X113808000Y-58027000D01*
X105648000Y-58067000D02*
X113808000Y-58067000D01*
X105649000Y-57987000D02*
X113807000Y-57987000D01*
X105650000Y-57947000D02*
X113806000Y-57947000D01*
X105651000Y-57907000D02*
X113805000Y-57907000D01*
X105653000Y-57867000D02*
X113803000Y-57867000D01*
X105655000Y-57827000D02*
X113801000Y-57827000D01*
X105658000Y-57787000D02*
X113798000Y-57787000D01*
X105660000Y-57747000D02*
X113796000Y-57747000D01*
X105664000Y-57707000D02*
X113792000Y-57707000D01*
X105667000Y-57667000D02*
X113789000Y-57667000D01*
X105672000Y-57627000D02*
X113784000Y-57627000D01*
X105676000Y-57587000D02*
X113780000Y-57587000D01*
X105681000Y-57547000D02*
X113775000Y-57547000D01*
X105686000Y-57507000D02*
X113770000Y-57507000D01*
X105692000Y-57467000D02*
X113764000Y-57467000D01*
X105698000Y-57427000D02*
X113758000Y-57427000D01*
X105705000Y-57387000D02*
X113751000Y-57387000D01*
X105711000Y-57347000D02*
X108688000Y-57347000D01*
X105719000Y-57307000D02*
X108688000Y-57307000D01*
X105726000Y-57267000D02*
X108688000Y-57267000D01*
X105735000Y-57227000D02*
X108688000Y-57227000D01*
X105743000Y-57187000D02*
X108688000Y-57187000D01*
X105752000Y-57147000D02*
X108688000Y-57147000D01*
X105761000Y-57107000D02*
X108688000Y-57107000D01*
X105771000Y-57067000D02*
X108688000Y-57067000D01*
X105781000Y-57027000D02*
X108688000Y-57027000D01*
X105792000Y-56987000D02*
X108688000Y-56987000D01*
X105803000Y-56947000D02*
X108688000Y-56947000D01*
X105815000Y-56907000D02*
X108688000Y-56907000D01*
X105827000Y-56867000D02*
X108688000Y-56867000D01*
X105839000Y-56827000D02*
X108688000Y-56827000D01*
X105852000Y-56787000D02*
X108688000Y-56787000D01*
X105865000Y-56747000D02*
X108688000Y-56747000D01*
X105879000Y-56707000D02*
X108688000Y-56707000D01*
X105893000Y-56667000D02*
X108688000Y-56667000D01*
X105908000Y-56627000D02*
X108688000Y-56627000D01*
X105923000Y-56587000D02*
X108688000Y-56587000D01*
X105939000Y-56547000D02*
X108688000Y-56547000D01*
X105955000Y-56507000D02*
X108688000Y-56507000D01*
X105971000Y-56467000D02*
X108688000Y-56467000D01*
X105988000Y-56427000D02*
X108688000Y-56427000D01*
X106006000Y-56387000D02*
X108688000Y-56387000D01*
X106024000Y-56347000D02*
X108688000Y-56347000D01*
X106043000Y-56307000D02*
X108688000Y-56307000D01*
X106062000Y-56267000D02*
X108688000Y-56267000D01*
X106082000Y-56227000D02*
X108688000Y-56227000D01*
X106102000Y-56187000D02*
X108688000Y-56187000D01*
X106123000Y-56147000D02*
X108688000Y-56147000D01*
X106144000Y-56107000D02*
X108688000Y-56107000D01*
X106166000Y-56067000D02*
X108688000Y-56067000D01*
X106189000Y-56027000D02*
X108688000Y-56027000D01*
X106212000Y-55987000D02*
X108688000Y-55987000D01*
X106235000Y-55947000D02*
X108688000Y-55947000D01*
X106260000Y-55907000D02*
X108688000Y-55907000D01*
X106285000Y-55867000D02*
X108688000Y-55867000D01*
X106310000Y-55827000D02*
X108688000Y-55827000D01*
X106336000Y-55787000D02*
X108688000Y-55787000D01*
X106363000Y-55747000D02*
X108688000Y-55747000D01*
X106391000Y-55707000D02*
X108688000Y-55707000D01*
X106419000Y-55667000D02*
X108688000Y-55667000D01*
X106448000Y-55627000D02*
X108688000Y-55627000D01*
X106478000Y-55587000D02*
X108688000Y-55587000D01*
X106509000Y-55547000D02*
X108688000Y-55547000D01*
X106540000Y-55507000D02*
X108688000Y-55507000D01*
X106572000Y-55467000D02*
X108688000Y-55467000D01*
X106605000Y-55427000D02*
X108688000Y-55427000D01*
X106639000Y-55387000D02*
X108688000Y-55387000D01*
X106673000Y-55347000D02*
X108688000Y-55347000D01*
X106709000Y-55307000D02*
X108688000Y-55307000D01*
X106746000Y-55267000D02*
X112710000Y-55267000D01*
X106783000Y-55227000D02*
X112673000Y-55227000D01*
X106822000Y-55187000D02*
X112634000Y-55187000D01*
X106861000Y-55147000D02*
X112595000Y-55147000D01*
X106902000Y-55107000D02*
X112554000Y-55107000D01*
X106944000Y-55067000D02*
X112512000Y-55067000D01*
X106987000Y-55027000D02*
X112469000Y-55027000D01*
X107013000Y-62076698D02*
X107813000Y-62076698D01*
X107032000Y-54987000D02*
X112424000Y-54987000D01*
X107077000Y-54947000D02*
X112379000Y-54947000D01*
X107124000Y-54907000D02*
X112332000Y-54907000D01*
X107173000Y-54867000D02*
X112283000Y-54867000D01*
X107223000Y-54827000D02*
X112233000Y-54827000D01*
X107275000Y-54787000D02*
X112181000Y-54787000D01*
X107328000Y-54747000D02*
X112128000Y-54747000D01*
X107384000Y-54707000D02*
X112072000Y-54707000D01*
X107413000Y-62476698D02*
X107413000Y-61676698D01*
X107441000Y-54667000D02*
X112015000Y-54667000D01*
X107501000Y-54627000D02*
X111955000Y-54627000D01*
X107563000Y-54587000D02*
X111893000Y-54587000D01*
X107627000Y-54547000D02*
X111829000Y-54547000D01*
X107694000Y-54507000D02*
X111762000Y-54507000D01*
X107764000Y-54467000D02*
X111692000Y-54467000D01*
X107838000Y-54427000D02*
X111618000Y-54427000D01*
X107915000Y-54387000D02*
X111541000Y-54387000D01*
X107997000Y-54347000D02*
X111459000Y-54347000D01*
X108084000Y-54307000D02*
X111372000Y-54307000D01*
X108176000Y-54267000D02*
X111280000Y-54267000D01*
X108275000Y-54227000D02*
X111181000Y-54227000D01*
X108382000Y-54187000D02*
X111074000Y-54187000D01*
X108500000Y-54147000D02*
X110956000Y-54147000D01*
X108631000Y-54107000D02*
X110825000Y-54107000D01*
X108781000Y-54067000D02*
X110675000Y-54067000D01*
X108960000Y-54027000D02*
X110496000Y-54027000D01*
X109195000Y-53987000D02*
X110261000Y-53987000D01*
X110768000Y-55307000D02*
X112747000Y-55307000D01*
X110768000Y-55347000D02*
X112783000Y-55347000D01*
X110768000Y-55387000D02*
X112817000Y-55387000D01*
X110768000Y-55427000D02*
X112851000Y-55427000D01*
X110768000Y-55467000D02*
X112884000Y-55467000D01*
X110768000Y-55507000D02*
X112916000Y-55507000D01*
X110768000Y-55547000D02*
X112947000Y-55547000D01*
X110768000Y-55587000D02*
X112978000Y-55587000D01*
X110768000Y-55627000D02*
X113008000Y-55627000D01*
X110768000Y-55667000D02*
X113037000Y-55667000D01*
X110768000Y-55707000D02*
X113065000Y-55707000D01*
X110768000Y-55747000D02*
X113093000Y-55747000D01*
X110768000Y-55787000D02*
X113120000Y-55787000D01*
X110768000Y-55827000D02*
X113146000Y-55827000D01*
X110768000Y-55867000D02*
X113171000Y-55867000D01*
X110768000Y-55907000D02*
X113196000Y-55907000D01*
X110768000Y-55947000D02*
X113221000Y-55947000D01*
X110768000Y-55987000D02*
X113244000Y-55987000D01*
X110768000Y-56027000D02*
X113267000Y-56027000D01*
X110768000Y-56067000D02*
X113290000Y-56067000D01*
X110768000Y-56107000D02*
X113312000Y-56107000D01*
X110768000Y-56147000D02*
X113333000Y-56147000D01*
X110768000Y-56187000D02*
X113354000Y-56187000D01*
X110768000Y-56227000D02*
X113374000Y-56227000D01*
X110768000Y-56267000D02*
X113394000Y-56267000D01*
X110768000Y-56307000D02*
X113413000Y-56307000D01*
X110768000Y-56347000D02*
X113432000Y-56347000D01*
X110768000Y-56387000D02*
X113450000Y-56387000D01*
X110768000Y-56427000D02*
X113468000Y-56427000D01*
X110768000Y-56467000D02*
X113485000Y-56467000D01*
X110768000Y-56507000D02*
X113501000Y-56507000D01*
X110768000Y-56547000D02*
X113517000Y-56547000D01*
X110768000Y-56587000D02*
X113533000Y-56587000D01*
X110768000Y-56627000D02*
X113548000Y-56627000D01*
X110768000Y-56667000D02*
X113563000Y-56667000D01*
X110768000Y-56707000D02*
X113577000Y-56707000D01*
X110768000Y-56747000D02*
X113591000Y-56747000D01*
X110768000Y-56787000D02*
X113604000Y-56787000D01*
X110768000Y-56827000D02*
X113617000Y-56827000D01*
X110768000Y-56867000D02*
X113629000Y-56867000D01*
X110768000Y-56907000D02*
X113641000Y-56907000D01*
X110768000Y-56947000D02*
X113653000Y-56947000D01*
X110768000Y-56987000D02*
X113664000Y-56987000D01*
X110768000Y-57027000D02*
X113675000Y-57027000D01*
X110768000Y-57067000D02*
X113685000Y-57067000D01*
X110768000Y-57107000D02*
X113695000Y-57107000D01*
X110768000Y-57147000D02*
X113704000Y-57147000D01*
X110768000Y-57187000D02*
X113713000Y-57187000D01*
X110768000Y-57227000D02*
X113721000Y-57227000D01*
X110768000Y-57267000D02*
X113730000Y-57267000D01*
X110768000Y-57307000D02*
X113737000Y-57307000D01*
X110768000Y-57347000D02*
X113745000Y-57347000D01*
X113848000Y-58067000D02*
G75*
G02*
X105608000Y-58067000I-4120000J0D01*
G01*
X105608000Y-58067000D02*
G75*
G02*
X113848000Y-58067000I4120000J0D01*
G01*
%TO.C,TP1*%
X164133000Y-96774000D02*
G75*
G02*
X160733000Y-96774000I-1700000J0D01*
G01*
X160733000Y-96774000D02*
G75*
G02*
X164133000Y-96774000I1700000J0D01*
G01*
%TO.C,J12*%
X164863000Y-93091000D02*
X164863000Y-77741000D01*
X167623000Y-77741000D02*
X164863000Y-77741000D01*
X167623000Y-93091000D02*
X164863000Y-93091000D01*
X167623000Y-93091000D02*
X167623000Y-77741000D01*
X167623000Y-94361000D02*
X167623000Y-95741000D01*
X167623000Y-95741000D02*
X166243000Y-95741000D01*
%TO.C,J3*%
X155211000Y-85725000D02*
X155211000Y-67835000D01*
X157971000Y-67835000D02*
X155211000Y-67835000D01*
X157971000Y-85725000D02*
X155211000Y-85725000D01*
X157971000Y-85725000D02*
X157971000Y-67835000D01*
X157971000Y-86995000D02*
X157971000Y-88375000D01*
X157971000Y-88375000D02*
X156591000Y-88375000D01*
%TO.C,U1*%
D14*
X109032000Y-84066000D02*
X109032000Y-65066000D01*
X110532000Y-63566000D02*
X129532000Y-63566000D01*
X129532000Y-85566000D02*
X110532000Y-85566000D01*
X131032000Y-65066000D02*
X131032000Y-84066000D01*
X109032000Y-65066000D02*
G75*
G02*
X110532000Y-63566000I1500001J-1D01*
G01*
X110532000Y-85566000D02*
G75*
G02*
X109032000Y-84066000I1J1500001D01*
G01*
X129532000Y-63566000D02*
G75*
G02*
X131032000Y-65066000I0J-1500000D01*
G01*
X131032000Y-84066000D02*
G75*
G02*
X129532000Y-85566000I-1500000J0D01*
G01*
D10*
X108332000Y-68196000D02*
G75*
G02*
X108132000Y-68196000I-100000J0D01*
G01*
X108132000Y-68196000D02*
G75*
G02*
X108332000Y-68196000I100000J0D01*
G01*
%TO.C,J10*%
D13*
X154473000Y-99910000D02*
X155523000Y-99910000D01*
X154473000Y-102410000D02*
X154473000Y-99910000D01*
X155523000Y-99910000D02*
X155523000Y-98920000D01*
X155643000Y-104380000D02*
X159523000Y-104380000D01*
X160693000Y-99910000D02*
X159643000Y-99910000D01*
X160693000Y-102410000D02*
X160693000Y-99910000D01*
%TO.C,U2*%
X107763000Y-96810000D02*
X107763000Y-101310000D01*
X107763000Y-101310000D02*
X125663000Y-101310000D01*
X125663000Y-96810000D02*
X107763000Y-96810000D01*
X125663000Y-98060000D02*
X125663000Y-96810000D01*
X125663000Y-101310000D02*
X125663000Y-100060000D01*
X125663000Y-100060000D02*
G75*
G02*
X125663000Y-98060000I0J1000000D01*
G01*
%TO.C,C6*%
X144430000Y-91082000D02*
X147670000Y-91082000D01*
X144430000Y-91230000D02*
X144430000Y-91082000D01*
X144430000Y-93322000D02*
X144430000Y-93174000D01*
X147670000Y-91082000D02*
X147670000Y-91230000D01*
X147670000Y-93174000D02*
X147670000Y-93322000D01*
X147670000Y-93322000D02*
X144430000Y-93322000D01*
%TO.C,C5*%
X143142700Y-100609000D02*
X143142700Y-99543000D01*
X143182700Y-100844000D02*
X143182700Y-99308000D01*
X143222700Y-101023000D02*
X143222700Y-99129000D01*
X143262700Y-101173000D02*
X143262700Y-98979000D01*
X143302700Y-101304000D02*
X143302700Y-98848000D01*
X143342700Y-101422000D02*
X143342700Y-98730000D01*
X143382700Y-101529000D02*
X143382700Y-98623000D01*
X143422700Y-101628000D02*
X143422700Y-98524000D01*
X143462700Y-101720000D02*
X143462700Y-98432000D01*
X143502700Y-101807000D02*
X143502700Y-98345000D01*
X143542700Y-101889000D02*
X143542700Y-98263000D01*
X143582700Y-101966000D02*
X143582700Y-98186000D01*
X143622700Y-102040000D02*
X143622700Y-98112000D01*
X143662700Y-102110000D02*
X143662700Y-98042000D01*
X143702700Y-102177000D02*
X143702700Y-97975000D01*
X143742700Y-102241000D02*
X143742700Y-97911000D01*
X143782700Y-102303000D02*
X143782700Y-97849000D01*
X143822700Y-102363000D02*
X143822700Y-97789000D01*
X143862700Y-102420000D02*
X143862700Y-97732000D01*
X143902700Y-102476000D02*
X143902700Y-97676000D01*
X143942700Y-102529000D02*
X143942700Y-97623000D01*
X143982700Y-102581000D02*
X143982700Y-97571000D01*
X144022700Y-102631000D02*
X144022700Y-97521000D01*
X144062700Y-102680000D02*
X144062700Y-97472000D01*
X144102700Y-102727000D02*
X144102700Y-97425000D01*
X144142700Y-102772000D02*
X144142700Y-97380000D01*
X144182700Y-102817000D02*
X144182700Y-97335000D01*
X144222700Y-102860000D02*
X144222700Y-97292000D01*
X144262700Y-102902000D02*
X144262700Y-97250000D01*
X144302700Y-102943000D02*
X144302700Y-97209000D01*
X144342700Y-102982000D02*
X144342700Y-97170000D01*
X144382700Y-103021000D02*
X144382700Y-97131000D01*
X144422700Y-103058000D02*
X144422700Y-97094000D01*
X144462700Y-99036000D02*
X144462700Y-97057000D01*
X144462700Y-103095000D02*
X144462700Y-101116000D01*
X144502700Y-99036000D02*
X144502700Y-97021000D01*
X144502700Y-103131000D02*
X144502700Y-101116000D01*
X144542700Y-99036000D02*
X144542700Y-96987000D01*
X144542700Y-103165000D02*
X144542700Y-101116000D01*
X144582700Y-99036000D02*
X144582700Y-96953000D01*
X144582700Y-103199000D02*
X144582700Y-101116000D01*
X144622700Y-99036000D02*
X144622700Y-96920000D01*
X144622700Y-103232000D02*
X144622700Y-101116000D01*
X144662700Y-99036000D02*
X144662700Y-96888000D01*
X144662700Y-103264000D02*
X144662700Y-101116000D01*
X144702700Y-99036000D02*
X144702700Y-96857000D01*
X144702700Y-103295000D02*
X144702700Y-101116000D01*
X144742700Y-99036000D02*
X144742700Y-96826000D01*
X144742700Y-103326000D02*
X144742700Y-101116000D01*
X144782700Y-99036000D02*
X144782700Y-96796000D01*
X144782700Y-103356000D02*
X144782700Y-101116000D01*
X144822700Y-99036000D02*
X144822700Y-96767000D01*
X144822700Y-103385000D02*
X144822700Y-101116000D01*
X144862700Y-99036000D02*
X144862700Y-96739000D01*
X144862700Y-103413000D02*
X144862700Y-101116000D01*
X144902700Y-99036000D02*
X144902700Y-96711000D01*
X144902700Y-103441000D02*
X144902700Y-101116000D01*
X144942700Y-99036000D02*
X144942700Y-96684000D01*
X144942700Y-103468000D02*
X144942700Y-101116000D01*
X144982700Y-99036000D02*
X144982700Y-96658000D01*
X144982700Y-103494000D02*
X144982700Y-101116000D01*
X145022700Y-99036000D02*
X145022700Y-96633000D01*
X145022700Y-103519000D02*
X145022700Y-101116000D01*
X145062700Y-99036000D02*
X145062700Y-96608000D01*
X145062700Y-103544000D02*
X145062700Y-101116000D01*
X145102700Y-99036000D02*
X145102700Y-96583000D01*
X145102700Y-103569000D02*
X145102700Y-101116000D01*
X145142700Y-99036000D02*
X145142700Y-96560000D01*
X145142700Y-103592000D02*
X145142700Y-101116000D01*
X145182700Y-99036000D02*
X145182700Y-96537000D01*
X145182700Y-103615000D02*
X145182700Y-101116000D01*
X145222700Y-99036000D02*
X145222700Y-96514000D01*
X145222700Y-103638000D02*
X145222700Y-101116000D01*
X145262700Y-99036000D02*
X145262700Y-96492000D01*
X145262700Y-103660000D02*
X145262700Y-101116000D01*
X145302700Y-99036000D02*
X145302700Y-96471000D01*
X145302700Y-103681000D02*
X145302700Y-101116000D01*
X145342700Y-99036000D02*
X145342700Y-96450000D01*
X145342700Y-103702000D02*
X145342700Y-101116000D01*
X145382700Y-99036000D02*
X145382700Y-96430000D01*
X145382700Y-103722000D02*
X145382700Y-101116000D01*
X145422700Y-99036000D02*
X145422700Y-96410000D01*
X145422700Y-103742000D02*
X145422700Y-101116000D01*
X145462700Y-99036000D02*
X145462700Y-96391000D01*
X145462700Y-103761000D02*
X145462700Y-101116000D01*
X145502700Y-99036000D02*
X145502700Y-96372000D01*
X145502700Y-103780000D02*
X145502700Y-101116000D01*
X145542700Y-99036000D02*
X145542700Y-96354000D01*
X145542700Y-103798000D02*
X145542700Y-101116000D01*
X145582700Y-99036000D02*
X145582700Y-96336000D01*
X145582700Y-103816000D02*
X145582700Y-101116000D01*
X145622700Y-99036000D02*
X145622700Y-96319000D01*
X145622700Y-103833000D02*
X145622700Y-101116000D01*
X145662700Y-99036000D02*
X145662700Y-96303000D01*
X145662700Y-103849000D02*
X145662700Y-101116000D01*
X145702700Y-99036000D02*
X145702700Y-96287000D01*
X145702700Y-103865000D02*
X145702700Y-101116000D01*
X145742700Y-99036000D02*
X145742700Y-96271000D01*
X145742700Y-103881000D02*
X145742700Y-101116000D01*
X145782700Y-99036000D02*
X145782700Y-96256000D01*
X145782700Y-103896000D02*
X145782700Y-101116000D01*
X145822700Y-99036000D02*
X145822700Y-96241000D01*
X145822700Y-103911000D02*
X145822700Y-101116000D01*
X145862700Y-99036000D02*
X145862700Y-96227000D01*
X145862700Y-103925000D02*
X145862700Y-101116000D01*
X145902700Y-99036000D02*
X145902700Y-96213000D01*
X145902700Y-103939000D02*
X145902700Y-101116000D01*
X145942700Y-99036000D02*
X145942700Y-96200000D01*
X145942700Y-103952000D02*
X145942700Y-101116000D01*
X145982700Y-99036000D02*
X145982700Y-96187000D01*
X145982700Y-103965000D02*
X145982700Y-101116000D01*
X146022700Y-99036000D02*
X146022700Y-96175000D01*
X146022700Y-103977000D02*
X146022700Y-101116000D01*
X146062700Y-99036000D02*
X146062700Y-96163000D01*
X146062700Y-103989000D02*
X146062700Y-101116000D01*
X146102700Y-99036000D02*
X146102700Y-96151000D01*
X146102700Y-104001000D02*
X146102700Y-101116000D01*
X146142700Y-99036000D02*
X146142700Y-96140000D01*
X146142700Y-104012000D02*
X146142700Y-101116000D01*
X146182700Y-99036000D02*
X146182700Y-96129000D01*
X146182700Y-104023000D02*
X146182700Y-101116000D01*
X146222700Y-99036000D02*
X146222700Y-96119000D01*
X146222700Y-104033000D02*
X146222700Y-101116000D01*
X146262700Y-99036000D02*
X146262700Y-96109000D01*
X146262700Y-104043000D02*
X146262700Y-101116000D01*
X146302700Y-99036000D02*
X146302700Y-96100000D01*
X146302700Y-104052000D02*
X146302700Y-101116000D01*
X146342700Y-99036000D02*
X146342700Y-96091000D01*
X146342700Y-104061000D02*
X146342700Y-101116000D01*
X146382700Y-99036000D02*
X146382700Y-96083000D01*
X146382700Y-104069000D02*
X146382700Y-101116000D01*
X146422700Y-99036000D02*
X146422700Y-96074000D01*
X146422700Y-104078000D02*
X146422700Y-101116000D01*
X146462700Y-99036000D02*
X146462700Y-96067000D01*
X146462700Y-104085000D02*
X146462700Y-101116000D01*
X146502700Y-99036000D02*
X146502700Y-96059000D01*
X146502700Y-104093000D02*
X146502700Y-101116000D01*
X146542700Y-104099000D02*
X146542700Y-96053000D01*
X146582700Y-104106000D02*
X146582700Y-96046000D01*
X146622700Y-104112000D02*
X146622700Y-96040000D01*
X146662700Y-104118000D02*
X146662700Y-96034000D01*
X146702700Y-104123000D02*
X146702700Y-96029000D01*
X146742700Y-104128000D02*
X146742700Y-96024000D01*
X146782700Y-104132000D02*
X146782700Y-96020000D01*
X146822700Y-104137000D02*
X146822700Y-96015000D01*
X146862700Y-104140000D02*
X146862700Y-96012000D01*
X146902700Y-104144000D02*
X146902700Y-96008000D01*
X146942700Y-104146000D02*
X146942700Y-96006000D01*
X146982700Y-104149000D02*
X146982700Y-96003000D01*
X147022700Y-104151000D02*
X147022700Y-96001000D01*
X147062700Y-104153000D02*
X147062700Y-95999000D01*
X147102700Y-104154000D02*
X147102700Y-95998000D01*
X147142700Y-104155000D02*
X147142700Y-95997000D01*
X147182700Y-104156000D02*
X147182700Y-95996000D01*
X147222700Y-104156000D02*
X147222700Y-95996000D01*
X151232398Y-102791000D02*
X151232398Y-101991000D01*
X151632398Y-102391000D02*
X150832398Y-102391000D01*
X151342700Y-100076000D02*
G75*
G02*
X143102700Y-100076000I-4120000J0D01*
G01*
X143102700Y-100076000D02*
G75*
G02*
X151342700Y-100076000I4120000J0D01*
G01*
%TO.C,J11*%
X164609000Y-68072000D02*
X164609000Y-57802000D01*
X167369000Y-57802000D02*
X164609000Y-57802000D01*
X167369000Y-68072000D02*
X164609000Y-68072000D01*
X167369000Y-68072000D02*
X167369000Y-57802000D01*
X167369000Y-69342000D02*
X167369000Y-70722000D01*
X167369000Y-70722000D02*
X165989000Y-70722000D01*
%TO.C,C3*%
X122705000Y-88169000D02*
X122853000Y-88169000D01*
X122705000Y-91409000D02*
X122705000Y-88169000D01*
X122853000Y-91409000D02*
X122705000Y-91409000D01*
X124797000Y-88169000D02*
X124945000Y-88169000D01*
X124945000Y-88169000D02*
X124945000Y-91409000D01*
X124945000Y-91409000D02*
X124797000Y-91409000D01*
%TO.C,C1*%
X143777700Y-84988000D02*
X143777700Y-83922000D01*
X143817700Y-85223000D02*
X143817700Y-83687000D01*
X143857700Y-85402000D02*
X143857700Y-83508000D01*
X143897700Y-85552000D02*
X143897700Y-83358000D01*
X143937700Y-85683000D02*
X143937700Y-83227000D01*
X143977700Y-85801000D02*
X143977700Y-83109000D01*
X144017700Y-85908000D02*
X144017700Y-83002000D01*
X144057700Y-86007000D02*
X144057700Y-82903000D01*
X144097700Y-86099000D02*
X144097700Y-82811000D01*
X144137700Y-86186000D02*
X144137700Y-82724000D01*
X144177700Y-86268000D02*
X144177700Y-82642000D01*
X144217700Y-86345000D02*
X144217700Y-82565000D01*
X144257700Y-86419000D02*
X144257700Y-82491000D01*
X144297700Y-86489000D02*
X144297700Y-82421000D01*
X144337700Y-86556000D02*
X144337700Y-82354000D01*
X144377700Y-86620000D02*
X144377700Y-82290000D01*
X144417700Y-86682000D02*
X144417700Y-82228000D01*
X144457700Y-86742000D02*
X144457700Y-82168000D01*
X144497700Y-86799000D02*
X144497700Y-82111000D01*
X144537700Y-86855000D02*
X144537700Y-82055000D01*
X144577700Y-86908000D02*
X144577700Y-82002000D01*
X144617700Y-86960000D02*
X144617700Y-81950000D01*
X144657700Y-87010000D02*
X144657700Y-81900000D01*
X144697700Y-87059000D02*
X144697700Y-81851000D01*
X144737700Y-87106000D02*
X144737700Y-81804000D01*
X144777700Y-87151000D02*
X144777700Y-81759000D01*
X144817700Y-87196000D02*
X144817700Y-81714000D01*
X144857700Y-87239000D02*
X144857700Y-81671000D01*
X144897700Y-87281000D02*
X144897700Y-81629000D01*
X144937700Y-87322000D02*
X144937700Y-81588000D01*
X144977700Y-87361000D02*
X144977700Y-81549000D01*
X145017700Y-87400000D02*
X145017700Y-81510000D01*
X145057700Y-87437000D02*
X145057700Y-81473000D01*
X145097700Y-83415000D02*
X145097700Y-81436000D01*
X145097700Y-87474000D02*
X145097700Y-85495000D01*
X145137700Y-83415000D02*
X145137700Y-81400000D01*
X145137700Y-87510000D02*
X145137700Y-85495000D01*
X145177700Y-83415000D02*
X145177700Y-81366000D01*
X145177700Y-87544000D02*
X145177700Y-85495000D01*
X145217700Y-83415000D02*
X145217700Y-81332000D01*
X145217700Y-87578000D02*
X145217700Y-85495000D01*
X145257700Y-83415000D02*
X145257700Y-81299000D01*
X145257700Y-87611000D02*
X145257700Y-85495000D01*
X145297700Y-83415000D02*
X145297700Y-81267000D01*
X145297700Y-87643000D02*
X145297700Y-85495000D01*
X145337700Y-83415000D02*
X145337700Y-81236000D01*
X145337700Y-87674000D02*
X145337700Y-85495000D01*
X145377700Y-83415000D02*
X145377700Y-81205000D01*
X145377700Y-87705000D02*
X145377700Y-85495000D01*
X145417700Y-83415000D02*
X145417700Y-81175000D01*
X145417700Y-87735000D02*
X145417700Y-85495000D01*
X145457700Y-83415000D02*
X145457700Y-81146000D01*
X145457700Y-87764000D02*
X145457700Y-85495000D01*
X145497700Y-83415000D02*
X145497700Y-81118000D01*
X145497700Y-87792000D02*
X145497700Y-85495000D01*
X145537700Y-83415000D02*
X145537700Y-81090000D01*
X145537700Y-87820000D02*
X145537700Y-85495000D01*
X145577700Y-83415000D02*
X145577700Y-81063000D01*
X145577700Y-87847000D02*
X145577700Y-85495000D01*
X145617700Y-83415000D02*
X145617700Y-81037000D01*
X145617700Y-87873000D02*
X145617700Y-85495000D01*
X145657700Y-83415000D02*
X145657700Y-81012000D01*
X145657700Y-87898000D02*
X145657700Y-85495000D01*
X145697700Y-83415000D02*
X145697700Y-80987000D01*
X145697700Y-87923000D02*
X145697700Y-85495000D01*
X145737700Y-83415000D02*
X145737700Y-80962000D01*
X145737700Y-87948000D02*
X145737700Y-85495000D01*
X145777700Y-83415000D02*
X145777700Y-80939000D01*
X145777700Y-87971000D02*
X145777700Y-85495000D01*
X145817700Y-83415000D02*
X145817700Y-80916000D01*
X145817700Y-87994000D02*
X145817700Y-85495000D01*
X145857700Y-83415000D02*
X145857700Y-80893000D01*
X145857700Y-88017000D02*
X145857700Y-85495000D01*
X145897700Y-83415000D02*
X145897700Y-80871000D01*
X145897700Y-88039000D02*
X145897700Y-85495000D01*
X145937700Y-83415000D02*
X145937700Y-80850000D01*
X145937700Y-88060000D02*
X145937700Y-85495000D01*
X145977700Y-83415000D02*
X145977700Y-80829000D01*
X145977700Y-88081000D02*
X145977700Y-85495000D01*
X146017700Y-83415000D02*
X146017700Y-80809000D01*
X146017700Y-88101000D02*
X146017700Y-85495000D01*
X146057700Y-83415000D02*
X146057700Y-80789000D01*
X146057700Y-88121000D02*
X146057700Y-85495000D01*
X146097700Y-83415000D02*
X146097700Y-80770000D01*
X146097700Y-88140000D02*
X146097700Y-85495000D01*
X146137700Y-83415000D02*
X146137700Y-80751000D01*
X146137700Y-88159000D02*
X146137700Y-85495000D01*
X146177700Y-83415000D02*
X146177700Y-80733000D01*
X146177700Y-88177000D02*
X146177700Y-85495000D01*
X146217700Y-83415000D02*
X146217700Y-80715000D01*
X146217700Y-88195000D02*
X146217700Y-85495000D01*
X146257700Y-83415000D02*
X146257700Y-80698000D01*
X146257700Y-88212000D02*
X146257700Y-85495000D01*
X146297700Y-83415000D02*
X146297700Y-80682000D01*
X146297700Y-88228000D02*
X146297700Y-85495000D01*
X146337700Y-83415000D02*
X146337700Y-80666000D01*
X146337700Y-88244000D02*
X146337700Y-85495000D01*
X146377700Y-83415000D02*
X146377700Y-80650000D01*
X146377700Y-88260000D02*
X146377700Y-85495000D01*
X146417700Y-83415000D02*
X146417700Y-80635000D01*
X146417700Y-88275000D02*
X146417700Y-85495000D01*
X146457700Y-83415000D02*
X146457700Y-80620000D01*
X146457700Y-88290000D02*
X146457700Y-85495000D01*
X146497700Y-83415000D02*
X146497700Y-80606000D01*
X146497700Y-88304000D02*
X146497700Y-85495000D01*
X146537700Y-83415000D02*
X146537700Y-80592000D01*
X146537700Y-88318000D02*
X146537700Y-85495000D01*
X146577700Y-83415000D02*
X146577700Y-80579000D01*
X146577700Y-88331000D02*
X146577700Y-85495000D01*
X146617700Y-83415000D02*
X146617700Y-80566000D01*
X146617700Y-88344000D02*
X146617700Y-85495000D01*
X146657700Y-83415000D02*
X146657700Y-80554000D01*
X146657700Y-88356000D02*
X146657700Y-85495000D01*
X146697700Y-83415000D02*
X146697700Y-80542000D01*
X146697700Y-88368000D02*
X146697700Y-85495000D01*
X146737700Y-83415000D02*
X146737700Y-80530000D01*
X146737700Y-88380000D02*
X146737700Y-85495000D01*
X146777700Y-83415000D02*
X146777700Y-80519000D01*
X146777700Y-88391000D02*
X146777700Y-85495000D01*
X146817700Y-83415000D02*
X146817700Y-80508000D01*
X146817700Y-88402000D02*
X146817700Y-85495000D01*
X146857700Y-83415000D02*
X146857700Y-80498000D01*
X146857700Y-88412000D02*
X146857700Y-85495000D01*
X146897700Y-83415000D02*
X146897700Y-80488000D01*
X146897700Y-88422000D02*
X146897700Y-85495000D01*
X146937700Y-83415000D02*
X146937700Y-80479000D01*
X146937700Y-88431000D02*
X146937700Y-85495000D01*
X146977700Y-83415000D02*
X146977700Y-80470000D01*
X146977700Y-88440000D02*
X146977700Y-85495000D01*
X147017700Y-83415000D02*
X147017700Y-80462000D01*
X147017700Y-88448000D02*
X147017700Y-85495000D01*
X147057700Y-83415000D02*
X147057700Y-80453000D01*
X147057700Y-88457000D02*
X147057700Y-85495000D01*
X147097700Y-83415000D02*
X147097700Y-80446000D01*
X147097700Y-88464000D02*
X147097700Y-85495000D01*
X147137700Y-83415000D02*
X147137700Y-80438000D01*
X147137700Y-88472000D02*
X147137700Y-85495000D01*
X147177700Y-88478000D02*
X147177700Y-80432000D01*
X147217700Y-88485000D02*
X147217700Y-80425000D01*
X147257700Y-88491000D02*
X147257700Y-80419000D01*
X147297700Y-88497000D02*
X147297700Y-80413000D01*
X147337700Y-88502000D02*
X147337700Y-80408000D01*
X147377700Y-88507000D02*
X147377700Y-80403000D01*
X147417700Y-88511000D02*
X147417700Y-80399000D01*
X147457700Y-88516000D02*
X147457700Y-80394000D01*
X147497700Y-88519000D02*
X147497700Y-80391000D01*
X147537700Y-88523000D02*
X147537700Y-80387000D01*
X147577700Y-88525000D02*
X147577700Y-80385000D01*
X147617700Y-88528000D02*
X147617700Y-80382000D01*
X147657700Y-88530000D02*
X147657700Y-80380000D01*
X147697700Y-88532000D02*
X147697700Y-80378000D01*
X147737700Y-88533000D02*
X147737700Y-80377000D01*
X147777700Y-88534000D02*
X147777700Y-80376000D01*
X147817700Y-88535000D02*
X147817700Y-80375000D01*
X147857700Y-88535000D02*
X147857700Y-80375000D01*
X151867398Y-87170000D02*
X151867398Y-86370000D01*
X152267398Y-86770000D02*
X151467398Y-86770000D01*
X151977700Y-84455000D02*
G75*
G02*
X143737700Y-84455000I-4120000J0D01*
G01*
X143737700Y-84455000D02*
G75*
G02*
X151977700Y-84455000I4120000J0D01*
G01*
%TD*%
M02*
